<svg xmlns="http://www.w3.org/2000/svg" width="478" height="339" fill="none" xmlns:v="https://vecta.io/nano"><g filter="url(#A)"><rect x="17" y="13" width="448" height="309" rx="35" fill="#90afe9"/></g><g fill="#fff"><path d="M74.241 97.252c-2.376 0-4.56-.552-6.552-1.656-1.968-1.104-3.54-2.64-4.716-4.608-1.152-1.992-1.728-4.224-1.728-6.696s.576-4.692 1.728-6.66c1.176-1.968 2.748-3.504 4.716-4.608 1.992-1.104 4.176-1.656 6.552-1.656s4.548.552 6.516 1.656c1.992 1.104 3.552 2.64 4.68 4.608 1.152 1.968 1.728 4.188 1.728 6.66s-.576 4.704-1.728 6.696c-1.152 1.968-2.712 3.504-4.68 4.608s-4.14 1.656-6.516 1.656zm0-5.616c2.016 0 3.624-.672 4.824-2.016 1.224-1.344 1.836-3.12 1.836-5.328 0-2.232-.612-4.008-1.836-5.328-1.2-1.344-2.808-2.016-4.824-2.016-2.04 0-3.672.66-4.896 1.98-1.2 1.32-1.8 3.108-1.8 5.364 0 2.232.6 4.02 1.8 5.364 1.224 1.32 2.856 1.98 4.896 1.98zm36.184-14.724V97h-6.156v-2.736c-.624.888-1.476 1.608-2.556 2.16-1.056.528-2.232.792-3.528.792-1.536 0-2.892-.336-4.068-1.008-1.176-.696-2.088-1.692-2.736-2.988s-.972-2.82-.972-4.572V76.912h6.12V87.82c0 1.344.348 2.388 1.044 3.132s1.632 1.116 2.808 1.116c1.2 0 2.148-.372 2.844-1.116s1.044-1.788 1.044-3.132V76.912h6.156zm10.578 3.348c.72-1.104 1.62-1.968 2.7-2.592 1.08-.648 2.28-.972 3.6-.972v6.516h-1.692c-1.536 0-2.688.336-3.456 1.008-.768.648-1.152 1.8-1.152 3.456V97h-6.156V76.912h6.156v3.348zm42.504-3.564c2.496 0 4.476.756 5.94 2.268 1.488 1.512 2.232 3.612 2.232 6.3V97h-6.12V86.092c0-1.296-.348-2.292-1.044-2.988-.672-.72-1.608-1.08-2.808-1.08s-2.148.36-2.844 1.08c-.672.696-1.008 1.692-1.008 2.988V97h-6.12V86.092c0-1.296-.348-2.292-1.044-2.988-.672-.72-1.608-1.08-2.808-1.08s-2.148.36-2.844 1.08c-.672.696-1.008 1.692-1.008 2.988V97h-6.156V76.912h6.156v2.52c.624-.84 1.44-1.5 2.448-1.98 1.008-.504 2.148-.756 3.42-.756 1.512 0 2.856.324 4.032.972 1.2.648 2.136 1.572 2.808 2.772.696-1.104 1.644-2.004 2.844-2.7s2.508-1.044 3.924-1.044zm15.573-1.872c-1.08 0-1.968-.312-2.664-.936a3.17 3.17 0 0 1-1.008-2.376c0-.96.336-1.752 1.008-2.376.696-.648 1.584-.972 2.664-.972 1.056 0 1.92.324 2.592.972.696.624 1.044 1.416 1.044 2.376a3.12 3.12 0 0 1-1.044 2.376c-.672.624-1.536.936-2.592.936zm3.06 2.088V97h-6.156V76.912h6.156zm12.633 20.376c-1.752 0-3.312-.3-4.68-.9s-2.448-1.416-3.24-2.448c-.792-1.056-1.236-2.232-1.332-3.528h6.084c.072.696.396 1.26.972 1.692s1.284.648 2.124.648c.768 0 1.356-.144 1.764-.432.432-.312.648-.708.648-1.188 0-.576-.3-.996-.9-1.26-.6-.288-1.572-.6-2.916-.936-1.44-.336-2.64-.684-3.6-1.044-.96-.384-1.788-.972-2.484-1.764-.696-.816-1.044-1.908-1.044-3.276 0-1.152.312-2.196.936-3.132.648-.96 1.584-1.716 2.808-2.268 1.248-.552 2.724-.828 4.428-.828 2.52 0 4.5.624 5.94 1.872 1.464 1.248 2.304 2.904 2.52 4.968h-5.688c-.096-.696-.408-1.248-.936-1.656-.504-.408-1.176-.612-2.016-.612-.72 0-1.272.144-1.656.432-.384.264-.576.636-.576 1.116 0 .576.3 1.008.9 1.296.624.288 1.584.576 2.88.864 1.488.384 2.7.768 3.636 1.152.936.36 1.752.96 2.448 1.8.72.816 1.092 1.92 1.116 3.312 0 1.176-.336 2.232-1.008 3.168-.648.912-1.596 1.632-2.844 2.16-1.224.528-2.652.792-4.284.792zm20.074 0c-1.752 0-3.312-.3-4.68-.9s-2.448-1.416-3.24-2.448c-.792-1.056-1.236-2.232-1.332-3.528h6.084c.072.696.396 1.26.972 1.692s1.284.648 2.124.648c.768 0 1.356-.144 1.764-.432.432-.312.648-.708.648-1.188 0-.576-.3-.996-.9-1.26-.6-.288-1.572-.6-2.916-.936-1.44-.336-2.64-.684-3.6-1.044-.96-.384-1.788-.972-2.484-1.764-.696-.816-1.044-1.908-1.044-3.276 0-1.152.312-2.196.936-3.132.648-.96 1.584-1.716 2.808-2.268 1.248-.552 2.724-.828 4.428-.828 2.52 0 4.5.624 5.94 1.872 1.464 1.248 2.304 2.904 2.52 4.968h-5.688c-.096-.696-.408-1.248-.936-1.656-.504-.408-1.176-.612-2.016-.612-.72 0-1.272.144-1.656.432-.384.264-.576.636-.576 1.116 0 .576.3 1.008.9 1.296.624.288 1.584.576 2.88.864 1.488.384 2.7.768 3.636 1.152.936.36 1.752.96 2.448 1.8.72.816 1.092 1.92 1.116 3.312 0 1.176-.336 2.232-1.008 3.168-.648.912-1.596 1.632-2.844 2.16-1.224.528-2.652.792-4.284.792zm14.999-22.464c-1.08 0-1.968-.312-2.664-.936a3.17 3.17 0 0 1-1.008-2.376c0-.96.336-1.752 1.008-2.376.696-.648 1.584-.972 2.664-.972 1.056 0 1.92.324 2.592.972.696.624 1.044 1.416 1.044 2.376a3.12 3.12 0 0 1-1.044 2.376c-.672.624-1.536.936-2.592.936zm3.06 2.088V97h-6.156V76.912h6.156zm13.605 20.376c-1.968 0-3.744-.42-5.328-1.26-1.56-.84-2.796-2.04-3.708-3.6-.888-1.56-1.332-3.384-1.332-5.472 0-2.064.456-3.876 1.368-5.436.912-1.584 2.16-2.796 3.744-3.636s3.36-1.26 5.328-1.26 3.744.42 5.328 1.26 2.832 2.052 3.744 3.636c.912 1.56 1.368 3.372 1.368 5.436s-.468 3.888-1.404 5.472c-.912 1.56-2.172 2.76-3.78 3.6-1.584.84-3.36 1.26-5.328 1.26zm0-5.328a3.95 3.95 0 0 0 2.988-1.296c.84-.864 1.26-2.1 1.26-3.708s-.408-2.844-1.224-3.708a3.84 3.84 0 0 0-2.952-1.296c-1.2 0-2.196.432-2.988 1.296-.792.84-1.188 2.076-1.188 3.708 0 1.608.384 2.844 1.152 3.708a3.84 3.84 0 0 0 2.952 1.296zm26.018-15.264c2.352 0 4.224.768 5.616 2.304 1.416 1.512 2.124 3.6 2.124 6.264V97h-6.12V86.092c0-1.344-.348-2.388-1.044-3.132s-1.632-1.116-2.808-1.116-2.112.372-2.808 1.116-1.044 1.788-1.044 3.132V97h-6.156V76.912h6.156v2.664c.624-.888 1.464-1.584 2.52-2.088 1.056-.528 2.244-.792 3.564-.792z"/><path d="M79.06 126.06L75.02 140h-2.04l-3.24-11.22L66.38 140l-2.02.02-3.9-13.96h1.94l3.04 11.82 3.36-11.82h2.04l3.2 11.78 3.06-11.78h1.96zm11.992 8.04a10.71 10.71 0 0 1-.06 1.1h-8.76c.067 1.08.433 1.927 1.1 2.54.68.6 1.5.9 2.46.9.787 0 1.44-.18 1.96-.54.533-.373.907-.867 1.12-1.48h1.96a4.76 4.76 0 0 1-1.76 2.58c-.88.653-1.973.98-3.28.98-1.04 0-1.973-.233-2.8-.7-.813-.467-1.453-1.127-1.92-1.98-.467-.867-.7-1.867-.7-3s.227-2.127.68-2.98 1.087-1.507 1.9-1.96c.827-.467 1.773-.7 2.84-.7 1.04 0 1.96.227 2.76.68a4.62 4.62 0 0 1 1.84 1.88c.44.787.66 1.68.66 2.68zm-1.88-.38c0-.693-.153-1.287-.46-1.78a2.89 2.89 0 0 0-1.26-1.14c-.52-.267-1.1-.4-1.74-.4-.92 0-1.707.293-2.36.88-.64.587-1.007 1.4-1.1 2.44h6.92zm24.214-4.68l-3.42 10.96h-1.88l-2.64-8.7-2.64 8.7h-1.88l-3.44-10.96h1.86l2.52 9.2 2.72-9.2h1.86l2.66 9.22 2.48-9.22h1.8zm1.126 5.44c0-1.12.227-2.1.68-2.94.454-.853 1.074-1.513 1.86-1.98a5.18 5.18 0 0 1 2.66-.7c.96 0 1.794.207 2.5.62s1.234.933 1.58 1.56v-2h1.84V140h-1.84v-2.04c-.36.64-.9 1.173-1.62 1.6-.706.413-1.533.62-2.48.62-.973 0-1.853-.24-2.64-.72s-1.406-1.153-1.86-2.02-.68-1.853-.68-2.96zm9.28.02c0-.827-.166-1.547-.5-2.16s-.786-1.08-1.36-1.4a3.57 3.57 0 0 0-1.86-.5c-.68 0-1.3.16-1.86.48s-1.006.787-1.34 1.4-.5 1.333-.5 2.16c0 .84.167 1.573.5 2.2.334.613.78 1.087 1.34 1.42.56.32 1.18.48 1.86.48s1.3-.16 1.86-.48c.574-.333 1.027-.807 1.36-1.42.334-.627.5-1.353.5-2.18zm10.256-5.66c1.333 0 2.413.407 3.24 1.22.827.8 1.24 1.96 1.24 3.48V140h-1.8v-6.2c0-1.093-.273-1.927-.82-2.5-.547-.587-1.293-.88-2.24-.88-.96 0-1.727.3-2.3.9-.56.6-.84 1.473-.84 2.62V140h-1.82v-10.96h1.82v1.56c.36-.56.847-.993 1.46-1.3.627-.307 1.313-.46 2.06-.46zm9.673 1.7V137c0 .533.113.913.34 1.14.227.213.62.32 1.18.32h1.34V140h-1.64c-1.013 0-1.773-.233-2.28-.7s-.76-1.233-.76-2.3v-6.46h-1.42v-1.5h1.42v-2.76h1.82v2.76h2.86v1.5h-2.86zm12.617 0V137c0 .533.113.913.34 1.14.227.213.62.32 1.18.32h1.34V140h-1.64c-1.013 0-1.773-.233-2.28-.7s-.76-1.233-.76-2.3v-6.46h-1.42v-1.5h1.42v-2.76h1.82v2.76h2.86v1.5h-2.86zm9.845 9.64c-1.026 0-1.96-.233-2.8-.7-.826-.467-1.48-1.127-1.96-1.98-.466-.867-.7-1.867-.7-3 0-1.12.24-2.107.72-2.96a5.01 5.01 0 0 1 2-1.98c.84-.467 1.78-.7 2.82-.7s1.98.233 2.82.7c.84.453 1.5 1.107 1.98 1.96.494.853.74 1.847.74 2.98s-.253 2.133-.76 3c-.493.853-1.166 1.513-2.02 1.98s-1.8.7-2.84.7zm0-1.6c.654 0 1.267-.153 1.84-.46s1.034-.767 1.38-1.38c.36-.613.54-1.36.54-2.24s-.173-1.627-.52-2.24-.8-1.067-1.36-1.36c-.56-.307-1.166-.46-1.82-.46-.666 0-1.28.153-1.84.46-.546.293-.986.747-1.32 1.36s-.5 1.36-.5 2.24c0 .893.16 1.647.48 2.26.334.613.774 1.073 1.32 1.38.547.293 1.147.44 1.8.44zm15.165-7.76c.32-.627.774-1.113 1.36-1.46.6-.347 1.327-.52 2.18-.52v1.88h-.48c-2.04 0-3.06 1.107-3.06 3.32V140h-1.82v-10.96h1.82v1.78zm4.961 3.66c0-1.12.227-2.1.68-2.94.454-.853 1.074-1.513 1.86-1.98a5.18 5.18 0 0 1 2.66-.7c.96 0 1.794.207 2.5.62s1.234.933 1.58 1.56v-2h1.84V140h-1.84v-2.04c-.36.64-.9 1.173-1.62 1.6-.706.413-1.533.62-2.48.62-.973 0-1.853-.24-2.64-.72s-1.406-1.153-1.86-2.02-.68-1.853-.68-2.96zm9.28.02c0-.827-.166-1.547-.5-2.16s-.786-1.08-1.36-1.4a3.57 3.57 0 0 0-1.86-.5c-.68 0-1.3.16-1.86.48s-1.006.787-1.34 1.4-.5 1.333-.5 2.16c0 .84.167 1.573.5 2.2.334.613.78 1.087 1.34 1.42.56.32 1.18.48 1.86.48s1.3-.16 1.86-.48c.574-.333 1.027-.807 1.36-1.42.334-.627.5-1.353.5-2.18zm5.856-7.24c-.347 0-.64-.12-.88-.36s-.36-.533-.36-.88.12-.64.36-.88.533-.36.88-.36a1.11 1.11 0 0 1 .84.36c.24.24.36.533.36.88s-.12.64-.36.88a1.11 1.11 0 0 1-.84.36zm.88 1.78V140h-1.82v-10.96h1.82zm6.982 11.14c-.84 0-1.594-.14-2.26-.42-.667-.293-1.194-.693-1.58-1.2a3.24 3.24 0 0 1-.64-1.78h1.88a1.85 1.85 0 0 0 .76 1.34c.466.347 1.073.52 1.82.52.693 0 1.24-.153 1.64-.46s.6-.693.6-1.16a1.12 1.12 0 0 0-.64-1.06c-.427-.24-1.087-.473-1.98-.7-.814-.213-1.48-.427-2-.64a3.79 3.79 0 0 1-1.32-.98c-.36-.44-.54-1.013-.54-1.72 0-.56.166-1.073.5-1.54s.806-.833 1.42-1.1c.613-.28 1.313-.42 2.1-.42 1.213 0 2.193.307 2.94.92s1.146 1.453 1.2 2.52h-1.82a1.87 1.87 0 0 0-.7-1.38c-.414-.347-.974-.52-1.68-.52-.654 0-1.174.14-1.56.42s-.58.647-.58 1.1c0 .36.113.66.34.9.24.227.533.413.88.56.36.133.853.287 1.48.46.786.213 1.426.427 1.92.64a3.19 3.19 0 0 1 1.26.92c.36.413.546.953.56 1.62 0 .6-.167 1.14-.5 1.62s-.807.86-1.42 1.14c-.6.267-1.294.4-2.08.4zm16.569-6.08a10.71 10.71 0 0 1-.06 1.1h-8.76c.067 1.08.433 1.927 1.1 2.54.68.6 1.5.9 2.46.9.787 0 1.44-.18 1.96-.54.533-.373.907-.867 1.12-1.48h1.96a4.76 4.76 0 0 1-1.76 2.58c-.88.653-1.973.98-3.28.98-1.04 0-1.973-.233-2.8-.7a5 5 0 0 1-1.92-1.98c-.467-.867-.7-1.867-.7-3s.227-2.127.68-2.98 1.087-1.507 1.9-1.96c.827-.467 1.773-.7 2.84-.7 1.04 0 1.96.227 2.76.68s1.413 1.08 1.84 1.88c.44.787.66 1.68.66 2.68zm-1.88-.38c0-.693-.153-1.287-.46-1.78-.307-.507-.727-.887-1.26-1.14-.52-.267-1.1-.4-1.74-.4-.92 0-1.707.293-2.36.88-.64.587-1.007 1.4-1.1 2.44h6.92zm11.834-3.18V137c0 .533.114.913.34 1.14.227.213.62.32 1.18.32h1.34V140h-1.64c-1.013 0-1.773-.233-2.28-.7s-.76-1.233-.76-2.3v-6.46h-1.42v-1.5h1.42v-2.76h1.82v2.76h2.86v1.5h-2.86zm10.505-1.7c.827 0 1.574.18 2.24.54.667.347 1.187.873 1.56 1.58.387.707.58 1.567.58 2.58V140h-1.8v-6.2c0-1.093-.273-1.927-.82-2.5-.546-.587-1.293-.88-2.24-.88-.96 0-1.726.3-2.3.9-.56.6-.84 1.473-.84 2.62V140h-1.82v-14.8h1.82v5.4c.36-.56.854-.993 1.48-1.3.64-.307 1.354-.46 2.14-.46zm17.353 5.26a10.71 10.71 0 0 1-.06 1.1h-8.76c.067 1.08.434 1.927 1.1 2.54.68.6 1.5.9 2.46.9.787 0 1.44-.18 1.96-.54a2.94 2.94 0 0 0 1.12-1.48h1.96a4.76 4.76 0 0 1-1.76 2.58c-.88.653-1.973.98-3.28.98-1.04 0-1.973-.233-2.8-.7a5 5 0 0 1-1.92-1.98c-.466-.867-.7-1.867-.7-3s.227-2.127.68-2.98 1.087-1.507 1.9-1.96c.827-.467 1.774-.7 2.84-.7 1.04 0 1.96.227 2.76.68s1.414 1.08 1.84 1.88c.44.787.66 1.68.66 2.68zm-1.88-.38c0-.693-.153-1.287-.46-1.78-.306-.507-.726-.887-1.26-1.14-.52-.267-1.1-.4-1.74-.4-.92 0-1.706.293-2.36.88-.64.587-1.006 1.4-1.1 2.44h6.92zm11.435-8.52V140h-1.82v-14.8h1.82zm13.102 8.9a10.71 10.71 0 0 1-.06 1.1h-8.76c.066 1.08.433 1.927 1.1 2.54.68.6 1.5.9 2.46.9.786 0 1.44-.18 1.96-.54a2.95 2.95 0 0 0 1.12-1.48h1.96c-.294 1.053-.88 1.913-1.76 2.58-.88.653-1.974.98-3.28.98-1.04 0-1.974-.233-2.8-.7-.814-.467-1.454-1.127-1.92-1.98-.467-.867-.7-1.867-.7-3s.226-2.127.68-2.98a4.72 4.72 0 0 1 1.9-1.96c.826-.467 1.773-.7 2.84-.7 1.04 0 1.96.227 2.76.68s1.413 1.08 1.84 1.88c.44.787.66 1.68.66 2.68zm-1.88-.38c0-.693-.154-1.287-.46-1.78-.307-.507-.727-.887-1.26-1.14-.52-.267-1.1-.4-1.74-.4-.92 0-1.707.293-2.36.88-.64.587-1.007 1.4-1.1 2.44h6.92zm8.362 4.6l3.4-9.28h1.94l-4.3 10.96h-2.12l-4.3-10.96h1.96l3.42 9.28zm17.131-4.22a10.71 10.71 0 0 1-.06 1.1h-8.76c.067 1.08.433 1.927 1.1 2.54.68.6 1.5.9 2.46.9.787 0 1.44-.18 1.96-.54.533-.373.907-.867 1.12-1.48h1.96a4.76 4.76 0 0 1-1.76 2.58c-.88.653-1.973.98-3.28.98-1.04 0-1.973-.233-2.8-.7a5 5 0 0 1-1.92-1.98c-.467-.867-.7-1.867-.7-3s.227-2.127.68-2.98 1.087-1.507 1.9-1.96c.827-.467 1.773-.7 2.84-.7 1.04 0 1.96.227 2.76.68s1.413 1.08 1.84 1.88c.44.787.66 1.68.66 2.68zm-1.88-.38c0-.693-.153-1.287-.46-1.78-.307-.507-.727-.887-1.26-1.14-.52-.267-1.1-.4-1.74-.4-.92 0-1.707.293-2.36.88-.64.587-1.007 1.4-1.1 2.44h6.92zm6.102-8.52V140h-1.82v-14.8h1.82zm9.374 2.06c-.346 0-.64-.12-.88-.36s-.36-.533-.36-.88.12-.64.36-.88.534-.36.88-.36c.334 0 .614.12.84.36.24.24.36.533.36.88s-.12.64-.36.88c-.226.24-.506.36-.84.36zm.88 1.78V140h-1.82v-10.96h1.82zm8.442-.2c1.333 0 2.413.407 3.24 1.22.827.8 1.24 1.96 1.24 3.48V140h-1.8v-6.2c0-1.093-.273-1.927-.82-2.5-.547-.587-1.293-.88-2.24-.88-.96 0-1.727.3-2.3.9-.56.6-.84 1.473-.84 2.62V140h-1.82v-10.96h1.82v1.56c.36-.56.847-.993 1.46-1.3.627-.307 1.313-.46 2.06-.46zm15.005 1.7V137c0 .533.113.913.34 1.14.227.213.62.32 1.18.32h1.34V140h-1.64c-1.013 0-1.773-.233-2.28-.7s-.76-1.233-.76-2.3v-6.46h-1.42v-1.5h1.42v-2.76h1.82v2.76h2.86v1.5h-2.86zm10.505-1.7c.827 0 1.574.18 2.24.54.667.347 1.187.873 1.56 1.58.387.707.58 1.567.58 2.58V140h-1.8v-6.2c0-1.093-.273-1.927-.82-2.5-.546-.587-1.293-.88-2.24-.88-.96 0-1.726.3-2.3.9-.56.6-.84 1.473-.84 2.62V140h-1.82v-14.8h1.82v5.4c.36-.56.854-.993 1.48-1.3.64-.307 1.354-.46 2.14-.46zm17.353 5.26a10.71 10.71 0 0 1-.06 1.1h-8.76c.067 1.08.434 1.927 1.1 2.54.68.6 1.5.9 2.46.9.787 0 1.44-.18 1.96-.54a2.94 2.94 0 0 0 1.12-1.48h1.96a4.76 4.76 0 0 1-1.76 2.58c-.88.653-1.973.98-3.28.98-1.04 0-1.973-.233-2.8-.7a5 5 0 0 1-1.92-1.98c-.466-.867-.7-1.867-.7-3s.227-2.127.68-2.98 1.087-1.507 1.9-1.96c.827-.467 1.774-.7 2.84-.7 1.04 0 1.96.227 2.76.68s1.414 1.08 1.84 1.88c.44.787.66 1.68.66 2.68zm-1.88-.38c0-.693-.153-1.287-.46-1.78-.306-.507-.726-.887-1.26-1.14-.52-.267-1.1-.4-1.74-.4-.92 0-1.706.293-2.36.88-.64.587-1.006 1.4-1.1 2.44h6.92zM66.98 151.84c.827 0 1.573.18 2.24.54.667.347 1.187.873 1.56 1.58.387.707.58 1.567.58 2.58V163h-1.8v-6.2c0-1.093-.273-1.927-.82-2.5-.547-.587-1.293-.88-2.24-.88-.96 0-1.727.3-2.3.9-.56.6-.84 1.473-.84 2.62V163h-1.82v-14.8h1.82v5.4a3.6 3.6 0 0 1 1.48-1.3c.64-.307 1.353-.46 2.14-.46zm12.133 11.34c-1.027 0-1.96-.233-2.8-.7-.827-.467-1.48-1.127-1.96-1.98-.467-.867-.7-1.867-.7-3 0-1.12.24-2.107.72-2.96.493-.867 1.16-1.527 2-1.98.84-.467 1.78-.7 2.82-.7s1.98.233 2.82.7c.84.453 1.5 1.107 1.98 1.96.493.853.74 1.847.74 2.98s-.253 2.133-.76 3c-.493.853-1.167 1.513-2.02 1.98s-1.8.7-2.84.7zm0-1.6a3.84 3.84 0 0 0 1.84-.46c.573-.307 1.033-.767 1.38-1.38.36-.613.54-1.36.54-2.24s-.173-1.627-.52-2.24-.8-1.067-1.36-1.36c-.56-.307-1.167-.46-1.82-.46-.667 0-1.28.153-1.84.46-.547.293-.987.747-1.32 1.36s-.5 1.36-.5 2.24c0 .893.16 1.647.48 2.26.333.613.773 1.073 1.32 1.38a3.75 3.75 0 0 0 1.8.44zm11.893 1.6c-.84 0-1.593-.14-2.26-.42-.667-.293-1.193-.693-1.58-1.2-.387-.52-.6-1.113-.64-1.78h1.88c.053.547.307.993.76 1.34.467.347 1.073.52 1.82.52.693 0 1.24-.153 1.64-.46s.6-.693.6-1.16a1.12 1.12 0 0 0-.64-1.06c-.427-.24-1.087-.473-1.98-.7-.813-.213-1.48-.427-2-.64a3.8 3.8 0 0 1-1.32-.98c-.36-.44-.54-1.013-.54-1.72a2.59 2.59 0 0 1 .5-1.54c.333-.467.807-.833 1.42-1.1.613-.28 1.313-.42 2.1-.42 1.213 0 2.193.307 2.94.92s1.147 1.453 1.2 2.52h-1.82c-.04-.573-.273-1.033-.7-1.38-.413-.347-.973-.52-1.68-.52-.653 0-1.173.14-1.56.42s-.58.647-.58 1.1c0 .36.113.66.34.9.24.227.533.413.88.56.36.133.853.287 1.48.46.787.213 1.427.427 1.92.64.493.2.913.507 1.26.92.36.413.547.953.56 1.62 0 .6-.167 1.14-.5 1.62s-.807.86-1.42 1.14c-.6.267-1.293.4-2.08.4zm8.389-9.12c.36-.627.893-1.147 1.6-1.56.72-.427 1.553-.64 2.5-.64.973 0 1.853.233 2.64.7.8.467 1.427 1.127 1.88 1.98.453.84.68 1.82.68 2.94 0 1.107-.227 2.093-.68 2.96s-1.08 1.54-1.88 2.02c-.787.48-1.667.72-2.64.72-.933 0-1.76-.207-2.48-.62-.707-.427-1.246-.953-1.62-1.58v7.22h-1.82v-16.16h1.82v2.02zm7.44 3.42c0-.827-.167-1.547-.5-2.16s-.787-1.08-1.36-1.4c-.56-.32-1.18-.48-1.86-.48a3.64 3.64 0 0 0-1.86.5c-.56.32-1.013.793-1.36 1.42-.333.613-.5 1.327-.5 2.14 0 .827.167 1.553.5 2.18.347.613.8 1.087 1.36 1.42a3.75 3.75 0 0 0 1.86.48c.68 0 1.3-.16 1.86-.48a3.58 3.58 0 0 0 1.36-1.42c.333-.627.5-1.36.5-2.2zm5.196-7.22c-.347 0-.64-.12-.88-.36s-.36-.533-.36-.88.12-.64.36-.88.533-.36.88-.36a1.11 1.11 0 0 1 .84.36c.24.24.36.533.36.88s-.12.64-.36.88a1.11 1.11 0 0 1-.84.36zm.88 1.78V163h-1.82v-10.96h1.82zm5.322 1.5V160c0 .533.113.913.34 1.14.226.213.62.32 1.18.32h1.34V163h-1.64c-1.014 0-1.774-.233-2.28-.7s-.76-1.233-.76-2.3v-6.46h-1.42v-1.5h1.42v-2.76h1.82v2.76h2.86v1.5h-2.86zm4.385 3.94c0-1.12.226-2.1.68-2.94.453-.853 1.073-1.513 1.86-1.98.8-.467 1.686-.7 2.66-.7.96 0 1.793.207 2.5.62s1.233.933 1.58 1.56v-2h1.84V163h-1.84v-2.04c-.36.64-.9 1.173-1.62 1.6-.707.413-1.534.62-2.48.62-.974 0-1.854-.24-2.64-.72s-1.407-1.153-1.86-2.02-.68-1.853-.68-2.96zm9.28.02c0-.827-.167-1.547-.5-2.16a3.45 3.45 0 0 0-1.36-1.4 3.57 3.57 0 0 0-1.86-.5c-.68 0-1.3.16-1.86.48s-1.007.787-1.34 1.4-.5 1.333-.5 2.16c0 .84.166 1.573.5 2.2.333.613.78 1.087 1.34 1.42.56.32 1.18.48 1.86.48s1.3-.16 1.86-.48c.573-.333 1.026-.807 1.36-1.42.333-.627.5-1.353.5-2.18zm6.735-9.3V163h-1.82v-14.8h1.82zm4.042 2.06c-.346 0-.64-.12-.88-.36s-.36-.533-.36-.88.12-.64.36-.88.534-.36.88-.36c.334 0 .614.12.84.36.24.24.36.533.36.88s-.12.64-.36.88c-.226.24-.506.36-.84.36zm.88 1.78V163h-1.82v-10.96h1.82zm5.322 1.5V160c0 .533.114.913.34 1.14.227.213.62.32 1.18.32h1.34V163h-1.64c-1.013 0-1.773-.233-2.28-.7s-.76-1.233-.76-2.3v-6.46h-1.42v-1.5h1.42v-2.76h1.82v2.76h2.86v1.5h-2.86zm14.505-1.5l-6.6 16.12h-1.88l2.16-5.28-4.42-10.84h2.02l3.44 8.88 3.4-8.88h1.88zm8.102-1.78c-.347 0-.64-.12-.88-.36s-.36-.533-.36-.88.12-.64.36-.88.533-.36.88-.36a1.11 1.11 0 0 1 .84.36c.24.24.36.533.36.88s-.12.64-.36.88a1.11 1.11 0 0 1-.84.36zm.88 1.78V163h-1.82v-10.96h1.82zm8.442-.2c1.333 0 2.413.407 3.24 1.22.826.8 1.24 1.96 1.24 3.48V163h-1.8v-6.2c0-1.093-.274-1.927-.82-2.5-.547-.587-1.294-.88-2.24-.88-.96 0-1.727.3-2.3.9-.56.6-.84 1.473-.84 2.62V163h-1.82v-10.96h1.82v1.56c.36-.56.846-.993 1.46-1.3.626-.307 1.313-.46 2.06-.46zm6.773 5.64c0-1.12.226-2.1.68-2.94.453-.853 1.073-1.513 1.86-1.98.8-.467 1.693-.7 2.68-.7.853 0 1.646.2 2.38.6.733.387 1.293.9 1.68 1.54v-5.8h1.84V163h-1.84v-2.06c-.36.653-.894 1.193-1.6 1.62-.707.413-1.534.62-2.48.62a5.07 5.07 0 0 1-2.66-.72c-.787-.48-1.407-1.153-1.86-2.02s-.68-1.853-.68-2.96zm9.28.02c0-.827-.167-1.547-.5-2.16a3.45 3.45 0 0 0-1.36-1.4 3.57 3.57 0 0 0-1.86-.5c-.68 0-1.3.16-1.86.48s-1.007.787-1.34 1.4-.5 1.333-.5 2.16c0 .84.166 1.573.5 2.2.333.613.78 1.087 1.34 1.42.56.32 1.18.48 1.86.48s1.3-.16 1.86-.48c.573-.333 1.026-.807 1.36-1.42.333-.627.5-1.353.5-2.18zm14.635-5.46V163h-1.82v-1.62c-.346.56-.833 1-1.46 1.32-.613.307-1.293.46-2.04.46-.853 0-1.62-.173-2.3-.52-.68-.36-1.22-.893-1.62-1.6-.386-.707-.58-1.567-.58-2.58v-6.42h1.8v6.18c0 1.08.274 1.913.82 2.5.547.573 1.294.86 2.24.86.974 0 1.74-.3 2.3-.9s.84-1.473.84-2.62v-6.02h1.82zm6.953 11.14c-.84 0-1.593-.14-2.26-.42-.666-.293-1.193-.693-1.58-1.2-.386-.52-.6-1.113-.64-1.78h1.88c.054.547.307.993.76 1.34.467.347 1.074.52 1.82.52.694 0 1.24-.153 1.64-.46s.6-.693.6-1.16a1.12 1.12 0 0 0-.64-1.06c-.426-.24-1.086-.473-1.98-.7-.813-.213-1.48-.427-2-.64a3.81 3.81 0 0 1-1.32-.98c-.36-.44-.54-1.013-.54-1.72 0-.56.167-1.073.5-1.54s.807-.833 1.42-1.1c.614-.28 1.314-.42 2.1-.42 1.214 0 2.194.307 2.94.92s1.147 1.453 1.2 2.52h-1.82c-.04-.573-.273-1.033-.7-1.38-.413-.347-.973-.52-1.68-.52-.653 0-1.173.14-1.56.42s-.58.647-.58 1.1c0 .36.114.66.34.9.24.227.534.413.88.56a19.33 19.33 0 0 0 1.48.46c.787.213 1.427.427 1.92.64.494.2.914.507 1.26.92.36.413.547.953.56 1.62 0 .6-.166 1.14-.5 1.62s-.806.86-1.42 1.14c-.6.267-1.293.4-2.08.4zm8.79-9.64V160c0 .533.113.913.34 1.14.226.213.62.32 1.18.32h1.34V163h-1.64c-1.014 0-1.774-.233-2.28-.7s-.76-1.233-.76-2.3v-6.46h-1.42v-1.5h1.42v-2.76h1.82v2.76h2.86v1.5h-2.86zm6.885.28c.32-.627.773-1.113 1.36-1.46.6-.347 1.326-.52 2.18-.52v1.88h-.48c-2.04 0-3.06 1.107-3.06 3.32V163h-1.82v-10.96h1.82v1.78zm15.081-1.78l-6.6 16.12h-1.88l2.16-5.28-4.42-10.84h2.02l3.44 8.88 3.4-8.88h1.88zm2.409 11.08c-.346 0-.64-.12-.88-.36s-.36-.533-.36-.88.12-.64.36-.88.534-.36.88-.36c.334 0 .614.12.84.36.24.24.36.533.36.88s-.12.64-.36.88c-.226.24-.506.36-.84.36zM79.06 172.06L75.02 186h-2.04l-3.24-11.22L66.38 186l-2.02.02-3.9-13.96h1.94l3.04 11.82 3.36-11.82h2.04l3.2 11.78 3.06-11.78h1.96zm11.992 8.04a10.71 10.71 0 0 1-.06 1.1h-8.76c.067 1.08.433 1.927 1.1 2.54.68.6 1.5.9 2.46.9.787 0 1.44-.18 1.96-.54.533-.373.907-.867 1.12-1.48h1.96a4.76 4.76 0 0 1-1.76 2.58c-.88.653-1.973.98-3.28.98-1.04 0-1.973-.233-2.8-.7-.813-.467-1.453-1.127-1.92-1.98-.467-.867-.7-1.867-.7-3s.227-2.127.68-2.98 1.087-1.507 1.9-1.96c.827-.467 1.773-.7 2.84-.7 1.04 0 1.96.227 2.76.68a4.62 4.62 0 0 1 1.84 1.88c.44.787.66 1.68.66 2.68zm-1.88-.38c0-.693-.153-1.287-.46-1.78a2.89 2.89 0 0 0-1.26-1.14c-.52-.267-1.1-.4-1.74-.4-.92 0-1.707.293-2.36.88-.64.587-1.007 1.4-1.1 2.44h6.92zm8.934.76c0-1.12.227-2.1.68-2.94.453-.853 1.073-1.513 1.86-1.98a5.18 5.18 0 0 1 2.66-.7c.96 0 1.793.207 2.5.62s1.233.933 1.58 1.56v-2h1.84V186h-1.84v-2.04c-.36.64-.9 1.173-1.62 1.6-.707.413-1.533.62-2.48.62-.973 0-1.853-.24-2.64-.72s-1.407-1.153-1.86-2.02-.68-1.853-.68-2.96zm9.28.02c0-.827-.167-1.547-.5-2.16s-.787-1.08-1.36-1.4a3.57 3.57 0 0 0-1.86-.5c-.68 0-1.3.16-1.86.48s-1.007.787-1.34 1.4-.5 1.333-.5 2.16c0 .84.167 1.573.5 2.2.333.613.78 1.087 1.34 1.42.56.32 1.18.48 1.86.48s1.3-.16 1.86-.48a3.58 3.58 0 0 0 1.36-1.42c.333-.627.5-1.353.5-2.18zm4.236 0c0-1.133.226-2.12.68-2.96.453-.853 1.08-1.513 1.88-1.98.813-.467 1.74-.7 2.78-.7 1.346 0 2.453.327 3.32.98.88.653 1.46 1.56 1.74 2.72h-1.96c-.187-.667-.554-1.193-1.1-1.58-.534-.387-1.2-.58-2-.58-1.04 0-1.88.36-2.52 1.08-.64.707-.96 1.713-.96 3.02 0 1.32.32 2.34.96 3.06s1.48 1.08 2.52 1.08c.8 0 1.466-.187 2-.56s.9-.907 1.1-1.6h1.96c-.294 1.12-.88 2.02-1.76 2.7-.88.667-1.98 1-3.3 1-1.04 0-1.967-.233-2.78-.7-.8-.467-1.427-1.127-1.88-1.98s-.68-1.853-.68-3zm18.268-5.66c.827 0 1.573.18 2.24.54.667.347 1.187.873 1.56 1.58.387.707.58 1.567.58 2.58V186h-1.8v-6.2c0-1.093-.273-1.927-.82-2.5-.547-.587-1.293-.88-2.24-.88-.96 0-1.727.3-2.3.9-.56.6-.84 1.473-.84 2.62V186h-1.82v-14.8h1.82v5.4a3.6 3.6 0 0 1 1.48-1.3c.64-.307 1.353-.46 2.14-.46zm8.293-1.58c-.347 0-.64-.12-.88-.36s-.36-.533-.36-.88.12-.64.36-.88.533-.36.88-.36a1.11 1.11 0 0 1 .84.36c.24.24.36.533.36.88s-.12.64-.36.88a1.11 1.11 0 0 1-.84.36zm.88 1.78V186h-1.82v-10.96h1.82zm13.102 5.06a10.71 10.71 0 0 1-.06 1.1h-8.76c.067 1.08.433 1.927 1.1 2.54.68.6 1.5.9 2.46.9.787 0 1.44-.18 1.96-.54.533-.373.907-.867 1.12-1.48h1.96a4.76 4.76 0 0 1-1.76 2.58c-.88.653-1.973.98-3.28.98-1.04 0-1.973-.233-2.8-.7a5 5 0 0 1-1.92-1.98c-.467-.867-.7-1.867-.7-3s.227-2.127.68-2.98 1.087-1.507 1.9-1.96c.827-.467 1.773-.7 2.84-.7 1.04 0 1.96.227 2.76.68s1.413 1.08 1.84 1.88c.44.787.66 1.68.66 2.68zm-1.88-.38c0-.693-.153-1.287-.46-1.78-.307-.507-.727-.887-1.26-1.14-.52-.267-1.1-.4-1.74-.4-.92 0-1.707.293-2.36.88-.64.587-1.007 1.4-1.1 2.44h6.92zm8.362 4.6l3.4-9.28h1.94l-4.3 10.96h-2.12l-4.3-10.96h1.96l3.42 9.28zm17.131-4.22a10.71 10.71 0 0 1-.06 1.1h-8.76c.067 1.08.434 1.927 1.1 2.54.68.6 1.5.9 2.46.9.787 0 1.44-.18 1.96-.54a2.94 2.94 0 0 0 1.12-1.48h1.96a4.76 4.76 0 0 1-1.76 2.58c-.88.653-1.973.98-3.28.98-1.04 0-1.973-.233-2.8-.7a5 5 0 0 1-1.92-1.98c-.466-.867-.7-1.867-.7-3s.227-2.127.68-2.98 1.087-1.507 1.9-1.96c.827-.467 1.774-.7 2.84-.7 1.04 0 1.96.227 2.76.68s1.414 1.08 1.84 1.88c.44.787.66 1.68.66 2.68zm-1.88-.38c0-.693-.153-1.287-.46-1.78-.306-.507-.726-.887-1.26-1.14-.52-.267-1.1-.4-1.74-.4-.92 0-1.706.293-2.36.88-.64.587-1.006 1.4-1.1 2.44h6.92zm11.835-3.18V183c0 .533.113.913.34 1.14.226.213.62.32 1.18.32h1.34V186h-1.64c-1.014 0-1.774-.233-2.28-.7s-.76-1.233-.76-2.3v-6.46h-1.42v-1.5h1.42v-2.76h1.82v2.76h2.86v1.5h-2.86zm10.505-1.7a4.64 4.64 0 0 1 2.24.54c.666.347 1.186.873 1.56 1.58.386.707.58 1.567.58 2.58V186h-1.8v-6.2c0-1.093-.274-1.927-.82-2.5-.547-.587-1.294-.88-2.24-.88-.96 0-1.727.3-2.3.9-.56.6-.84 1.473-.84 2.62V186h-1.82v-14.8h1.82v5.4a3.6 3.6 0 0 1 1.48-1.3c.64-.307 1.353-.46 2.14-.46zm8.293-1.58c-.347 0-.64-.12-.88-.36s-.36-.533-.36-.88.12-.64.36-.88.533-.36.88-.36a1.11 1.11 0 0 1 .84.36c.24.24.36.533.36.88s-.12.64-.36.88a1.11 1.11 0 0 1-.84.36zm.88 1.78V186h-1.82v-10.96h1.82zm6.982 11.14c-.84 0-1.594-.14-2.26-.42-.667-.293-1.194-.693-1.58-1.2a3.24 3.24 0 0 1-.64-1.78h1.88a1.85 1.85 0 0 0 .76 1.34c.466.347 1.073.52 1.82.52.693 0 1.24-.153 1.64-.46s.6-.693.6-1.16a1.12 1.12 0 0 0-.64-1.06c-.427-.24-1.087-.473-1.98-.7-.814-.213-1.48-.427-2-.64a3.79 3.79 0 0 1-1.32-.98c-.36-.44-.54-1.013-.54-1.72 0-.56.166-1.073.5-1.54s.806-.833 1.42-1.1c.613-.28 1.313-.42 2.1-.42 1.213 0 2.193.307 2.94.92s1.146 1.453 1.2 2.52h-1.82a1.87 1.87 0 0 0-.7-1.38c-.414-.347-.974-.52-1.68-.52-.654 0-1.174.14-1.56.42s-.58.647-.58 1.1c0 .36.113.66.34.9.24.227.533.413.88.56.36.133.853.287 1.48.46.786.213 1.426.427 1.92.64a3.19 3.19 0 0 1 1.26.92c.36.413.546.953.56 1.62 0 .6-.167 1.14-.5 1.62s-.807.86-1.42 1.14c-.6.267-1.294.4-2.08.4zm13.721-9.1c.373-.653.92-1.187 1.64-1.6s1.54-.62 2.46-.62c.987 0 1.873.233 2.66.7s1.407 1.127 1.86 1.98c.453.84.68 1.82.68 2.94 0 1.107-.227 2.093-.68 2.96s-1.08 1.54-1.88 2.02c-.787.48-1.667.72-2.64.72-.947 0-1.78-.207-2.5-.62-.707-.413-1.24-.94-1.6-1.58V186h-1.82v-14.8h1.82v5.88zm7.44 3.4c0-.827-.167-1.547-.5-2.16s-.787-1.08-1.36-1.4c-.56-.32-1.18-.48-1.86-.48a3.64 3.64 0 0 0-1.86.5c-.56.32-1.013.793-1.36 1.42-.333.613-.5 1.327-.5 2.14 0 .827.167 1.553.5 2.18.347.613.8 1.087 1.36 1.42a3.75 3.75 0 0 0 1.86.48c.68 0 1.3-.16 1.86-.48a3.58 3.58 0 0 0 1.36-1.42c.333-.627.5-1.36.5-2.2zm13.696-5.44l-6.6 16.12h-1.88l2.16-5.28-4.42-10.84h2.02l3.44 8.88 3.4-8.88h1.88zm11.941 11.14c-1.027 0-1.96-.233-2.8-.7a5.09 5.09 0 0 1-1.96-1.98c-.467-.867-.7-1.867-.7-3 0-1.12.24-2.107.72-2.96.493-.867 1.16-1.527 2-1.98.84-.467 1.78-.7 2.82-.7s1.98.233 2.82.7c.84.453 1.5 1.107 1.98 1.96.493.853.74 1.847.74 2.98s-.253 2.133-.76 3c-.493.853-1.167 1.513-2.02 1.98s-1.8.7-2.84.7zm0-1.6a3.84 3.84 0 0 0 1.84-.46c.573-.307 1.033-.767 1.38-1.38.36-.613.54-1.36.54-2.24s-.173-1.627-.52-2.24-.8-1.067-1.36-1.36c-.56-.307-1.167-.46-1.82-.46-.667 0-1.28.153-1.84.46-.547.293-.987.747-1.32 1.36s-.5 1.36-.5 2.24c0 .893.16 1.647.48 2.26.333.613.773 1.073 1.32 1.38.547.293 1.147.44 1.8.44zm12.473-8.04h-2.3V186h-1.82v-9.46h-1.42v-1.5h1.42v-.78c0-1.227.313-2.12.94-2.68.64-.573 1.66-.86 3.06-.86v1.52c-.8 0-1.367.16-1.7.48-.32.307-.48.82-.48 1.54v.78h2.3v1.5zm6.582 0h-2.3V186h-1.82v-9.46h-1.42v-1.5h1.42v-.78c0-1.227.313-2.12.94-2.68.64-.573 1.66-.86 3.06-.86v1.52c-.8 0-1.367.16-1.7.48-.32.307-.48.82-.48 1.54v.78h2.3v1.5zm12.122 3.56a10.71 10.71 0 0 1-.06 1.1h-8.76c.067 1.08.433 1.927 1.1 2.54.68.6 1.5.9 2.46.9.787 0 1.44-.18 1.96-.54.533-.373.907-.867 1.12-1.48h1.96a4.76 4.76 0 0 1-1.76 2.58c-.88.653-1.973.98-3.28.98-1.04 0-1.973-.233-2.8-.7a5 5 0 0 1-1.92-1.98c-.467-.867-.7-1.867-.7-3s.227-2.127.68-2.98 1.087-1.507 1.9-1.96c.827-.467 1.773-.7 2.84-.7 1.04 0 1.96.227 2.76.68s1.413 1.08 1.84 1.88c.44.787.66 1.68.66 2.68zm-1.88-.38c0-.693-.153-1.287-.46-1.78-.307-.507-.727-.887-1.26-1.14-.52-.267-1.1-.4-1.74-.4-.92 0-1.707.293-2.36.88-.64.587-1.007 1.4-1.1 2.44h6.92zm6.102-2.9c.32-.627.774-1.113 1.36-1.46.6-.347 1.327-.52 2.18-.52v1.88h-.48c-2.04 0-3.06 1.107-3.06 3.32V186h-1.82v-10.96h1.82v1.78zm6.581-3.56c-.346 0-.64-.12-.88-.36s-.36-.533-.36-.88.12-.64.36-.88.534-.36.88-.36c.334 0 .614.12.84.36.24.24.36.533.36.88s-.12.64-.36.88c-.226.24-.506.36-.84.36zm.88 1.78V186h-1.82v-10.96h1.82zm8.442-.2c1.334 0 2.414.407 3.24 1.22.827.8 1.24 1.96 1.24 3.48V186h-1.8v-6.2c0-1.093-.273-1.927-.82-2.5-.546-.587-1.293-.88-2.24-.88-.96 0-1.726.3-2.3.9-.56.6-.84 1.473-.84 2.62V186h-1.82v-10.96h1.82v1.56c.36-.56.847-.993 1.46-1.3.627-.307 1.314-.46 2.06-.46zm11.973.02c.947 0 1.774.207 2.48.62.72.413 1.254.933 1.6 1.56v-2h1.84v11.2c0 1-.213 1.887-.64 2.66-.426.787-1.04 1.4-1.84 1.84-.786.44-1.706.66-2.76.66-1.44 0-2.64-.34-3.6-1.02s-1.526-1.607-1.7-2.78h1.8c.2.667.614 1.2 1.24 1.6.627.413 1.38.62 2.26.62 1 0 1.814-.313 2.44-.94.64-.627.96-1.507.96-2.64v-2.3c-.36.64-.893 1.173-1.6 1.6s-1.533.64-2.48.64c-.973 0-1.86-.24-2.66-.72-.786-.48-1.406-1.153-1.86-2.02s-.68-1.853-.68-2.96c0-1.12.227-2.1.68-2.94.454-.853 1.074-1.513 1.86-1.98a5.18 5.18 0 0 1 2.66-.7zm4.08 5.64c0-.827-.166-1.547-.5-2.16s-.786-1.08-1.36-1.4a3.57 3.57 0 0 0-1.86-.5c-.68 0-1.3.16-1.86.48s-1.006.787-1.34 1.4-.5 1.333-.5 2.16c0 .84.167 1.573.5 2.2.334.613.78 1.087 1.34 1.42.56.32 1.18.48 1.86.48s1.3-.16 1.86-.48c.574-.333 1.027-.807 1.36-1.42.334-.627.5-1.353.5-2.18zM63.76 199.54V206c0 .533.113.913.34 1.14.227.213.62.32 1.18.32h1.34V209h-1.64c-1.013 0-1.773-.233-2.28-.7s-.76-1.233-.76-2.3v-6.46h-1.42v-1.5h1.42v-2.76h1.82v2.76h2.86v1.5h-2.86zm4.385 3.94c0-1.12.227-2.1.68-2.94.453-.853 1.073-1.513 1.86-1.98.8-.467 1.687-.7 2.66-.7.96 0 1.793.207 2.5.62s1.233.933 1.58 1.56v-2h1.84V209h-1.84v-2.04c-.36.64-.9 1.173-1.62 1.6-.707.413-1.533.62-2.48.62-.973 0-1.853-.24-2.64-.72s-1.407-1.153-1.86-2.02-.68-1.853-.68-2.96zm9.28.02c0-.827-.167-1.547-.5-2.16s-.787-1.08-1.36-1.4a3.57 3.57 0 0 0-1.86-.5c-.68 0-1.3.16-1.86.48s-1.007.787-1.34 1.4-.5 1.333-.5 2.16c0 .84.167 1.573.5 2.2.333.613.78 1.087 1.34 1.42.56.32 1.18.48 1.86.48s1.3-.16 1.86-.48a3.58 3.58 0 0 0 1.36-1.42c.333-.627.5-1.353.5-2.18zm5.856-7.24c-.347 0-.64-.12-.88-.36s-.36-.533-.36-.88.12-.64.36-.88.533-.36.88-.36a1.11 1.11 0 0 1 .84.36c.24.24.36.533.36.88s-.12.64-.36.88a1.11 1.11 0 0 1-.84.36zm.88 1.78V209h-1.82v-10.96h1.82zm4.922-3.84V209h-1.82v-14.8h1.82zm7.882 14.98c-1.027 0-1.96-.233-2.8-.7-.827-.467-1.48-1.127-1.96-1.98-.467-.867-.7-1.867-.7-3 0-1.12.24-2.107.72-2.96.493-.867 1.16-1.527 2-1.98.84-.467 1.78-.7 2.82-.7s1.98.233 2.82.7a4.91 4.91 0 0 1 1.98 1.96c.493.853.74 1.847.74 2.98s-.254 2.133-.76 3c-.494.853-1.167 1.513-2.02 1.98s-1.8.7-2.84.7zm0-1.6a3.84 3.84 0 0 0 1.84-.46c.573-.307 1.033-.767 1.38-1.38.36-.613.54-1.36.54-2.24s-.174-1.627-.52-2.24-.8-1.067-1.361-1.36c-.56-.307-1.167-.46-1.82-.46-.667 0-1.28.153-1.84.46-.547.293-.987.747-1.32 1.36s-.5 1.36-.5 2.24c0 .893.16 1.647.48 2.26.333.613.773 1.073 1.32 1.38a3.75 3.75 0 0 0 1.8.44zm9.834-7.76c.32-.627.773-1.113 1.36-1.46.6-.347 1.326-.52 2.18-.52v1.88h-.48c-2.04 0-3.06 1.107-3.06 3.32V209h-1.82v-10.96h1.82v1.78zm15.64 3.28a10.71 10.71 0 0 1-.06 1.1h-8.76c.067 1.08.434 1.927 1.1 2.54.68.6 1.5.9 2.46.9.787 0 1.44-.18 1.96-.54a2.94 2.94 0 0 0 1.12-1.48h1.96a4.76 4.76 0 0 1-1.76 2.58c-.88.653-1.973.98-3.28.98-1.04 0-1.973-.233-2.8-.7a5 5 0 0 1-1.92-1.98c-.466-.867-.7-1.867-.7-3s.227-2.127.68-2.98 1.087-1.507 1.9-1.96c.827-.467 1.774-.7 2.84-.7 1.04 0 1.96.227 2.76.68s1.414 1.08 1.84 1.88c.44.787.66 1.68.66 2.68zm-1.88-.38c0-.693-.153-1.287-.46-1.78-.306-.507-.726-.887-1.26-1.14-.52-.267-1.1-.4-1.74-.4-.92 0-1.706.293-2.36.88-.64.587-1.006 1.4-1.1 2.44h6.92zm3.603.76c0-1.12.226-2.1.68-2.94.453-.853 1.073-1.513 1.86-1.98.8-.467 1.693-.7 2.68-.7.853 0 1.646.2 2.38.6.733.387 1.293.9 1.68 1.54v-5.8h1.84V209h-1.84v-2.06c-.36.653-.894 1.193-1.6 1.62-.707.413-1.534.62-2.48.62a5.07 5.07 0 0 1-2.66-.72c-.787-.48-1.407-1.153-1.86-2.02s-.68-1.853-.68-2.96zm9.28.02c0-.827-.167-1.547-.5-2.16a3.45 3.45 0 0 0-1.36-1.4 3.57 3.57 0 0 0-1.86-.5c-.68 0-1.3.16-1.86.48s-1.007.787-1.34 1.4-.5 1.333-.5 2.16c0 .84.166 1.573.5 2.2.333.613.78 1.087 1.34 1.42.56.32 1.18.48 1.86.48s1.3-.16 1.86-.48c.573-.333 1.026-.807 1.36-1.42.333-.627.5-1.353.5-2.18zm6.795 2.98l-2.24 5.38h-1.22l1.46-5.38h2zm6.737-2.98c0-1.133.227-2.12.68-2.96.454-.853 1.08-1.513 1.88-1.98.814-.467 1.74-.7 2.78-.7 1.347 0 2.454.327 3.32.98.88.653 1.46 1.56 1.74 2.72h-1.96c-.186-.667-.553-1.193-1.1-1.58-.533-.387-1.2-.58-2-.58-1.04 0-1.88.36-2.52 1.08-.64.707-.96 1.713-.96 3.02 0 1.32.32 2.34.96 3.06s1.48 1.08 2.52 1.08c.8 0 1.467-.187 2-.56s.9-.907 1.1-1.6h1.96c-.293 1.12-.88 2.02-1.76 2.7-.88.667-1.98 1-3.3 1-1.04 0-1.966-.233-2.78-.7-.8-.467-1.426-1.127-1.88-1.98s-.68-1.853-.68-3zm14.649-3.68c.32-.627.773-1.113 1.36-1.46.6-.347 1.326-.52 2.18-.52v1.88h-.48c-2.04 0-3.06 1.107-3.06 3.32V209h-1.82v-10.96h1.82v1.78zm15.641 3.28a10.71 10.71 0 0 1-.06 1.1h-8.76c.066 1.08.433 1.927 1.1 2.54.68.6 1.5.9 2.46.9.786 0 1.44-.18 1.96-.54a2.95 2.95 0 0 0 1.12-1.48h1.96c-.294 1.053-.88 1.913-1.76 2.58-.88.653-1.974.98-3.28.98-1.04 0-1.974-.233-2.8-.7-.814-.467-1.454-1.127-1.92-1.98-.467-.867-.7-1.867-.7-3s.226-2.127.68-2.98a4.72 4.72 0 0 1 1.9-1.96c.826-.467 1.773-.7 2.84-.7 1.04 0 1.96.227 2.76.68s1.413 1.08 1.84 1.88c.44.787.66 1.68.66 2.68zm-1.88-.38c0-.693-.154-1.287-.46-1.78-.307-.507-.727-.887-1.26-1.14-.52-.267-1.1-.4-1.74-.4-.92 0-1.707.293-2.36.88-.64.587-1.007 1.4-1.1 2.44h6.92zm3.602.76c0-1.12.227-2.1.68-2.94.453-.853 1.073-1.513 1.86-1.98a5.18 5.18 0 0 1 2.66-.7c.96 0 1.793.207 2.5.62s1.233.933 1.58 1.56v-2h1.84V209h-1.84v-2.04c-.36.64-.9 1.173-1.62 1.6-.707.413-1.533.62-2.48.62-.973 0-1.853-.24-2.64-.72s-1.407-1.153-1.86-2.02-.68-1.853-.68-2.96zm9.28.02c0-.827-.167-1.547-.5-2.16s-.787-1.08-1.36-1.4a3.57 3.57 0 0 0-1.86-.5c-.68 0-1.3.16-1.86.48s-1.007.787-1.34 1.4-.5 1.333-.5 2.16c0 .84.167 1.573.5 2.2.333.613.78 1.087 1.34 1.42.56.32 1.18.48 1.86.48s1.3-.16 1.86-.48a3.58 3.58 0 0 0 1.36-1.42c.333-.627.5-1.353.5-2.18zm7.136-3.96V206c0 .533.113.913.34 1.14.226.213.62.32 1.18.32h1.34V209h-1.64c-1.014 0-1.774-.233-2.28-.7s-.76-1.233-.76-2.3v-6.46h-1.42v-1.5h1.42v-2.76h1.82v2.76h2.86v1.5h-2.86zm6.005-3.28c-.347 0-.64-.12-.88-.36s-.36-.533-.36-.88.12-.64.36-.88.533-.36.88-.36a1.11 1.11 0 0 1 .84.36c.24.24.36.533.36.88s-.12.64-.36.88a1.11 1.11 0 0 1-.84.36zm.88 1.78V209h-1.82v-10.96h1.82zm7.182 9.28l3.4-9.28h1.94l-4.3 10.96h-2.12l-4.3-10.96h1.96l3.42 9.28zm17.131-4.22a10.71 10.71 0 0 1-.06 1.1h-8.76c.066 1.08.433 1.927 1.1 2.54.68.6 1.5.9 2.46.9.786 0 1.44-.18 1.96-.54a2.95 2.95 0 0 0 1.12-1.48h1.96c-.294 1.053-.88 1.913-1.76 2.58-.88.653-1.974.98-3.28.98-1.04 0-1.974-.233-2.8-.7-.814-.467-1.454-1.127-1.92-1.98-.467-.867-.7-1.867-.7-3s.226-2.127.68-2.98a4.72 4.72 0 0 1 1.9-1.96c.826-.467 1.773-.7 2.84-.7 1.04 0 1.96.227 2.76.68s1.413 1.08 1.84 1.88c.44.787.66 1.68.66 2.68zm-1.88-.38c0-.693-.154-1.287-.46-1.78-.307-.507-.727-.887-1.26-1.14-.52-.267-1.1-.4-1.74-.4-.92 0-1.707.293-2.36.88-.64.587-1.007 1.4-1.1 2.44h6.92zm8.934.76c0-1.12.227-2.1.68-2.94.453-.853 1.073-1.513 1.86-1.98a5.18 5.18 0 0 1 2.66-.7c.96 0 1.793.207 2.5.62s1.233.933 1.58 1.56v-2h1.84V209h-1.84v-2.04c-.36.64-.9 1.173-1.62 1.6-.707.413-1.533.62-2.48.62-.973 0-1.853-.24-2.64-.72s-1.407-1.153-1.86-2.02-.68-1.853-.68-2.96zm9.28.02c0-.827-.167-1.547-.5-2.16s-.787-1.08-1.36-1.4a3.57 3.57 0 0 0-1.86-.5c-.68 0-1.3.16-1.86.48s-1.007.787-1.34 1.4-.5 1.333-.5 2.16c0 .84.167 1.573.5 2.2.333.613.78 1.087 1.34 1.42.56.32 1.18.48 1.86.48s1.3-.16 1.86-.48a3.58 3.58 0 0 0 1.36-1.42c.333-.627.5-1.353.5-2.18zm10.256-5.66c1.333 0 2.413.407 3.24 1.22.826.8 1.24 1.96 1.24 3.48V209h-1.8v-6.2c0-1.093-.274-1.927-.82-2.5-.547-.587-1.294-.88-2.24-.88-.96 0-1.727.3-2.3.9-.56.6-.84 1.473-.84 2.62V209h-1.82v-10.96h1.82v1.56c.36-.56.846-.993 1.46-1.3.626-.307 1.313-.46 2.06-.46zm6.773 5.64c0-1.12.226-2.1.68-2.94.453-.853 1.073-1.513 1.86-1.98.8-.467 1.693-.7 2.68-.7.853 0 1.646.2 2.38.6.733.387 1.293.9 1.68 1.54v-5.8h1.84V209h-1.84v-2.06c-.36.653-.894 1.193-1.6 1.62-.707.413-1.534.62-2.48.62a5.07 5.07 0 0 1-2.66-.72c-.787-.48-1.407-1.153-1.86-2.02s-.68-1.853-.68-2.96zm9.28.02c0-.827-.167-1.547-.5-2.16a3.45 3.45 0 0 0-1.36-1.4 3.57 3.57 0 0 0-1.86-.5c-.68 0-1.3.16-1.86.48s-1.007.787-1.34 1.4-.5 1.333-.5 2.16c0 .84.166 1.573.5 2.2.333.613.78 1.087 1.34 1.42.56.32 1.18.48 1.86.48s1.3-.16 1.86-.48c.573-.333 1.026-.807 1.36-1.42.333-.627.5-1.353.5-2.18zm23.427-5.66c.854 0 1.614.18 2.28.54.667.347 1.194.873 1.58 1.58s.58 1.567.58 2.58V209h-1.8v-6.2c0-1.093-.273-1.927-.82-2.5-.533-.587-1.26-.88-2.18-.88-.946 0-1.7.307-2.26.92-.56.6-.84 1.473-.84 2.62V209h-1.8v-6.2c0-1.093-.273-1.927-.82-2.5-.533-.587-1.26-.88-2.18-.88-.946 0-1.7.307-2.26.92-.56.6-.84 1.473-.84 2.62V209h-1.82v-10.96h1.82v1.58c.36-.573.84-1.013 1.44-1.32.614-.307 1.287-.46 2.02-.46.92 0 1.734.207 2.44.62s1.234 1.02 1.58 1.82a3.6 3.6 0 0 1 1.52-1.8c.707-.427 1.494-.64 2.36-.64zm6.746 5.64c0-1.12.226-2.1.68-2.94.453-.853 1.073-1.513 1.86-1.98.8-.467 1.686-.7 2.66-.7.96 0 1.793.207 2.5.62s1.233.933 1.58 1.56v-2h1.84V209h-1.84v-2.04c-.36.64-.9 1.173-1.62 1.6-.707.413-1.534.62-2.48.62-.974 0-1.854-.24-2.64-.72s-1.407-1.153-1.86-2.02-.68-1.853-.68-2.96zm9.28.02c0-.827-.167-1.547-.5-2.16a3.45 3.45 0 0 0-1.36-1.4 3.57 3.57 0 0 0-1.86-.5c-.68 0-1.3.16-1.86.48s-1.007.787-1.34 1.4-.5 1.333-.5 2.16c0 .84.166 1.573.5 2.2.333.613.78 1.087 1.34 1.42.56.32 1.18.48 1.86.48s1.3-.16 1.86-.48c.573-.333 1.026-.807 1.36-1.42.333-.627.5-1.353.5-2.18zm10.255-5.66c1.334 0 2.414.407 3.24 1.22.827.8 1.24 1.96 1.24 3.48V209h-1.8v-6.2c0-1.093-.273-1.927-.82-2.5-.546-.587-1.293-.88-2.24-.88-.96 0-1.726.3-2.3.9-.56.6-.84 1.473-.84 2.62V209h-1.82v-10.96h1.82v1.56c.36-.56.847-.993 1.46-1.3.627-.307 1.314-.46 2.06-.46zm6.773 5.64c0-1.12.227-2.1.68-2.94.454-.853 1.074-1.513 1.86-1.98a5.18 5.18 0 0 1 2.66-.7c.96 0 1.794.207 2.5.62s1.234.933 1.58 1.56v-2h1.84V209h-1.84v-2.04c-.36.64-.9 1.173-1.62 1.6-.706.413-1.533.62-2.48.62-.973 0-1.853-.24-2.64-.72s-1.406-1.153-1.86-2.02-.68-1.853-.68-2.96zm9.28.02c0-.827-.166-1.547-.5-2.16s-.786-1.08-1.36-1.4a3.57 3.57 0 0 0-1.86-.5c-.68 0-1.3.16-1.86.48s-1.006.787-1.34 1.4-.5 1.333-.5 2.16c0 .84.167 1.573.5 2.2.334.613.78 1.087 1.34 1.42.56.32 1.18.48 1.86.48s1.3-.16 1.86-.48c.574-.333 1.027-.807 1.36-1.42.334-.627.5-1.353.5-2.18zm9.436-5.64c.947 0 1.773.207 2.48.62.72.413 1.253.933 1.6 1.56v-2h1.84v11.2c0 1-.213 1.887-.64 2.66-.427.787-1.04 1.4-1.84 1.84-.787.44-1.707.66-2.76.66-1.44 0-2.64-.34-3.6-1.02s-1.527-1.607-1.7-2.78h1.8c.2.667.613 1.2 1.24 1.6.627.413 1.38.62 2.26.62 1 0 1.813-.313 2.44-.94.64-.627.96-1.507.96-2.64v-2.3c-.36.64-.893 1.173-1.6 1.6s-1.533.64-2.48.64c-.973 0-1.86-.24-2.66-.72-.787-.48-1.407-1.153-1.86-2.02s-.68-1.853-.68-2.96c0-1.12.227-2.1.68-2.94.453-.853 1.073-1.513 1.86-1.98a5.18 5.18 0 0 1 2.66-.7zm4.08 5.64c0-.827-.167-1.547-.5-2.16s-.787-1.08-1.36-1.4a3.57 3.57 0 0 0-1.86-.5c-.68 0-1.3.16-1.86.48s-1.007.787-1.34 1.4-.5 1.333-.5 2.16c0 .84.167 1.573.5 2.2.333.613.78 1.087 1.34 1.42.56.32 1.18.48 1.86.48s1.3-.16 1.86-.48a3.58 3.58 0 0 0 1.36-1.42c.333-.627.5-1.353.5-2.18zm14.916-.4a10.71 10.71 0 0 1-.06 1.1h-8.76c.066 1.08.433 1.927 1.1 2.54.68.6 1.5.9 2.46.9.786 0 1.44-.18 1.96-.54a2.95 2.95 0 0 0 1.12-1.48h1.96c-.294 1.053-.88 1.913-1.76 2.58-.88.653-1.974.98-3.28.98-1.04 0-1.974-.233-2.8-.7-.814-.467-1.454-1.127-1.92-1.98-.467-.867-.7-1.867-.7-3s.226-2.127.68-2.98a4.72 4.72 0 0 1 1.9-1.96c.826-.467 1.773-.7 2.84-.7 1.04 0 1.96.227 2.76.68s1.413 1.08 1.84 1.88c.44.787.66 1.68.66 2.68zm-1.88-.38c0-.693-.154-1.287-.46-1.78-.307-.507-.727-.887-1.26-1.14-.52-.267-1.1-.4-1.74-.4-.92 0-1.707.293-2.36.88-.64.587-1.007 1.4-1.1 2.44h6.92zm3.602.76c0-1.12.227-2.1.68-2.94.453-.853 1.073-1.513 1.86-1.98a5.18 5.18 0 0 1 2.66-.7c.96 0 1.793.207 2.5.62s1.233.933 1.58 1.56v-2h1.84V209h-1.84v-2.04c-.36.64-.9 1.173-1.62 1.6-.707.413-1.533.62-2.48.62-.973 0-1.853-.24-2.64-.72s-1.407-1.153-1.86-2.02-.68-1.853-.68-2.96zm9.28.02c0-.827-.167-1.547-.5-2.16s-.787-1.08-1.36-1.4a3.57 3.57 0 0 0-1.86-.5c-.68 0-1.3.16-1.86.48s-1.007.787-1.34 1.4-.5 1.333-.5 2.16c0 .84.167 1.573.5 2.2.333.613.78 1.087 1.34 1.42.56.32 1.18.48 1.86.48s1.3-.16 1.86-.48a3.58 3.58 0 0 0 1.36-1.42c.333-.627.5-1.353.5-2.18zm6.736-3.42c.373-.653.92-1.187 1.639-1.6s1.541-.62 2.461-.62c.986 0 1.873.233 2.66.7s1.406 1.127 1.86 1.98c.453.84.68 1.82.68 2.94 0 1.107-.227 2.093-.68 2.96s-1.081 1.54-1.881 2.02c-.786.48-1.666.72-2.639.72-.947 0-1.78-.207-2.5-.62-.707-.413-1.24-.94-1.6-1.58V209h-1.82v-14.8h1.82v5.88zm7.44 3.4c0-.827-.167-1.547-.5-2.16a3.45 3.45 0 0 0-1.36-1.4c-.56-.32-1.18-.48-1.86-.48a3.64 3.64 0 0 0-1.86.5c-.56.32-1.014.793-1.36 1.42-.334.613-.5 1.327-.5 2.14 0 .827.166 1.553.5 2.18.346.613.8 1.087 1.36 1.42a3.75 3.75 0 0 0 1.86.48c.68 0 1.3-.16 1.86-.48.573-.333 1.026-.807 1.36-1.42.333-.627.5-1.36.5-2.2zm6.075-9.28V209h-1.82v-14.8h1.82zm13.102 8.9a10.71 10.71 0 0 1-.06 1.1h-8.76c.067 1.08.433 1.927 1.1 2.54.68.6 1.5.9 2.46.9.787 0 1.44-.18 1.96-.54.533-.373.907-.867 1.12-1.48h1.96a4.76 4.76 0 0 1-1.76 2.58c-.88.653-1.973.98-3.28.98-1.04 0-1.973-.233-2.8-.7a5 5 0 0 1-1.92-1.98c-.467-.867-.7-1.867-.7-3s.227-2.127.68-2.98 1.087-1.507 1.9-1.96c.827-.467 1.773-.7 2.84-.7 1.04 0 1.96.227 2.76.68s1.413 1.08 1.84 1.88c.44.787.66 1.68.66 2.68zm-1.88-.38c0-.693-.153-1.287-.46-1.78-.307-.507-.727-.887-1.26-1.14-.52-.267-1.1-.4-1.74-.4-.92 0-1.707.293-2.36.88-.64.587-1.007 1.4-1.1 2.44h6.92zM71.54 226.1a10.71 10.71 0 0 1-.06 1.1h-8.76c.067 1.08.433 1.927 1.1 2.54.68.6 1.5.9 2.46.9.787 0 1.44-.18 1.96-.54.533-.373.907-.867 1.12-1.48h1.96a4.76 4.76 0 0 1-1.76 2.58c-.88.653-1.973.98-3.28.98-1.04 0-1.973-.233-2.8-.7-.813-.467-1.453-1.127-1.92-1.98-.467-.867-.7-1.867-.7-3s.227-2.127.68-2.98 1.087-1.507 1.9-1.96c.827-.467 1.773-.7 2.84-.7 1.04 0 1.96.227 2.76.68s1.413 1.08 1.84 1.88c.44.787.66 1.68.66 2.68zm-1.88-.38c0-.693-.153-1.287-.46-1.78a2.89 2.89 0 0 0-1.26-1.14c-.52-.267-1.1-.4-1.74-.4-.92 0-1.707.293-2.36.88-.64.587-1.007 1.4-1.1 2.44h6.92zm11.882-1.82v1.54h-7.98v-1.54h7.98zm5.236-6.7V232h-1.82v-14.8h1.82zm13.102 8.9a10.71 10.71 0 0 1-.06 1.1h-8.76c.067 1.08.433 1.927 1.1 2.54.68.6 1.5.9 2.46.9.787 0 1.44-.18 1.96-.54.533-.373.907-.867 1.12-1.48h1.96a4.76 4.76 0 0 1-1.76 2.58c-.88.653-1.973.98-3.28.98-1.04 0-1.973-.233-2.8-.7-.813-.467-1.453-1.127-1.92-1.98-.467-.867-.7-1.867-.7-3s.227-2.127.68-2.98 1.087-1.507 1.9-1.96c.827-.467 1.773-.7 2.84-.7 1.04 0 1.96.227 2.76.68a4.62 4.62 0 0 1 1.84 1.88c.44.787.66 1.68.66 2.68zm-1.88-.38c0-.693-.153-1.287-.46-1.78a2.89 2.89 0 0 0-1.26-1.14c-.52-.267-1.1-.4-1.74-.4-.92 0-1.707.293-2.36.88-.64.587-1.007 1.4-1.1 2.44H98zm3.602.76c0-1.12.227-2.1.68-2.94.454-.853 1.074-1.513 1.86-1.98a5.18 5.18 0 0 1 2.66-.7c.96 0 1.794.207 2.5.62s1.234.933 1.58 1.56v-2h1.84V232h-1.84v-2.04c-.36.64-.9 1.173-1.62 1.6-.706.413-1.533.62-2.48.62-.973 0-1.853-.24-2.64-.72s-1.406-1.153-1.86-2.02-.68-1.853-.68-2.96zm9.28.02c0-.827-.166-1.547-.5-2.16s-.786-1.08-1.36-1.4a3.57 3.57 0 0 0-1.86-.5c-.68 0-1.3.16-1.86.48s-1.006.787-1.34 1.4-.5 1.333-.5 2.16c0 .84.167 1.573.5 2.2.334.613.78 1.087 1.34 1.42.56.32 1.18.48 1.86.48s1.3-.16 1.86-.48c.574-.333 1.027-.807 1.36-1.42.334-.627.5-1.353.5-2.18zm6.736-3.68c.32-.627.773-1.113 1.36-1.46.6-.347 1.326-.52 2.18-.52v1.88h-.48c-2.04 0-3.06 1.107-3.06 3.32V232h-1.82v-10.96h1.82v1.78zm10.981-1.98c1.333 0 2.413.407 3.24 1.22.826.8 1.24 1.96 1.24 3.48V232h-1.8v-6.2c0-1.093-.274-1.927-.82-2.5-.547-.587-1.294-.88-2.24-.88-.96 0-1.727.3-2.3.9-.56.6-.84 1.473-.84 2.62V232h-1.82v-10.96h1.82v1.56c.36-.56.846-.993 1.46-1.3.626-.307 1.313-.46 2.06-.46zm8.393-1.58c-.347 0-.64-.12-.88-.36s-.36-.533-.36-.88.12-.64.36-.88.533-.36.88-.36a1.11 1.11 0 0 1 .84.36c.24.24.36.533.36.88s-.12.64-.36.88a1.11 1.11 0 0 1-.84.36zm.88 1.78V232h-1.82v-10.96h1.82zm8.442-.2c1.333 0 2.413.407 3.24 1.22.826.8 1.24 1.96 1.24 3.48V232h-1.8v-6.2c0-1.093-.274-1.927-.82-2.5-.547-.587-1.294-.88-2.24-.88-.96 0-1.727.3-2.3.9-.56.6-.84 1.473-.84 2.62V232h-1.82v-10.96h1.82v1.56c.36-.56.846-.993 1.46-1.3.626-.307 1.313-.46 2.06-.46zm11.973.02c.946 0 1.773.207 2.48.62.72.413 1.253.933 1.6 1.56v-2h1.84v11.2c0 1-.214 1.887-.64 2.66-.427.787-1.04 1.4-1.84 1.84-.787.44-1.707.66-2.76.66-1.44 0-2.64-.34-3.6-1.02s-1.527-1.607-1.7-2.78h1.8c.2.667.613 1.2 1.24 1.6.626.413 1.38.62 2.26.62 1 0 1.813-.313 2.44-.94.64-.627.96-1.507.96-2.64v-2.3c-.36.64-.894 1.173-1.6 1.6s-1.534.64-2.48.64a5.07 5.07 0 0 1-2.66-.72c-.787-.48-1.407-1.153-1.86-2.02s-.68-1.853-.68-2.96c0-1.12.226-2.1.68-2.94.453-.853 1.073-1.513 1.86-1.98.8-.467 1.686-.7 2.66-.7zm4.08 5.64c0-.827-.167-1.547-.5-2.16a3.45 3.45 0 0 0-1.36-1.4 3.57 3.57 0 0 0-1.86-.5c-.68 0-1.3.16-1.86.48s-1.007.787-1.34 1.4-.5 1.333-.5 2.16c0 .84.166 1.573.5 2.2.333.613.78 1.087 1.34 1.42.56.32 1.18.48 1.86.48s1.3-.16 1.86-.48c.573-.333 1.026-.807 1.36-1.42.333-.627.5-1.353.5-2.18zm15.027 5.68c-1.026 0-1.96-.233-2.8-.7-.826-.467-1.48-1.127-1.96-1.98-.466-.867-.7-1.867-.7-3 0-1.12.24-2.107.72-2.96a5.01 5.01 0 0 1 2-1.98c.84-.467 1.78-.7 2.82-.7s1.98.233 2.82.7c.84.453 1.5 1.107 1.98 1.96.494.853.74 1.847.74 2.98s-.253 2.133-.76 3c-.493.853-1.166 1.513-2.02 1.98s-1.8.7-2.84.7zm0-1.6c.654 0 1.267-.153 1.84-.46s1.034-.767 1.38-1.38c.36-.613.54-1.36.54-2.24s-.173-1.627-.52-2.24-.8-1.067-1.36-1.36c-.56-.307-1.166-.46-1.82-.46-.666 0-1.28.153-1.84.46-.546.293-.986.747-1.32 1.36s-.5 1.36-.5 2.24c0 .893.16 1.647.48 2.26.334.613.774 1.073 1.32 1.38.547.293 1.147.44 1.8.44zm13.353-9.74c1.334 0 2.414.407 3.24 1.22.827.8 1.24 1.96 1.24 3.48V232h-1.8v-6.2c0-1.093-.273-1.927-.82-2.5-.546-.587-1.293-.88-2.24-.88-.96 0-1.726.3-2.3.9-.56.6-.84 1.473-.84 2.62V232h-1.82v-10.96h1.82v1.56c.36-.56.847-.993 1.46-1.3.627-.307 1.314-.46 2.06-.46zM66.32 255.18c-1.027 0-1.96-.233-2.8-.7-.827-.467-1.48-1.127-1.96-1.98-.467-.867-.7-1.867-.7-3 0-1.12.24-2.107.72-2.96.493-.867 1.16-1.527 2-1.98.84-.467 1.78-.7 2.82-.7s1.98.233 2.82.7c.84.453 1.5 1.107 1.98 1.96.493.853.74 1.847.74 2.98s-.253 2.133-.76 3c-.493.853-1.167 1.513-2.02 1.98s-1.8.7-2.84.7zm0-1.6a3.84 3.84 0 0 0 1.84-.46c.573-.307 1.033-.767 1.38-1.38.36-.613.54-1.36.54-2.24s-.173-1.627-.52-2.24-.8-1.067-1.36-1.36c-.56-.307-1.167-.46-1.82-.46-.667 0-1.28.153-1.84.46-.547.293-.987.747-1.32 1.36s-.5 1.36-.5 2.24c0 .893.16 1.647.48 2.26.333.613.773 1.073 1.32 1.38a3.75 3.75 0 0 0 1.8.44zm17.733-9.54V255h-1.82v-1.62c-.347.56-.833 1-1.46 1.32-.613.307-1.293.46-2.04.46-.853 0-1.62-.173-2.3-.52-.68-.36-1.22-.893-1.62-1.6-.387-.707-.58-1.567-.58-2.58v-6.42h1.8v6.18c0 1.08.273 1.913.82 2.5.547.573 1.293.86 2.24.86.973 0 1.74-.3 2.3-.9s.84-1.473.84-2.62v-6.02h1.82zm4.893 1.78a3.51 3.51 0 0 1 1.36-1.46c.6-.347 1.327-.52 2.18-.52v1.88h-.48c-2.04 0-3.06 1.107-3.06 3.32V255h-1.82v-10.96h1.82v1.78zm10.293 3.66c0-1.12.227-2.1.68-2.94a4.94 4.94 0 0 1 1.86-1.98c.8-.467 1.693-.7 2.68-.7a4.89 4.89 0 0 1 2.38.6c.733.387 1.293.9 1.68 1.54v-5.8h1.84V255h-1.84v-2.06c-.36.653-.893 1.193-1.6 1.62-.707.413-1.533.62-2.48.62-.973 0-1.86-.24-2.66-.72-.787-.48-1.407-1.153-1.86-2.02s-.68-1.853-.68-2.96zm9.28.02c0-.827-.167-1.547-.5-2.16s-.787-1.08-1.36-1.4a3.57 3.57 0 0 0-1.86-.5c-.68 0-1.3.16-1.86.48s-1.007.787-1.34 1.4-.5 1.333-.5 2.16c0 .84.167 1.573.5 2.2.333.613.78 1.087 1.34 1.42.56.32 1.18.48 1.86.48s1.3-.16 1.86-.48a3.58 3.58 0 0 0 1.36-1.42c.333-.627.5-1.353.5-2.18zm5.856-7.24c-.347 0-.64-.12-.88-.36s-.36-.533-.36-.88.12-.64.36-.88.533-.36.88-.36a1.11 1.11 0 0 1 .84.36c.24.24.36.533.36.88s-.12.64-.36.88a1.11 1.11 0 0 1-.84.36zm.88 1.78V255h-1.82v-10.96h1.82zm7.621-.18c.947 0 1.774.207 2.48.62.72.413 1.254.933 1.6 1.56v-2h1.84v11.2c0 1-.213 1.887-.64 2.66-.426.787-1.04 1.4-1.84 1.84-.786.44-1.706.66-2.76.66-1.44 0-2.64-.34-3.6-1.02s-1.526-1.607-1.7-2.78h1.8c.2.667.614 1.2 1.24 1.6.627.413 1.38.62 2.26.62 1 0 1.814-.313 2.44-.94.64-.627.96-1.507.96-2.64v-2.3c-.36.64-.893 1.173-1.6 1.6s-1.533.64-2.48.64c-.973 0-1.86-.24-2.66-.72-.786-.48-1.406-1.153-1.86-2.02s-.68-1.853-.68-2.96c0-1.12.227-2.1.68-2.94.454-.853 1.074-1.513 1.86-1.98a5.18 5.18 0 0 1 2.66-.7zm4.08 5.64c0-.827-.166-1.547-.5-2.16s-.786-1.08-1.36-1.4a3.57 3.57 0 0 0-1.86-.5c-.68 0-1.3.16-1.86.48s-1.006.787-1.34 1.4-.5 1.333-.5 2.16c0 .84.167 1.573.5 2.2.334.613.78 1.087 1.34 1.42.56.32 1.18.48 1.86.48s1.3-.16 1.86-.48c.574-.333 1.027-.807 1.36-1.42.334-.627.5-1.353.5-2.18zm5.856-7.24c-.347 0-.64-.12-.88-.36s-.36-.533-.36-.88.12-.64.36-.88.533-.36.88-.36a1.11 1.11 0 0 1 .84.36c.24.24.36.533.36.88s-.12.64-.36.88a1.11 1.11 0 0 1-.84.36zm.88 1.78V255h-1.82v-10.96h1.82zm5.322 1.5V252c0 .533.113.913.34 1.14.227.213.62.32 1.18.32h1.34V255h-1.64c-1.013 0-1.773-.233-2.28-.7s-.76-1.233-.76-2.3v-6.46h-1.42v-1.5h1.42v-2.76h1.82v2.76h2.86v1.5h-2.86zm4.385 3.94c0-1.12.227-2.1.68-2.94.453-.853 1.073-1.513 1.86-1.98a5.18 5.18 0 0 1 2.66-.7c.96 0 1.793.207 2.5.62s1.233.933 1.58 1.56v-2h1.84V255h-1.84v-2.04c-.36.64-.9 1.173-1.62 1.6-.707.413-1.533.62-2.48.62-.973 0-1.853-.24-2.64-.72s-1.407-1.153-1.86-2.02-.68-1.853-.68-2.96zm9.28.02c0-.827-.167-1.547-.5-2.16s-.787-1.08-1.36-1.4a3.57 3.57 0 0 0-1.86-.5c-.68 0-1.3.16-1.86.48s-1.007.787-1.34 1.4-.5 1.333-.5 2.16c0 .84.167 1.573.5 2.2.333.613.78 1.087 1.34 1.42.56.32 1.18.48 1.86.48s1.3-.16 1.86-.48a3.58 3.58 0 0 0 1.36-1.42c.333-.627.5-1.353.5-2.18zm6.736-9.3V255h-1.82v-14.8h1.82zm10.254 5.86c.36-.627.893-1.147 1.6-1.56.72-.427 1.553-.64 2.5-.64.973 0 1.853.233 2.64.7.8.467 1.426 1.127 1.88 1.98.453.84.68 1.82.68 2.94 0 1.107-.227 2.093-.68 2.96s-1.08 1.54-1.88 2.02c-.787.48-1.667.72-2.64.72-.934 0-1.76-.207-2.48-.62-.707-.427-1.247-.953-1.62-1.58v7.22h-1.82v-16.16h1.82v2.02zm7.44 3.42c0-.827-.167-1.547-.5-2.16a3.45 3.45 0 0 0-1.36-1.4c-.56-.32-1.18-.48-1.86-.48a3.64 3.64 0 0 0-1.86.5c-.56.32-1.014.793-1.36 1.42-.334.613-.5 1.327-.5 2.14 0 .827.166 1.553.5 2.18.346.613.8 1.087 1.36 1.42a3.75 3.75 0 0 0 1.86.48c.68 0 1.3-.16 1.86-.48.573-.333 1.026-.807 1.36-1.42.333-.627.5-1.36.5-2.2zm6.075-9.28V255h-1.82v-14.8h1.82zm2.422 9.28c0-1.12.227-2.1.68-2.94.453-.853 1.073-1.513 1.86-1.98a5.18 5.18 0 0 1 2.66-.7c.96 0 1.793.207 2.5.62s1.233.933 1.58 1.56v-2h1.84V255h-1.84v-2.04c-.36.64-.9 1.173-1.62 1.6-.707.413-1.533.62-2.48.62-.973 0-1.853-.24-2.64-.72s-1.407-1.153-1.86-2.02-.68-1.853-.68-2.96zm9.28.02c0-.827-.167-1.547-.5-2.16s-.787-1.08-1.36-1.4a3.57 3.57 0 0 0-1.86-.5c-.68 0-1.3.16-1.86.48s-1.007.787-1.34 1.4-.5 1.333-.5 2.16c0 .84.167 1.573.5 2.2.333.613.78 1.087 1.34 1.42.56.32 1.18.48 1.86.48s1.3-.16 1.86-.48a3.58 3.58 0 0 0 1.36-1.42c.333-.627.5-1.353.5-2.18zm7.136-3.96V252c0 .533.113.913.34 1.14.226.213.62.32 1.18.32h1.34V255h-1.64c-1.014 0-1.774-.233-2.28-.7s-.76-1.233-.76-2.3v-6.46h-1.42v-1.5h1.42v-2.76h1.82v2.76h2.86v1.5h-2.86zm9.525 0h-2.3V255h-1.82v-9.46h-1.42v-1.5h1.42v-.78c0-1.227.313-2.12.94-2.68.64-.573 1.66-.86 3.06-.86v1.52c-.8 0-1.367.16-1.7.48-.32.307-.48.82-.48 1.54v.78h2.3v1.5zm6.902 9.64c-1.027 0-1.96-.233-2.8-.7a5.09 5.09 0 0 1-1.96-1.98c-.467-.867-.7-1.867-.7-3 0-1.12.24-2.107.72-2.96.493-.867 1.16-1.527 2-1.98.84-.467 1.78-.7 2.82-.7s1.98.233 2.82.7c.84.453 1.5 1.107 1.98 1.96.493.853.74 1.847.74 2.98s-.253 2.133-.76 3c-.493.853-1.167 1.513-2.02 1.98s-1.8.7-2.84.7zm0-1.6a3.84 3.84 0 0 0 1.84-.46c.573-.307 1.033-.767 1.38-1.38.36-.613.54-1.36.54-2.24s-.173-1.627-.52-2.24-.8-1.067-1.36-1.36c-.56-.307-1.167-.46-1.82-.46-.667 0-1.28.153-1.84.46-.547.293-.987.747-1.32 1.36s-.5 1.36-.5 2.24c0 .893.16 1.647.48 2.26.333.613.773 1.073 1.32 1.38.547.293 1.147.44 1.8.44zm9.833-7.76c.32-.627.773-1.113 1.36-1.46.6-.347 1.327-.52 2.18-.52v1.88h-.48c-2.04 0-3.06 1.107-3.06 3.32V255h-1.82v-10.96h1.82v1.78zm18.821-1.98c.853 0 1.613.18 2.28.54.666.347 1.193.873 1.58 1.58s.58 1.567.58 2.58V255h-1.8v-6.2c0-1.093-.274-1.927-.82-2.5-.534-.587-1.26-.88-2.18-.88-.947 0-1.7.307-2.26.92-.56.6-.84 1.473-.84 2.62V255h-1.8v-6.2c0-1.093-.274-1.927-.82-2.5-.534-.587-1.26-.88-2.18-.88-.947 0-1.7.307-2.26.92-.56.6-.84 1.473-.84 2.62V255h-1.82v-10.96h1.82v1.58c.36-.573.84-1.013 1.44-1.32.613-.307 1.286-.46 2.02-.46.92 0 1.733.207 2.44.62s1.233 1.02 1.58 1.82a3.59 3.59 0 0 1 1.52-1.8c.706-.427 1.493-.64 2.36-.64zm8.005 11.28c-.346 0-.64-.12-.88-.36s-.36-.533-.36-.88.12-.64.36-.88.534-.36.88-.36c.334 0 .614.12.84.36.24.24.36.533.36.88s-.12.64-.36.88c-.226.24-.506.36-.84.36z"/></g><defs><filter id="A" x="0" y="0" width="478" height="339" filterUnits="userSpaceOnUse" color-interpolation-filters="sRGB"><feFlood flood-opacity="0" result="A"/><feColorMatrix in="SourceAlpha" values="0 0 0 0 0 0 0 0 0 0 0 0 0 0 0 0 0 0 127 0" result="B"/><feOffset dx="-2" dy="2"/><feGaussianBlur stdDeviation="7.5"/><feComposite in2="B" operator="out"/><feColorMatrix values="0 0 0 0 0 0 0 0 0 0 0 0 0 0 0 0 0 0 0.16 0"/><feBlend in2="A"/><feBlend in="SourceGraphic"/></filter></defs></svg>