<svg xmlns="http://www.w3.org/2000/svg" width="123" height="56" fill="none" xmlns:v="https://vecta.io/nano"><g filter="url(#A)"><rect x="5" y="3" width="113" height="46" rx="23" fill="#2862cc"/><path d="M34.749 26c0-1.373.307-2.6.92-3.68a6.64 6.64 0 0 1 2.54-2.54c1.08-.613 2.287-.92 3.62-.92 1.56 0 2.927.4 4.1 1.2s1.993 1.907 2.46 3.32h-3.22c-.32-.667-.773-1.167-1.36-1.5-.573-.333-1.24-.5-2-.5-.813 0-1.54.193-2.18.58-.627.373-1.12.907-1.48 1.6-.347.693-.52 1.507-.52 2.44 0 .92.173 1.733.52 2.44a4.05 4.05 0 0 0 1.48 1.62c.64.373 1.367.56 2.18.56.76 0 1.427-.167 2-.5.587-.347 1.04-.853 1.36-1.52h3.22c-.467 1.427-1.287 2.54-2.46 3.34-1.16.787-2.527 1.18-4.1 1.18-1.333 0-2.54-.3-3.62-.9a6.83 6.83 0 0 1-2.54-2.54c-.613-1.08-.92-2.307-.92-3.68zm18.832-7.8V33h-2.8V18.2h2.8zm13.066 9.02c0 .4-.027.76-.08 1.08h-8.1c.067.8.347 1.427.84 1.88s1.1.68 1.82.68c1.04 0 1.78-.447 2.22-1.34h3.02c-.32 1.067-.933 1.947-1.84 2.64-.907.68-2.02 1.02-3.34 1.02-1.067 0-2.027-.233-2.88-.7a5.15 5.15 0 0 1-1.98-2.02c-.467-.867-.7-1.867-.7-3 0-1.147.233-2.153.7-3.02s1.12-1.533 1.96-2 1.807-.7 2.9-.7c1.053 0 1.993.227 2.82.68a4.69 4.69 0 0 1 1.94 1.94c.467.827.7 1.78.7 2.86zm-2.9-.8c-.013-.72-.273-1.293-.78-1.72-.507-.44-1.127-.66-1.86-.66-.693 0-1.28.213-1.76.64-.467.413-.753.993-.86 1.74h5.26zm4.224 1c0-1.12.22-2.113.66-2.98.453-.867 1.06-1.533 1.82-2 .773-.467 1.633-.7 2.58-.7.827 0 1.547.167 2.16.5.627.333 1.127.753 1.5 1.26v-1.58h2.82V33h-2.82v-1.62c-.36.52-.86.953-1.5 1.3-.627.333-1.353.5-2.18.5a4.76 4.76 0 0 1-2.56-.72c-.76-.48-1.367-1.153-1.82-2.02-.44-.88-.66-1.887-.66-3.02zm8.72.04c0-.68-.133-1.26-.4-1.74-.267-.493-.627-.867-1.08-1.12a2.83 2.83 0 0 0-1.46-.4c-.52 0-1 .127-1.44.38s-.8.627-1.08 1.12c-.267.48-.4 1.053-.4 1.72s.133 1.253.4 1.76c.28.493.64.873 1.08 1.14.453.267.933.4 1.44.4.52 0 1.007-.127 1.46-.38.453-.267.813-.64 1.08-1.12.267-.493.4-1.08.4-1.76zm8.355-3.82c.36-.587.827-1.047 1.4-1.38.587-.333 1.253-.5 2-.5v2.94h-.74c-.88 0-1.547.207-2 .62-.44.413-.66 1.133-.66 2.16V33h-2.8V21.92h2.8v1.72z" fill="#fff"/></g><defs><filter id="A" x="0" y="0" width="123" height="56" filterUnits="userSpaceOnUse" color-interpolation-filters="sRGB"><feFlood flood-opacity="0" result="A"/><feColorMatrix in="SourceAlpha" values="0 0 0 0 0 0 0 0 0 0 0 0 0 0 0 0 0 0 127 0" result="B"/><feOffset dy="2"/><feGaussianBlur stdDeviation="2.5"/><feComposite in2="B" operator="out"/><feColorMatrix values="0 0 0 0 0 0 0 0 0 0 0 0 0 0 0 0 0 0 0.16 0"/><feBlend in2="A"/><feBlend in="SourceGraphic"/></filter></defs></svg>