<svg xmlns="http://www.w3.org/2000/svg" width="72" height="72" fill="none" xmlns:v="https://vecta.io/nano"><g filter="url(#A)"><circle cx="36" cy="34" r="31" fill="#2862cc"/></g><path d="M43.222 27.279h2.889c1.596 0 2.889 1.182 2.889 2.64v7.919c0 1.458-1.293 2.64-2.889 2.64h-2.889v5.279l-5.778-5.279h-5.778c-.798 0-1.52-.295-2.043-.773m0 0l4.932-4.506h5.778c1.596 0 2.889-1.182 2.889-2.64V24.64c0-1.458-1.293-2.64-2.889-2.64H25.889C24.293 22 23 23.182 23 24.64v7.919c0 1.458 1.293 2.64 2.889 2.64h2.889v5.279l.846-.773z" stroke="#fff" stroke-width="3" stroke-linecap="round" stroke-linejoin="round"/><defs><filter id="A" x="0" y="0" width="72" height="72" filterUnits="userSpaceOnUse" color-interpolation-filters="sRGB"><feFlood flood-opacity="0" result="A"/><feColorMatrix in="SourceAlpha" values="0 0 0 0 0 0 0 0 0 0 0 0 0 0 0 0 0 0 127 0" result="B"/><feOffset dy="2"/><feGaussianBlur stdDeviation="2.5"/><feComposite in2="B" operator="out"/><feColorMatrix values="0 0 0 0 0 0 0 0 0 0 0 0 0 0 0 0 0 0 0.16 0"/><feBlend in2="A"/><feBlend in="SourceGraphic"/></filter></defs></svg>