<svg xmlns="http://www.w3.org/2000/svg" width="324" height="55" fill="none" xmlns:v="https://vecta.io/nano"><rect width="324" height="55" rx="27.5" fill="#2862cc"/><path d="M42.477 33.363V36h-9.448v-2.637h9.448zm-8.423-15.137V36h-3.357V18.227h3.357zm7.19 7.336v2.576h-8.215v-2.576h8.215zm1.196-7.336v2.649h-9.412v-2.649h9.412zm4.651 4.565l2.356 4.199 2.393-4.199h3.503l-3.882 6.47L55.502 36h-3.504l-2.527-4.407L46.932 36h-3.503l4.028-6.738-3.857-6.47h3.491zm13.342 2.539v15.747h-3.235V22.792h2.991l.244 2.539zm8.484 3.931v.256c0 .96-.114 1.851-.342 2.673-.22.814-.545 1.526-.977 2.136-.431.602-.968 1.074-1.611 1.416-.635.334-1.367.5-2.197.5-.814 0-1.522-.155-2.124-.464-.602-.317-1.111-.765-1.526-1.343s-.749-1.249-1.001-2.014c-.244-.773-.427-1.615-.549-2.527v-.818c.122-.968.305-1.847.549-2.637.252-.797.586-1.485 1.001-2.063.415-.586.92-1.038 1.514-1.355.602-.317 1.306-.476 2.112-.476.838 0 1.575.159 2.209.476.643.317 1.184.773 1.624 1.367s.769 1.302.989 2.124.33 1.738.33 2.747zm-3.235.256v-.256c0-.586-.053-1.127-.159-1.623-.106-.505-.268-.944-.488-1.318-.22-.383-.505-.68-.855-.891s-.773-.317-1.27-.317-.924.081-1.282.244-.651.395-.879.696-.407.659-.537 1.074a6.59 6.59 0 0 0-.244 1.355v2.026c.073.602.216 1.143.427 1.624s.521.863.928 1.147c.415.285.952.427 1.611.427.497 0 .92-.11 1.27-.33s.635-.521.855-.903c.22-.391.378-.838.476-1.343a8.47 8.47 0 0 0 .147-1.611zm9.009-12.268V36h-3.235V17.25h3.235zm2.502 12.28v-.256c0-.968.138-1.86.415-2.673.277-.822.679-1.534 1.209-2.136a5.44 5.44 0 0 1 1.941-1.404c.765-.342 1.636-.513 2.612-.513.993 0 1.872.171 2.637.513.773.334 1.424.802 1.953 1.404s.932 1.314 1.209 2.136c.277.814.415 1.705.415 2.673v.256c0 .96-.138 1.851-.415 2.673-.277.814-.68 1.526-1.209 2.136a5.44 5.44 0 0 1-1.941 1.404c-.765.334-1.64.5-2.625.5-.976 0-1.851-.167-2.624-.5s-1.424-.802-1.953-1.404c-.529-.61-.932-1.322-1.209-2.136-.277-.822-.415-1.713-.415-2.673zm3.223-.256v.256c0 .578.057 1.119.171 1.624a4.33 4.33 0 0 0 .525 1.331c.236.383.541.684.915.903.383.212.838.317 1.367.317.521 0 .969-.106 1.343-.317.374-.22.679-.521.915-.903.244-.383.423-.826.537-1.331s.171-1.046.171-1.623v-.256c0-.57-.057-1.103-.171-1.599-.114-.505-.293-.948-.537-1.331-.236-.391-.545-.696-.928-.916-.374-.228-.826-.342-1.355-.342-.521 0-.968.114-1.343.342-.374.22-.679.525-.915.916a4.33 4.33 0 0 0-.525 1.331 7.14 7.14 0 0 0-.171 1.599zM95.15 25.49V36h-3.223V22.792h3.052l.171 2.698zm4.016-2.783l-.049 3.003a5.71 5.71 0 0 0-.61-.073l-.623-.024c-.496 0-.932.069-1.306.207-.374.13-.688.322-.94.574a2.53 2.53 0 0 0-.561.928c-.13.358-.204.765-.22 1.221l-.696-.085c0-.838.085-1.615.256-2.332s.419-1.343.745-1.88.732-.952 1.221-1.245c.496-.301 1.066-.452 1.709-.452.179 0 .37.016.574.049.212.024.378.061.501.11zm7.459 13.538c-1.001 0-1.901-.163-2.698-.488s-1.477-.777-2.039-1.355c-.553-.586-.98-1.266-1.282-2.039-.293-.781-.439-1.619-.439-2.515v-.488c0-1.017.146-1.941.439-2.771.293-.838.708-1.558 1.246-2.161s1.18-1.066 1.928-1.392 1.575-.488 2.478-.488c.936 0 1.762.159 2.478.476.716.309 1.315.749 1.795 1.318s.842 1.253 1.086 2.051c.244.789.366 1.664.366 2.625v1.355h-10.351v-2.222h7.178v-.244c-.017-.513-.114-.981-.293-1.404-.179-.431-.456-.773-.83-1.025-.375-.26-.859-.391-1.453-.391-.48 0-.899.106-1.257.317-.35.203-.643.496-.879.879-.228.374-.399.822-.513 1.343s-.171 1.099-.171 1.733v.488a5.15 5.15 0 0 0 .22 1.538c.154.472.378.883.671 1.233.301.342.659.61 1.074.806.424.187.904.281 1.441.281.675 0 1.286-.13 1.831-.391.553-.269 1.033-.663 1.44-1.184l1.624 1.685c-.277.407-.651.798-1.123 1.172-.464.374-1.026.679-1.685.915-.659.228-1.42.342-2.282.342zm21.008-3.857c0-.277-.073-.525-.22-.745s-.423-.419-.83-.598c-.399-.187-.985-.362-1.758-.525-.683-.146-1.314-.329-1.892-.549s-1.074-.484-1.489-.793c-.415-.317-.741-.688-.977-1.111-.228-.431-.342-.928-.342-1.489a3.44 3.44 0 0 1 .354-1.538 3.76 3.76 0 0 1 1.026-1.282c.447-.374.993-.667 1.636-.879.643-.22 1.367-.33 2.172-.33 1.124 0 2.088.183 2.894.549.813.366 1.436.871 1.867 1.514a3.73 3.73 0 0 1 .647 2.148h-3.222c0-.35-.082-.667-.245-.952a1.67 1.67 0 0 0-.72-.684c-.325-.179-.736-.268-1.233-.268-.447 0-.826.073-1.135.22-.301.146-.529.338-.684.574a1.4 1.4 0 0 0-.232.781 1.31 1.31 0 0 0 .123.574c.089.163.231.313.427.452s.46.264.793.378c.342.114.761.224 1.258.33.984.195 1.843.456 2.575.781.741.317 1.319.741 1.734 1.27s.622 1.204.622 2.026a3.46 3.46 0 0 1-.378 1.611c-.252.48-.619.899-1.099 1.257s-1.054.639-1.721.842c-.667.195-1.42.293-2.258.293-1.213 0-2.238-.216-3.076-.647-.839-.44-1.473-.993-1.905-1.66-.431-.675-.647-1.375-.647-2.1h3.089c.024.513.162.924.415 1.233a2.14 2.14 0 0 0 .952.671c.39.13.801.195 1.233.195.488 0 .899-.065 1.233-.195.333-.138.586-.322.756-.549a1.34 1.34 0 0 0 .257-.806zm13.464.476V22.792h3.247V36h-3.052l-.195-3.137zm.415-2.734l1.001-.024c0 .887-.097 1.705-.293 2.454s-.5 1.4-.915 1.953a4.25 4.25 0 0 1-1.551 1.282c-.626.301-1.367.452-2.221.452a5.62 5.62 0 0 1-1.783-.269 3.63 3.63 0 0 1-1.391-.867c-.383-.399-.68-.907-.891-1.526-.212-.627-.318-1.379-.318-2.258v-8.533h3.223v8.557c0 .439.049.806.147 1.099.105.293.248.533.427.72.187.179.403.309.647.391.252.073.521.11.805.11.782 0 1.396-.155 1.844-.464.455-.317.781-.741.976-1.27.196-.537.293-1.139.293-1.807zm11.109 3.577c.455 0 .862-.09 1.22-.269s.643-.431.855-.757c.22-.325.338-.704.354-1.135h3.039c-.016.895-.268 1.697-.756 2.405a5.19 5.19 0 0 1-1.954 1.685c-.805.407-1.709.61-2.71.61-1.017 0-1.904-.171-2.661-.513s-1.387-.818-1.892-1.428c-.496-.61-.871-1.318-1.123-2.124-.244-.806-.366-1.668-.366-2.588v-.391c0-.92.122-1.782.366-2.588.252-.806.627-1.514 1.123-2.124.505-.61 1.135-1.087 1.892-1.428s1.64-.513 2.649-.513c1.066 0 2.002.208 2.808.623.814.415 1.448 1.001 1.904 1.758.464.757.704 1.648.72 2.673h-3.039c-.016-.472-.122-.895-.318-1.27a2.33 2.33 0 0 0-.83-.903c-.358-.228-.793-.342-1.306-.342-.545 0-1.001.114-1.367.342-.358.228-.639.541-.842.94a4.6 4.6 0 0 0-.415 1.318c-.074.48-.11.985-.11 1.514v.391c0 .537.036 1.05.11 1.538.081.488.219.928.415 1.318a2.4 2.4 0 0 0 .842.916c.366.228.83.342 1.392.342zm13.037 0c.455 0 .862-.09 1.22-.269s.643-.431.855-.757c.22-.325.338-.704.354-1.135h3.039c-.016.895-.268 1.697-.756 2.405s-1.14 1.27-1.953 1.685c-.806.407-1.709.61-2.71.61-1.018 0-1.905-.171-2.662-.513a5.19 5.19 0 0 1-1.892-1.428 6.34 6.34 0 0 1-1.123-2.124c-.244-.806-.366-1.668-.366-2.588v-.391c0-.92.122-1.782.366-2.588a6.34 6.34 0 0 1 1.123-2.124 5.19 5.19 0 0 1 1.892-1.428c.757-.342 1.64-.513 2.649-.513 1.066 0 2.002.208 2.808.623.814.415 1.449 1.001 1.904 1.758.464.757.704 1.648.72 2.673h-3.039c-.016-.472-.122-.895-.317-1.27s-.472-.675-.831-.903-.793-.342-1.306-.342c-.545 0-1.001.114-1.367.342-.358.228-.639.541-.842.94-.195.391-.334.83-.415 1.318-.073.48-.11.985-.11 1.514v.391a10.4 10.4 0 0 0 .11 1.538c.081.488.22.928.415 1.318a2.4 2.4 0 0 0 .842.916c.366.228.83.342 1.392.342zm13.55 2.539c-1.001 0-1.901-.163-2.698-.488s-1.477-.777-2.039-1.355c-.553-.586-.98-1.266-1.282-2.039-.293-.781-.439-1.619-.439-2.515v-.488c0-1.017.146-1.941.439-2.771.293-.838.708-1.558 1.246-2.161s1.18-1.066 1.928-1.392 1.575-.488 2.478-.488c.936 0 1.762.159 2.478.476.716.309 1.315.749 1.795 1.318s.842 1.253 1.086 2.051c.244.789.366 1.664.366 2.625v1.355h-10.351v-2.222h7.178v-.244c-.017-.513-.114-.981-.293-1.404-.179-.431-.456-.773-.83-1.025-.375-.26-.859-.391-1.453-.391-.48 0-.899.106-1.257.317-.35.203-.643.496-.879.879-.228.374-.399.822-.513 1.343s-.171 1.099-.171 1.733v.488a5.15 5.15 0 0 0 .22 1.538c.154.472.378.883.671 1.233.301.342.659.61 1.074.806.424.187.904.281 1.441.281.675 0 1.286-.13 1.831-.391.553-.269 1.033-.663 1.44-1.184l1.624 1.685c-.277.407-.651.798-1.123 1.172-.464.374-1.026.679-1.685.915-.659.228-1.42.342-2.282.342zm14.782-3.857c0-.277-.073-.525-.219-.745s-.424-.419-.831-.598c-.398-.187-.984-.362-1.757-.525-.684-.146-1.315-.329-1.892-.549s-1.075-.484-1.49-.793c-.415-.317-.74-.688-.976-1.111-.228-.431-.342-.928-.342-1.489a3.44 3.44 0 0 1 .354-1.538 3.77 3.77 0 0 1 1.025-1.282c.448-.374.993-.667 1.636-.879.643-.22 1.367-.33 2.173-.33 1.123 0 2.087.183 2.893.549.814.366 1.436.871 1.868 1.514.431.635.647 1.351.647 2.148h-3.223c0-.35-.081-.667-.244-.952-.155-.285-.395-.513-.72-.684-.326-.179-.737-.268-1.233-.268-.448 0-.826.073-1.136.22-.301.146-.529.338-.683.574s-.232.497-.232.781c0 .212.041.403.122.574.089.163.232.313.427.452s.46.264.794.378a11.86 11.86 0 0 0 1.257.33c.985.195 1.843.456 2.576.781.74.317 1.318.741 1.733 1.27s.623 1.204.623 2.026a3.45 3.45 0 0 1-.379 1.611 3.73 3.73 0 0 1-1.098 1.257c-.481.358-1.054.639-1.722.842-.667.195-1.42.293-2.258.293-1.212 0-2.238-.216-3.076-.647-.838-.44-1.473-.993-1.904-1.66-.432-.675-.647-1.375-.647-2.1h3.088c.024.513.163.924.415 1.233s.57.533.952.671c.391.13.802.195 1.233.195.488 0 .899-.065 1.233-.195.334-.138.586-.322.757-.549.171-.236.256-.505.256-.806zm12.866 0c0-.277-.073-.525-.219-.745s-.423-.419-.83-.598c-.399-.187-.985-.362-1.758-.525a12.94 12.94 0 0 1-1.892-.549 6.14 6.14 0 0 1-1.49-.793c-.415-.317-.74-.688-.976-1.111-.228-.431-.342-.928-.342-1.489a3.44 3.44 0 0 1 .354-1.538 3.76 3.76 0 0 1 1.026-1.282c.447-.374.992-.667 1.635-.879.643-.22 1.367-.33 2.173-.33 1.123 0 2.088.183 2.893.549.814.366 1.437.871 1.868 1.514.431.635.647 1.351.647 2.148h-3.223c0-.35-.081-.667-.244-.952-.155-.285-.395-.513-.72-.684-.326-.179-.737-.268-1.233-.268-.448 0-.826.073-1.135.22-.301.146-.529.338-.684.574s-.232.497-.232.781c0 .212.041.403.122.574.09.163.232.313.427.452s.46.264.794.378c.342.114.761.224 1.257.33.985.195 1.843.456 2.576.781.74.317 1.318.741 1.733 1.27s.623 1.204.623 2.026a3.45 3.45 0 0 1-.379 1.611 3.73 3.73 0 0 1-1.098 1.257c-.48.358-1.054.639-1.721.842-.668.195-1.42.293-2.259.293-1.212 0-2.238-.216-3.076-.647-.838-.44-1.473-.993-1.904-1.66-.431-.675-.647-1.375-.647-2.1h3.088c.025.513.163.924.415 1.233s.57.533.952.671c.391.13.802.195 1.233.195.489 0 .9-.065 1.233-.195.334-.138.586-.322.757-.549.171-.236.256-.505.256-.806zm19.092 0c0-.277-.073-.525-.219-.745s-.424-.419-.831-.598c-.398-.187-.984-.362-1.757-.525-.684-.146-1.315-.329-1.892-.549s-1.075-.484-1.49-.793c-.415-.317-.74-.688-.976-1.111-.228-.431-.342-.928-.342-1.489a3.44 3.44 0 0 1 .354-1.538 3.77 3.77 0 0 1 1.025-1.282c.448-.374.993-.667 1.636-.879.643-.22 1.367-.33 2.173-.33 1.123 0 2.087.183 2.893.549.814.366 1.436.871 1.868 1.514.431.635.647 1.351.647 2.148h-3.223c0-.35-.081-.667-.244-.952-.155-.285-.395-.513-.72-.684-.326-.179-.737-.268-1.233-.268-.448 0-.826.073-1.136.22-.301.146-.529.338-.683.574s-.232.497-.232.781c0 .212.041.403.122.574.09.163.232.313.427.452s.46.264.794.378a11.86 11.86 0 0 0 1.257.33c.985.195 1.843.456 2.576.781.74.317 1.318.741 1.733 1.27s.623 1.204.623 2.026a3.45 3.45 0 0 1-.379 1.611 3.73 3.73 0 0 1-1.098 1.257c-.481.358-1.054.639-1.722.842-.667.195-1.42.293-2.258.293-1.212 0-2.238-.216-3.076-.647-.838-.44-1.473-.993-1.904-1.66-.432-.675-.647-1.375-.647-2.1h3.088c.024.513.163.924.415 1.233s.57.533.952.671c.391.13.802.195 1.233.195.488 0 .899-.065 1.233-.195.334-.138.586-.322.757-.549.171-.236.256-.505.256-.806zm11.853-9.595v2.319h-7.568v-2.319h7.568zm-5.542-3.247h3.235v12.647c0 .391.053.692.159.903s.264.354.476.427a2.32 2.32 0 0 0 .757.11 4.36 4.36 0 0 0 .586-.037l.451-.073.013 2.417c-.269.09-.574.163-.916.22a6.79 6.79 0 0 1-1.135.085c-.725 0-1.359-.122-1.905-.366a2.72 2.72 0 0 1-1.269-1.208c-.301-.562-.452-1.302-.452-2.222V19.545zm6.8 9.985v-.256c0-.968.138-1.86.415-2.673.276-.822.679-1.534 1.208-2.136a5.44 5.44 0 0 1 1.941-1.404c.765-.342 1.636-.513 2.612-.513.993 0 1.872.171 2.637.513.773.334 1.424.802 1.953 1.404a6.19 6.19 0 0 1 1.209 2.136c.276.814.415 1.705.415 2.673v.256c0 .96-.139 1.851-.415 2.673-.277.814-.68 1.526-1.209 2.136a5.44 5.44 0 0 1-1.941 1.404c-.765.334-1.64.5-2.624.5-.977 0-1.852-.167-2.625-.5s-1.424-.802-1.953-1.404c-.529-.61-.932-1.322-1.208-2.136-.277-.822-.415-1.713-.415-2.673zm3.222-.256v.256c0 .578.057 1.119.171 1.624s.289.948.525 1.331.541.684.916.903c.382.212.838.317 1.367.317.521 0 .968-.106 1.343-.317a2.63 2.63 0 0 0 .915-.903c.244-.383.423-.826.537-1.331s.171-1.046.171-1.623v-.256c0-.57-.057-1.103-.171-1.599-.114-.505-.293-.948-.537-1.331a2.56 2.56 0 0 0-.928-.916c-.374-.228-.826-.342-1.355-.342-.52 0-.968.114-1.342.342a2.59 2.59 0 0 0-.916.916c-.236.383-.411.826-.525 1.331-.114.496-.171 1.029-.171 1.599zm14.734-3.784V36h-3.223V22.792h3.052l.171 2.698zm4.016-2.783l-.049 3.003c-.179-.033-.382-.057-.61-.073l-.622-.024c-.497 0-.932.069-1.307.207-.374.13-.687.322-.94.574a2.53 2.53 0 0 0-.561.928c-.13.358-.204.765-.22 1.221l-.696-.085c0-.838.086-1.615.257-2.332s.419-1.343.744-1.88.733-.952 1.221-1.245c.496-.301 1.066-.452 1.709-.452.179 0 .37.016.574.049.211.024.378.061.5.11zm5.188.086V36h-3.235V22.792h3.235zm-3.454-3.455c0-.48.162-.879.488-1.196.334-.317.781-.476 1.343-.476s1.005.159 1.33.476a1.58 1.58 0 0 1 .501 1.196c0 .472-.167.867-.501 1.184-.325.317-.769.476-1.33.476s-1.009-.159-1.343-.476c-.326-.317-.488-.712-.488-1.184zm12.463 16.907c-1.001 0-1.9-.163-2.698-.488s-1.477-.777-2.038-1.355a6.22 6.22 0 0 1-1.282-2.039c-.293-.781-.439-1.619-.439-2.515v-.488c0-1.017.146-1.941.439-2.771.293-.838.708-1.558 1.245-2.161a5.48 5.48 0 0 1 1.929-1.392c.748-.326 1.574-.488 2.478-.488.936 0 1.762.159 2.478.476a4.79 4.79 0 0 1 1.794 1.318c.48.57.843 1.253 1.087 2.051.244.789.366 1.664.366 2.625v1.355h-10.352v-2.222h7.178v-.244c-.016-.513-.114-.981-.293-1.404-.179-.431-.456-.773-.83-1.025-.374-.26-.859-.391-1.453-.391-.48 0-.899.106-1.257.317-.35.203-.643.496-.879.879-.228.374-.399.822-.513 1.343a8.19 8.19 0 0 0-.17 1.733v.488c0 .553.073 1.066.219 1.538.155.472.379.883.672 1.233.301.342.659.61 1.074.806.423.187.903.281 1.44.281.676 0 1.286-.13 1.831-.391.554-.269 1.034-.663 1.441-1.184l1.623 1.685c-.276.407-.651.798-1.123 1.172-.464.374-1.025.679-1.684.915-.659.228-1.42.342-2.283.342zm14.783-3.857c0-.277-.073-.525-.22-.745s-.423-.419-.83-.598c-.399-.187-.985-.362-1.758-.525-.683-.146-1.314-.329-1.892-.549s-1.074-.484-1.489-.793c-.415-.317-.741-.688-.977-1.111-.228-.431-.342-.928-.342-1.489a3.44 3.44 0 0 1 .354-1.538 3.76 3.76 0 0 1 1.026-1.282c.447-.374.993-.667 1.636-.879.642-.22 1.367-.33 2.172-.33 1.123 0 2.088.183 2.893.549.814.366 1.437.871 1.868 1.514.431.635.647 1.351.647 2.148h-3.223c0-.35-.081-.667-.244-.952a1.67 1.67 0 0 0-.72-.684c-.325-.179-.736-.268-1.233-.268-.447 0-.826.073-1.135.22-.301.146-.529.338-.684.574a1.4 1.4 0 0 0-.232.781c0 .212.041.403.122.574.09.163.232.313.428.452s.46.264.793.378c.342.114.761.224 1.258.33.984.195 1.843.456 2.575.781.741.317 1.319.741 1.734 1.27s.622 1.204.622 2.026a3.46 3.46 0 0 1-.378 1.611c-.253.48-.619.899-1.099 1.257s-1.054.639-1.721.842c-.667.195-1.42.293-2.258.293-1.213 0-2.238-.216-3.077-.647-.838-.44-1.473-.993-1.904-1.66-.431-.675-.647-1.375-.647-2.1h3.089c.024.513.162.924.415 1.233a2.14 2.14 0 0 0 .952.671c.39.13.801.195 1.233.195.488 0 .899-.065 1.233-.195.333-.138.585-.322.756-.549a1.34 1.34 0 0 0 .257-.806z" fill="#fff"/></svg>