<svg xmlns="http://www.w3.org/2000/svg" width="208" height="59" fill="none" xmlns:v="https://vecta.io/nano"><g filter="url(#A)"><rect x="7" y="5" width="193.256" height="45" rx="22.5" fill="#fff" stroke="#2862cc" stroke-width="4"/><path d="M62.381 31.891V34h-7.148v-2.109h7.148zm-6.338-12.109V34h-2.686V19.781h2.686zm12.685 14.414c-.801 0-1.52-.13-2.158-.391a4.74 4.74 0 0 1-1.631-1.084 4.98 4.98 0 0 1-1.025-1.631c-.234-.625-.352-1.296-.352-2.012v-.391c0-.814.117-1.553.352-2.217a5.08 5.08 0 0 1 .996-1.729c.43-.482.944-.853 1.543-1.113a4.92 4.92 0 0 1 1.982-.391c.749 0 1.41.127 1.983.381.573.247 1.051.599 1.435 1.055s.674 1.003.869 1.641c.195.632.293 1.331.293 2.1v1.084h-8.281v-1.777h5.742v-.195c-.013-.41-.091-.785-.234-1.123-.143-.345-.365-.618-.664-.82-.3-.208-.687-.312-1.162-.312-.384 0-.719.085-1.006.254-.28.163-.514.397-.703.703-.182.299-.319.657-.41 1.074s-.137.879-.137 1.387v.391c0 .443.059.853.176 1.23.124.378.303.706.537.986a2.62 2.62 0 0 0 .859.645c.339.15.723.225 1.152.225.54 0 1.029-.104 1.465-.312.443-.215.827-.531 1.152-.947l1.299 1.348c-.221.325-.521.638-.898.938a4.59 4.59 0 0 1-1.348.732c-.527.182-1.136.273-1.826.273zm11.836-2.441v-4.873c0-.358-.062-.667-.186-.928a1.34 1.34 0 0 0-.566-.605c-.254-.143-.576-.215-.967-.215-.345 0-.648.059-.908.176a1.34 1.34 0 0 0-.586.498c-.137.208-.205.449-.205.723h-2.588a2.6 2.6 0 0 1 .313-1.24c.208-.397.505-.749.889-1.055.391-.312.856-.557 1.396-.732.547-.176 1.159-.264 1.836-.264.801 0 1.514.137 2.139.41a3.25 3.25 0 0 1 1.484 1.211c.365.54.547 1.221.547 2.041v4.609a8.12 8.12 0 0 0 .098 1.357c.072.371.176.693.313.967V34h-2.627c-.124-.267-.218-.605-.283-1.016-.065-.417-.098-.827-.098-1.23zm.361-4.189l.02 1.533h-1.631c-.404 0-.758.042-1.064.127-.306.078-.557.195-.752.352-.195.15-.342.332-.439.547a1.66 1.66 0 0 0-.147.713 1.41 1.41 0 0 0 .176.703c.124.208.299.374.527.498.234.117.508.176.82.176.456 0 .853-.091 1.191-.273.339-.189.602-.417.791-.684s.29-.521.303-.762l.742 1.113a4.37 4.37 0 0 1-.41.85c-.182.3-.417.579-.703.84a3.58 3.58 0 0 1-1.035.645c-.404.169-.872.254-1.406.254-.684 0-1.296-.137-1.836-.41s-.967-.648-1.279-1.123-.469-1.016-.469-1.621c0-.56.104-1.055.313-1.484s.518-.791.928-1.084c.41-.299.918-.524 1.523-.674.612-.156 1.312-.234 2.1-.234h1.738zm7.139-1.973V34h-2.578V23.434h2.441l.137 2.158zm3.213-2.227l-.039 2.402c-.143-.026-.306-.046-.488-.059l-.498-.02c-.397 0-.745.055-1.045.166a1.95 1.95 0 0 0-.752.459c-.195.202-.345.449-.449.742a3.18 3.18 0 0 0-.176.977l-.557-.068c0-.671.068-1.292.205-1.865s.335-1.074.596-1.504.586-.762.977-.996c.397-.241.853-.361 1.367-.361a2.92 2.92 0 0 1 .459.039c.169.02.303.049.4.088zm3.945 2.324V34h-2.578V23.434h2.422l.156 2.256zm-.41 2.646h-.762c.007-.768.111-1.465.313-2.09s.485-1.162.85-1.611c.371-.449.81-.794 1.318-1.035s1.074-.361 1.699-.361c.508 0 .967.072 1.377.215s.762.371 1.055.684c.3.313.527.723.684 1.23.162.501.244 1.12.244 1.855V34h-2.598v-6.797c0-.482-.072-.863-.215-1.143-.137-.28-.338-.479-.605-.596-.26-.117-.583-.176-.967-.176-.397 0-.746.081-1.045.244a2.16 2.16 0 0 0-.742.654 3.22 3.22 0 0 0-.449.967c-.104.365-.156.759-.156 1.182zm16.602-2.734V34h-2.578V23.434h2.432l.146 2.168zm-.381 2.734h-.791c0-.736.088-1.413.264-2.031.182-.619.449-1.156.801-1.611.351-.462.784-.82 1.298-1.074.521-.254 1.124-.381 1.807-.381.475 0 .912.072 1.309.215a2.54 2.54 0 0 1 1.025.654c.293.293.518.677.674 1.152.156.469.234 1.032.234 1.689V34h-2.578v-6.787c0-.495-.071-.882-.215-1.162-.136-.28-.335-.475-.595-.586-.261-.117-.573-.176-.938-.176-.404 0-.752.081-1.045.244a2.02 2.02 0 0 0-.713.654c-.182.28-.319.602-.41.967-.084.365-.127.759-.127 1.182zm6.426-.479l-1.064.195c.006-.664.097-1.286.273-1.865.176-.586.433-1.097.771-1.533a3.61 3.61 0 0 1 1.28-1.035c.514-.254 1.107-.381 1.777-.381.521 0 .99.075 1.406.225a2.6 2.6 0 0 1 1.084.693c.3.313.528.72.684 1.221.163.501.244 1.113.244 1.836V34h-2.598v-6.797c0-.514-.071-.908-.214-1.182-.137-.273-.336-.462-.596-.566-.261-.111-.567-.166-.918-.166-.358 0-.671.068-.938.205a1.93 1.93 0 0 0-.664.547 2.55 2.55 0 0 0-.4.82 3.71 3.71 0 0 0-.127.996zm8.311.967v-.205c0-.775.11-1.488.332-2.139.221-.658.543-1.227.966-1.709a4.36 4.36 0 0 1 1.553-1.123c.612-.273 1.309-.41 2.09-.41.794 0 1.497.137 2.109.41a4.33 4.33 0 0 1 1.563 1.123c.423.482.745 1.051.967 1.709.221.651.332 1.364.332 2.139v.205c0 .768-.111 1.481-.332 2.139-.222.651-.544 1.221-.967 1.709a4.35 4.35 0 0 1-1.553 1.123c-.612.267-1.312.4-2.1.4-.781 0-1.481-.134-2.099-.4s-1.139-.641-1.563-1.123c-.423-.488-.745-1.058-.966-1.709-.222-.658-.332-1.37-.332-2.139zm2.578-.205v.205c0 .462.045.895.136 1.299s.231.758.42 1.064a2.1 2.1 0 0 0 .733.723c.306.169.67.254 1.093.254.417 0 .775-.085 1.075-.254.299-.176.543-.417.732-.723.195-.306.339-.661.43-1.064s.137-.837.137-1.299v-.205a5.72 5.72 0 0 0-.137-1.279c-.091-.404-.235-.758-.43-1.064-.189-.312-.436-.557-.742-.732-.3-.182-.661-.273-1.084-.273-.417 0-.775.091-1.074.273-.3.176-.544.42-.733.732-.189.306-.328.661-.42 1.064a5.72 5.72 0 0 0-.136 1.279zm11.787-3.027V34h-2.578V23.434h2.441l.137 2.158zm3.213-2.227l-.039 2.402a4.57 4.57 0 0 0-.489-.059l-.498-.02a3.01 3.01 0 0 0-1.045.166c-.299.104-.55.257-.752.459-.195.202-.345.449-.449.742-.104.287-.163.612-.176.977l-.556-.068c0-.671.068-1.292.205-1.865s.335-1.074.596-1.504.585-.762.976-.996c.397-.241.853-.361 1.367-.361.144 0 .297.013.459.039.17.02.303.049.401.088zm5.966 10.83c-.8 0-1.52-.13-2.158-.391s-1.181-.622-1.631-1.084c-.442-.469-.784-1.012-1.025-1.631a5.69 5.69 0 0 1-.352-2.012v-.391c0-.814.118-1.553.352-2.217a5.07 5.07 0 0 1 .996-1.729c.43-.482.944-.853 1.543-1.113a4.92 4.92 0 0 1 1.982-.391c.749 0 1.41.127 1.983.381a3.83 3.83 0 0 1 1.435 1.055c.385.456.674 1.003.87 1.641.195.632.293 1.331.293 2.1v1.084h-8.282v-1.777h5.742v-.195c-.013-.41-.091-.785-.234-1.123a1.79 1.79 0 0 0-.664-.82c-.299-.208-.687-.312-1.162-.312-.384 0-.719.085-1.006.254a2.02 2.02 0 0 0-.703.703c-.182.299-.319.657-.41 1.074a6.51 6.51 0 0 0-.137 1.387v.391a4.14 4.14 0 0 0 .176 1.23 2.96 2.96 0 0 0 .537.986 2.62 2.62 0 0 0 .859.645c.339.15.723.225 1.153.225a3.36 3.36 0 0 0 1.465-.312c.442-.215.826-.531 1.152-.947l1.299 1.348a4.32 4.32 0 0 1-.899.938c-.371.299-.82.544-1.347.732-.528.182-1.136.273-1.827.273z" fill="#2862cc"/></g><defs><filter id="A" x="0" y="0" width="207.256" height="59" filterUnits="userSpaceOnUse" color-interpolation-filters="sRGB"><feFlood flood-opacity="0" result="A"/><feColorMatrix in="SourceAlpha" values="0 0 0 0 0 0 0 0 0 0 0 0 0 0 0 0 0 0 127 0" result="B"/><feOffset dy="2"/><feGaussianBlur stdDeviation="2.5"/><feComposite in2="B" operator="out"/><feColorMatrix values="0 0 0 0 0 0 0 0 0 0 0 0 0 0 0 0 0 0 0.16 0"/><feBlend in2="A"/><feBlend in="SourceGraphic"/></filter></defs></svg>