<svg xmlns="http://www.w3.org/2000/svg" width="46" height="46" fill="none" xmlns:v="https://vecta.io/nano"><path d="M0 9a9 9 0 0 1 9-9h28a9 9 0 0 1 9 9v28a9 9 0 0 1-9 9H9a9 9 0 0 1-9-9V9z" fill="#c8d7f4"/><g stroke="#2862cc"><path d="M23 25.111l10-5.556L23 14l-10 5.556 10 5.556z"/><path d="M23 25.111l6.844-3.802c.901 2.287 1.156 4.777.739 7.199A13.28 13.28 0 0 0 23 31.839a13.28 13.28 0 0 0-7.582-3.331 13.42 13.42 0 0 1 .739-7.199L23 25.111z"/><path d="M23 25.111l10-5.556L23 14l-10 5.556 10 5.556zm0 0l6.844-3.802c.901 2.287 1.156 4.777.739 7.199A13.28 13.28 0 0 0 23 31.839a13.28 13.28 0 0 0-7.582-3.331 13.42 13.42 0 0 1 .739-7.199L23 25.111zm-4.444 6.667v-8.333L23 20.976" stroke-width="2.5" stroke-linecap="round" stroke-linejoin="round"/></g></svg>