<svg xmlns="http://www.w3.org/2000/svg" width="46" height="46" fill="none" xmlns:v="https://vecta.io/nano"><rect width="46" height="46" rx="9" fill="#fbcfe2"/><path d="M17.444 33c-1.179 0-2.309-.468-3.143-1.302S13 29.734 13 28.556V15.222A2.22 2.22 0 0 1 15.222 13h4.444a2.22 2.22 0 0 1 2.222 2.222v13.333c0 1.179-.468 2.309-1.302 3.143M17.444 33c1.179 0 2.309-.468 3.143-1.302M17.444 33h13.333A2.22 2.22 0 0 0 33 30.778v-4.444a2.22 2.22 0 0 0-2.222-2.222h-2.603m-7.587 7.587l9.429-9.428a2.22 2.22 0 0 0 0-3.142l-3.143-3.143a2.22 2.22 0 0 0-3.142 0l-1.841 1.841m-4.444 10.73h.011" stroke="#f487b6" stroke-width="2.5" stroke-linecap="round" stroke-linejoin="round"/></svg>