<svg xmlns="http://www.w3.org/2000/svg" width="46" height="46" fill="none" xmlns:v="https://vecta.io/nano"><g fill="#f8d6cb"><rect width="46" height="46" rx="9"/><path d="M33 23a10 10 0 0 1-2.357 6.449l-.572.622A10 10 0 0 1 23 33a10 10 0 0 1-7.071-2.929l-.572-.622A10 10 0 0 1 13 23a10 10 0 0 1 10-10 10 10 0 0 1 10 10z"/></g><path d="M15.357 29.449c2.331-1.318 4.965-2.008 7.643-2.004a15.48 15.48 0 0 1 7.643 2.004m-4.31-8.671c0 .884-.351 1.732-.976 2.357s-1.473.976-2.357.976-1.732-.351-2.357-.976-.976-1.473-.976-2.357.351-1.732.976-2.357 1.473-.976 2.357-.976 1.732.351 2.357.976.976 1.473.976 2.357zM33 23a10 10 0 0 1-2.929 7.071A10 10 0 0 1 23 33a10 10 0 0 1-7.071-2.929A10 10 0 0 1 13 23a10 10 0 0 1 10-10 10 10 0 0 1 10 10z" stroke="#e4572e" stroke-width="2.5" stroke-linecap="round" stroke-linejoin="round"/></svg>