<svg xmlns="http://www.w3.org/2000/svg" xmlns:xlink="http://www.w3.org/1999/xlink" width="1444" height="541" fill="none" xmlns:v="https://vecta.io/nano"><style><![CDATA[.B{fill-opacity:.5}]]></style><path fill="#90afe9" d="M0 0h1444v541H0z"/><mask id="A" maskUnits="userSpaceOnUse" x="0" y="0" width="1444" height="541" mask-type="alpha"><path fill="#90afe9" d="M0 0h1444v541H0z"/></mask><g mask="url(#A)" class="B"><use xlink:href="#L" fill="url(#B)"/><use xlink:href="#L" fill="url(#C)"/><use xlink:href="#M" fill="url(#D)"/><use xlink:href="#M" fill="url(#E)"/><use xlink:href="#N" fill="url(#F)"/><use xlink:href="#N" fill="url(#G)"/><use xlink:href="#O" fill="url(#H)"/><use xlink:href="#O" fill="url(#I)"/><use xlink:href="#P" fill="url(#J)"/><use xlink:href="#P" fill="url(#K)"/></g><defs><linearGradient id="B" x1="313.054" y1="168.399" x2="123.7" y2="985.788" xlink:href="#Q"><stop stop-color="#fff"/><stop offset=".47" stop-color="#fff" stop-opacity="0"/></linearGradient><linearGradient id="C" x1="-304.969" y1="612.743" x2="1070.74" y2="428.058" xlink:href="#Q"><stop stop-color="#fff"/><stop offset=".47" stop-color="#fff" stop-opacity="0"/></linearGradient><linearGradient id="D" x1="885.191" y1="87.035" x2="1225.62" y2="388.343" xlink:href="#Q"><stop stop-color="#fff"/><stop offset=".47" stop-color="#fff" stop-opacity="0"/></linearGradient><linearGradient id="E" x1="1242.84" y1="150.87" x2="770.265" y2="445.903" xlink:href="#Q"><stop stop-color="#fff"/><stop offset=".47" stop-color="#fff" stop-opacity="0"/></linearGradient><linearGradient id="F" x1="159.794" y1="346.766" x2="-99.507" y2="10.87" xlink:href="#Q"><stop stop-color="#fff"/><stop offset=".47" stop-color="#fff" stop-opacity="0"/></linearGradient><linearGradient id="G" x1="-196.708" y1="256.29" x2="357.224" y2="18.097" xlink:href="#Q"><stop stop-color="#fff"/><stop offset=".47" stop-color="#fff" stop-opacity="0"/></linearGradient><linearGradient id="H" x1="1258.01" y1="409.556" x2="1544.77" y2="714.455" xlink:href="#Q"><stop stop-color="#fff"/><stop offset=".47" stop-color="#fff" stop-opacity="0"/></linearGradient><linearGradient id="I" x1="1629.56" y1="452.081" x2="1099.63" y2="765.928" xlink:href="#Q"><stop stop-color="#fff"/><stop offset=".47" stop-color="#fff" stop-opacity="0"/></linearGradient><linearGradient id="J" x1="1383.61" y1="270.371" x2="1426.7" y2="-110.629" xlink:href="#Q"><stop stop-color="#fff"/><stop offset=".47" stop-color="#fff" stop-opacity="0"/></linearGradient><linearGradient id="K" x1="1217.64" y1="-11.63" x2="1723.46" y2="330.27" xlink:href="#Q"><stop stop-color="#fff"/><stop offset=".47" stop-color="#fff" stop-opacity="0"/></linearGradient><path id="L" d="M14.014 396.456l-.885.618-.885.617-1.544 1.119a.92.92 0 0 1-.195.132c-22.469 16.467-35.683 41.332-33.145 68.213l29.29 311.682c.621 7.78 2.552 15.532 5.837 22.983l.059.185c.18.403.361.805.572 1.222.103.242.206.485.334.722.097.221.211.417.308.639l.641 1.272.033.104c3.957 7.654 9.213 14.665 15.586 20.874l.069.051a38.54 38.54 0 0 0 1.396 1.325c.144.123.264.251.409.374l.999.905c.289.245.553.496.842.741.175.138.327.281.502.419 8.79 7.594 19.008 13.454 30 17.594a3.66 3.66 0 0 1 .392.155 26.05 26.05 0 0 0 1.101.396l1.251.451c.087.025.174.05.267.095 11.184 3.832 23.364 5.981 36.026 6.076l.637.013 1.261-.016c.476.005.945-.012 1.421-.007l.655-.014 2.064-.062.123-.027c9.712-.397 19.37-2.042 28.666-4.911l.221-.05c.48-.151.984-.307 1.457-.479l.836-.275c.264-.081.522-.183.762-.259l1.517-.537.148-.033c8.729-3.163 16.765-7.344 23.903-12.364l328.168-224.332c7.32-4.862 13.826-10.625 19.292-17.174l.079-.084a21.81 21.81 0 0 0 .925-1.158l.453-.565.508-.644.84-1.094c.061-.058.09-.131.151-.189 5.874-7.923 10.024-16.545 12.387-25.476.046-.187.092-.375.145-.541l.374-1.565c.103-.422.183-.837.286-1.259.058-.234.098-.441.131-.67 1.866-9.086 1.84-18.148.151-26.884-.065-.206-.081-.424-.122-.636-.089-.444-.177-.889-.29-1.328l-.427-1.763-.091-.289c-2.547-10.026-7.382-19.785-14.564-28.711-.126-.149-.221-.282-.347-.431a39.59 39.59 0 0 0-1.062-1.267c-.214-.262-.46-.539-.675-.801l-.619-.702c-.864-.98-1.747-1.933-2.654-2.881-5.126-5.27-11.071-10.049-17.697-14.144-.063-.031-.101-.066-.132-.082-1.219-.767-2.481-1.503-3.761-2.213-.162-.096-.325-.193-.505-.263-.419-.239-.831-.456-1.274-.689-.256-.142-.512-.284-.761-.406-.318-.172-.661-.339-.98-.511-.312-.152-.623-.303-.911-.46l-.467-.228c-.842-.409-1.709-.813-2.569-1.196-.093-.046-.211-.086-.305-.131l-1.47-.645c-.063-.031-.125-.061-.212-.086-5.987-2.579-12.249-4.611-18.655-6.102L102.145 381.8c-30.883-7.489-62.58-1.658-86.34 13.482-.067.038-.135.075-.196.133-.519.359-1.069.702-1.595 1.041z"/><path id="M" d="M1062.53 123.475l.51.083.5.083.9.163c.04.013.08.015.11.017 13.11 2.454 25.8 10.353 33.76 22.3l92.35 138.492c2.34 3.434 4.23 7.122 5.55 10.956.01.03.03.061.04.091l.21.636.12.374c.04.114.06.22.1.334.07.221.14.451.2.671.01.021.02.041.02.051 1.16 4.057 1.66 8.103 1.52 12.034l-.01.036c0 .284-.01.569-.04.846-.01.081-.01.16-.02.242-.01.195-.03.391-.04.587-.02.163-.03.323-.05.486-.01.094-.01.185-.03.279-.52 5.01-2.09 9.572-4.5 13.558-.02.041-.06.095-.08.146-.08.133-.16.268-.25.391-.09.148-.18.297-.28.445-.02.028-.04.056-.06.095-2.57 3.894-6.04 7.274-10.34 9.879l-.22.134-.43.249c-.16.098-.33.186-.49.285-.07.041-.16.085-.23.127l-.73.391-.05.013c-3.46 1.798-7.3 3.054-11.43 3.716l-.09.024c-.22.033-.44.069-.66.091l-.38.053c-.11.019-.24.028-.34.044l-.7.079a1.33 1.33 0 0 0-.06.016c-4.03.422-8.15.271-12.25-.419l-186.094-28.956c-4.104-.586-8.225-1.72-12.249-3.398l-.054-.02a14.44 14.44 0 0 1-.698-.305l-.341-.149-.385-.171-.647-.295c-.04-.012-.074-.037-.114-.05-4.615-2.18-8.868-5.006-12.611-8.327-.077-.07-.155-.14-.227-.2l-.643-.59-.511-.477a5.02 5.02 0 0 1-.265-.259c-3.624-3.487-6.592-7.346-8.883-11.403-.045-.101-.111-.197-.167-.295l-.337-.624-.433-.836-.063-.142c-2.421-4.78-3.971-9.909-4.443-15.16-.005-.089-.017-.165-.022-.254-.023-.253-.041-.497-.053-.753l-.032-.478-.018-.424a41.57 41.57 0 0 1-.038-1.762c.025-3.28.492-6.516 1.416-9.6.012-.025.013-.048.018-.061.166-.573.356-1.142.562-1.703.024-.074.048-.148.086-.214.065-.186.135-.362.21-.551.041-.112.082-.225.128-.327.052-.137.115-.278.167-.416.057-.127.114-.255.161-.38l.086-.191c.154-.345.318-.692.486-1.029.017-.038.045-.079.062-.118l.292-.572c.011-.025.022-.051.044-.079 1.203-2.31 2.681-4.442 4.386-6.373l94.094-109.524c8.12-9.438 20.89-13.377 34-11.749.04.002.07.004.11.017.3.047.6.082.89.12z"/><path id="N" d="M-15.944 297.363l-.506-.121-.506-.122-.893-.229c-.038-.015-.075-.02-.111-.025-13.039-3.424-24.474-11.978-30.134-23.974l-65.684-139.071c-1.683-3.453-2.838-7.109-3.378-10.855l-.023-.09c-.028-.203-.056-.406-.075-.62a4.09 4.09 0 0 1-.046-.365c-.016-.112-.019-.215-.036-.326l-.06-.653-.013-.05c-.323-3.944.031-7.824 1.029-11.54l.015-.033c.071-.269.142-.538.227-.799.027-.077.043-.151.07-.228l.174-.553c.054-.153.097-.304.151-.457.036-.088.06-.174.096-.262 1.617-4.708 4.234-8.902 7.586-12.481a1.16 1.16 0 0 0 .117-.131c.109-.12.229-.241.341-.35l.386-.399a.52.52 0 0 0 .083-.085c3.505-3.478 7.824-6.394 12.845-8.503l.251-.11.506-.199c.189-.08.38-.149.568-.229l.264-.101.838-.31.056-.008c3.967-1.416 8.224-2.285 12.639-2.567l.101-.015c.229-.013.468-.028.699-.031l.401-.018c.126-.008.254-.007.368-.013l.738-.016.067-.01c4.263-.063 8.502.425 12.591 1.422l186.419 43.039c4.123.898 8.146 2.319 11.949 4.248l.052.023a12.8 12.8 0 0 1 .656.347l.321.17.362.194.606.335c.039.015.068.041.107.056 4.307 2.454 8.099 5.491 11.258 8.953.064.073.129.146.192.209l.537.613.427.496a4.05 4.05 0 0 1 .218.267c2.998 3.61 5.237 7.518 6.732 11.558.025.1.073.196.109.294.075.206.151.412.215.62l.267.829.035.14c1.474 4.735 1.97 9.73 1.323 14.749-.013.084-.018.157-.031.242a18.09 18.09 0 0 1-.108.719l-.071.456-.072.403c-.101.564-.216 1.118-.342 1.675-.735 3.108-1.918 6.138-3.541 8.985-.017.024-.023.045-.032.057a27.23 27.23 0 0 1-.949 1.568c-.041.068-.082.136-.136.196-.108.171-.218.332-.337.505a5.37 5.37 0 0 1-.202.299c-.084.126-.18.254-.264.38-.086.116-.173.233-.248.347l-.13.175c-.234.314-.479.629-.727.935-.025.035-.063.071-.089.106l-.425.518c-.018.023-.035.047-.063.072-1.746 2.089-3.736 3.987-5.918 5.676L22.805 289.28c-10.446 8.272-24.521 10.938-37.745 8.296-.036-.005-.072-.01-.111-.025-.296-.07-.601-.128-.894-.188z"/><path id="O" d="M1441.68 435.185l.53.054.52.053.93.11a.54.54 0 0 0 .12.01c13.6 1.667 26.12 8.523 33.14 19.459l81.5 126.771c2.07 3.141 3.64 6.546 4.58 10.118.01.028.03.056.04.084.05.194.1.387.14.593.03.115.06.231.08.349.03.106.05.206.08.312.04.206.08.421.13.627 0 .019.01.037.01.047a31.6 31.6 0 0 1 .19 11.344l-.01.034c-.05.271-.09.541-.15.806-.02.077-.03.152-.04.23l-.12.559c-.04.156-.07.308-.11.463-.02.091-.04.178-.07.268-1.14 4.78-3.35 9.189-6.37 13.093-.03.041-.07.093-.1.143-.1.13-.21.263-.31.384-.12.145-.23.291-.35.436-.03.028-.05.056-.08.093-3.18 3.826-7.26 7.209-12.13 9.898l-.24.139-.5.258c-.18.101-.37.193-.55.295a6.26 6.26 0 0 1-.26.132l-.81.408-.06.015c-3.88 1.881-8.1 3.267-12.56 4.104-.03.009-.06.018-.1.027l-.7.12-.41.068c-.13.024-.26.039-.37.06l-.75.11c-.02.006-.04.012-.07.018-4.32.604-8.67.669-12.93.221l-193.83-18.085c-4.28-.349-8.52-1.217-12.58-2.607l-.06-.016c-.24-.079-.47-.162-.7-.254l-.35-.124-.38-.143-.66-.247c-.04-.01-.07-.032-.11-.041-4.63-1.836-8.81-4.304-12.38-7.266-.08-.063-.15-.126-.22-.179l-.61-.528c-.17-.141-.32-.285-.49-.427-.09-.078-.17-.15-.25-.232-3.42-3.126-6.11-6.639-8.06-10.373-.04-.094-.1-.182-.14-.272-.1-.191-.2-.382-.29-.575l-.36-.772c-.02-.047-.03-.084-.05-.131-2-4.414-3.03-9.204-2.91-14.163v-.24l.04-.713c0-.146.02-.305.02-.451l.03-.401c.04-.56.1-1.114.17-1.671a32.46 32.46 0 0 1 2.64-9.182c.01-.025.02-.046.02-.059a36.05 36.05 0 0 1 .8-1.644c.03-.072.07-.143.12-.208a16.24 16.24 0 0 1 .28-.534l.18-.316c.07-.133.15-.27.23-.403.07-.124.15-.248.21-.369.04-.062.08-.124.11-.186l.64-1.001c.02-.037.06-.078.08-.115l.38-.558c.01-.024.03-.049.05-.077 1.55-2.252 3.37-4.35 5.41-6.269l112.7-108.693c9.73-9.367 23.73-13.75 37.44-12.867.03 0 .07 0 .11.01.31.03.62.048.93.069z"/><path id="P" d="M1306.12 128.39l-.25-.396c-.07-.139-.16-.256-.24-.396l-.41-.708c-.01-.033-.03-.059-.06-.085-5.96-10.385-6.2-22.924.68-33.926l79.64-127.597c1.94-3.201 4.43-6.193 7.43-8.851l.06-.07.51-.431c.1-.087.19-.174.3-.255.09-.079.18-.145.27-.224l.54-.442c.02-.016.03-.031.04-.039 3.33-2.642 7.07-4.815 11.1-6.479l.04-.011.88-.35c.09-.03.17-.066.26-.096l.61-.232c.18-.06.35-.126.52-.186.1-.032.2-.07.3-.101 5.37-1.884 10.96-2.816 16.51-2.902a1.81 1.81 0 0 0 .2-.007 12.93 12.93 0 0 1 .55-.001l.63-.001c.04.003.08.005.13 0 5.56.074 11.19 1.011 16.57 2.892l.28.091.53.198.6.219c.09.033.18.072.27.105l.86.339.05.03c4.03 1.641 7.76 3.803 11.08 6.429l.09.055c.17.137.35.28.51.424l.29.243c.1.075.19.157.27.225l.53.458c.02.012.04.024.05.036 3.02 2.664 5.52 5.655 7.46 8.864l90.64 144.822c2.05 3.17 3.56 6.599 4.47 10.203l.01.047c.06.212.1.418.14.631.03.103.05.206.07.308.03.117.05.234.08.35l.12.591c.01.034.01.069.02.103a31.6 31.6 0 0 1-.25 12.672c-.02.086-.04.172-.05.251l-.18.72-.15.576c-.03.108-.05.202-.09.304-1.17 4.132-3.13 7.968-5.73 11.412-.08.078-.13.167-.19.251l-.41.519-.56.682-.11.109c-3.24 3.861-7.39 7.261-12.36 9.953-.08.044-.15.086-.24.13a22.11 22.11 0 0 1-.72.376l-.46.236-.41.204a55.65 55.65 0 0 1-1.75.818c-3.31 1.455-6.86 2.577-10.55 3.307-.03.004-.05.013-.07.015-.68.14-1.38.26-2.07.367a1.92 1.92 0 0 1-.27.035c-.23.037-.45.067-.69.098-.14.022-.28.043-.41.056-.17.025-.35.044-.53.068-.16.017-.33.034-.48.057l-.25.026a46.57 46.57 0 0 1-1.34.117c-.05.005-.11.004-.16.009l-.76.05c-.04.004-.07.007-.11.005-3.1.184-6.19.095-9.22-.246l-170.49-17.476c-14.7-1.513-26.87-8.792-33.67-18.811-.02-.026-.04-.052-.05-.086l-.45-.683z"/><linearGradient id="Q" gradientUnits="userSpaceOnUse"/></defs></svg>