<svg width="234" height="189" viewBox="0 0 234 189" fill="none" xmlns="http://www.w3.org/2000/svg">
<path d="M117.076 0.000909161C116.931 -0.00115386 116.789 0.000909161 116.645 0.000909161C116.5 0.000909161 116.358 -0.00115386 116.214 0.000909161C115.958 0.00297219 115.704 0.0112172 115.448 0.0194693C115.415 0.0215324 115.384 0.0215344 115.351 0.0215344C104.155 0.411446 93.2778 5.90322 86.4141 15.8264L6.78118 130.941C4.75798 133.786 3.13075 136.932 1.97788 140.297C1.96756 140.324 1.95931 140.351 1.949 140.379C1.88713 140.563 1.82733 140.749 1.76752 140.934C1.73246 141.044 1.69534 141.151 1.66234 141.26C1.6314 141.357 1.60459 141.456 1.57366 141.555C1.51385 141.753 1.45403 141.952 1.39628 142.15C1.39216 142.166 1.38803 142.183 1.38184 142.199C0.365086 145.791 -0.0824426 149.477 0.0124272 153.137C0.0124272 153.15 0.0124272 153.16 0.0124272 153.172C0.0186144 153.436 0.0289188 153.703 0.0433555 153.967C0.0474803 154.043 0.0495527 154.119 0.0536775 154.194C0.0639895 154.377 0.0763603 154.563 0.0887346 154.746C0.0990465 154.899 0.109353 155.05 0.121727 155.202C0.129977 155.291 0.138223 155.38 0.144411 155.468C0.558951 160.187 1.86651 164.649 3.8959 168.686C3.92065 168.734 3.94334 168.783 3.96809 168.833C4.03615 168.969 4.10833 169.103 4.17845 169.237C4.25682 169.388 4.33519 169.54 4.41769 169.691C4.43418 169.722 4.45275 169.753 4.46925 169.784C6.63682 173.77 9.57366 177.4 13.2344 180.439C13.2963 180.491 13.3581 180.542 13.42 180.594C13.5438 180.695 13.6675 180.794 13.7933 180.893C13.9315 181.005 14.0697 181.114 14.2099 181.223C14.2759 181.273 14.3398 181.324 14.4058 181.374C14.61 181.531 14.8183 181.685 15.0266 181.838C15.041 181.848 15.0555 181.859 15.0699 181.869C18.0129 184.021 21.288 185.747 24.8044 186.952C24.8312 186.961 24.856 186.971 24.8828 186.979C25.0684 187.043 25.2561 187.103 25.4417 187.163C25.5489 187.198 25.6562 187.233 25.7634 187.268C25.8624 187.299 25.9635 187.328 26.0625 187.357C26.2584 187.416 26.4564 187.476 26.6523 187.532C26.6709 187.536 26.6874 187.542 26.7059 187.546C30.1377 188.518 33.6603 188.972 37.1602 188.927H196.117C199.621 188.972 203.147 188.518 206.583 187.544C206.598 187.54 206.612 187.536 206.627 187.532C206.827 187.474 207.027 187.414 207.227 187.353C207.324 187.324 207.419 187.297 207.516 187.266C207.627 187.231 207.738 187.194 207.848 187.159C208.031 187.099 208.215 187.041 208.396 186.979C208.427 186.969 208.458 186.956 208.489 186.946C212.44 185.591 216.089 183.579 219.302 181.042C219.368 180.99 219.432 180.937 219.498 180.885C219.684 180.736 219.867 180.588 220.049 180.435C220.197 180.311 220.344 180.188 220.49 180.062C220.566 179.996 220.643 179.93 220.719 179.864C223.829 177.153 226.388 174.005 228.366 170.574C228.414 170.491 228.461 170.407 228.511 170.322C228.61 170.147 228.709 169.972 228.806 169.794C228.933 169.559 229.059 169.322 229.183 169.084C229.204 169.045 229.224 169.008 229.245 168.969C231.344 164.882 232.699 160.352 233.132 155.553C233.139 155.477 233.147 155.398 233.153 155.322C233.172 155.093 233.19 154.862 233.205 154.631C233.215 154.484 233.225 154.34 233.231 154.194C233.238 154.064 233.244 153.931 233.248 153.799C233.273 153.257 233.287 152.714 233.287 152.172C233.287 149.123 232.908 146.063 232.136 143.061C232.13 143.041 232.126 143.018 232.12 142.997C231.975 142.443 231.821 141.89 231.65 141.339C231.627 141.269 231.604 141.196 231.582 141.126C231.524 140.947 231.466 140.765 231.406 140.586C231.369 140.476 231.334 140.369 231.297 140.26C231.249 140.124 231.202 139.988 231.153 139.851C231.107 139.726 231.062 139.598 231.016 139.472C230.994 139.408 230.967 139.344 230.944 139.28C230.814 138.935 230.68 138.593 230.54 138.255C230.524 138.215 230.507 138.176 230.493 138.137C230.412 137.943 230.33 137.751 230.247 137.559C230.235 137.533 230.224 137.508 230.212 137.481C229.197 135.166 227.954 132.973 226.506 130.937L146.871 15.8223C140.005 5.8991 129.128 0.407316 117.934 0.0174043C117.901 0.0153413 117.87 0.0153519 117.837 0.0153519C117.585 0.0112258 117.331 0.00297219 117.076 0.000909161Z" fill="url(#paint0_linear_1334_3447)" fill-opacity="0.5"/>
<path d="M117.076 0.000909161C116.931 -0.00115386 116.789 0.000909161 116.645 0.000909161C116.5 0.000909161 116.358 -0.00115386 116.214 0.000909161C115.958 0.00297219 115.704 0.0112172 115.448 0.0194693C115.415 0.0215324 115.384 0.0215344 115.351 0.0215344C104.155 0.411446 93.2778 5.90322 86.4141 15.8264L6.78118 130.941C4.75798 133.786 3.13075 136.932 1.97788 140.297C1.96756 140.324 1.95931 140.351 1.949 140.379C1.88713 140.563 1.82733 140.749 1.76752 140.934C1.73246 141.044 1.69534 141.151 1.66234 141.26C1.6314 141.357 1.60459 141.456 1.57366 141.555C1.51385 141.753 1.45403 141.952 1.39628 142.15C1.39216 142.166 1.38803 142.183 1.38184 142.199C0.365086 145.791 -0.0824426 149.477 0.0124272 153.137C0.0124272 153.15 0.0124272 153.16 0.0124272 153.172C0.0186144 153.436 0.0289188 153.703 0.0433555 153.967C0.0474803 154.043 0.0495527 154.119 0.0536775 154.194C0.0639895 154.377 0.0763603 154.563 0.0887346 154.746C0.0990465 154.899 0.109353 155.05 0.121727 155.202C0.129977 155.291 0.138223 155.38 0.144411 155.468C0.558951 160.187 1.86651 164.649 3.8959 168.686C3.92065 168.734 3.94334 168.783 3.96809 168.833C4.03615 168.969 4.10833 169.103 4.17845 169.237C4.25682 169.388 4.33519 169.54 4.41769 169.691C4.43418 169.722 4.45275 169.753 4.46925 169.784C6.63682 173.77 9.57366 177.4 13.2344 180.439C13.2963 180.491 13.3581 180.542 13.42 180.594C13.5438 180.695 13.6675 180.794 13.7933 180.893C13.9315 181.005 14.0697 181.114 14.2099 181.223C14.2759 181.273 14.3398 181.324 14.4058 181.374C14.61 181.531 14.8183 181.685 15.0266 181.838C15.041 181.848 15.0555 181.859 15.0699 181.869C18.0129 184.021 21.288 185.747 24.8044 186.952C24.8312 186.961 24.856 186.971 24.8828 186.979C25.0684 187.043 25.2561 187.103 25.4417 187.163C25.5489 187.198 25.6562 187.233 25.7634 187.268C25.8624 187.299 25.9635 187.328 26.0625 187.357C26.2584 187.416 26.4564 187.476 26.6523 187.532C26.6709 187.536 26.6874 187.542 26.7059 187.546C30.1377 188.518 33.6603 188.972 37.1602 188.927H196.117C199.621 188.972 203.147 188.518 206.583 187.544C206.598 187.54 206.612 187.536 206.627 187.532C206.827 187.474 207.027 187.414 207.227 187.353C207.324 187.324 207.419 187.297 207.516 187.266C207.627 187.231 207.738 187.194 207.848 187.159C208.031 187.099 208.215 187.041 208.396 186.979C208.427 186.969 208.458 186.956 208.489 186.946C212.44 185.591 216.089 183.579 219.302 181.042C219.368 180.99 219.432 180.937 219.498 180.885C219.684 180.736 219.867 180.588 220.049 180.435C220.197 180.311 220.344 180.188 220.49 180.062C220.566 179.996 220.643 179.93 220.719 179.864C223.829 177.153 226.388 174.005 228.366 170.574C228.414 170.491 228.461 170.407 228.511 170.322C228.61 170.147 228.709 169.972 228.806 169.794C228.933 169.559 229.059 169.322 229.183 169.084C229.204 169.045 229.224 169.008 229.245 168.969C231.344 164.882 232.699 160.352 233.132 155.553C233.139 155.477 233.147 155.398 233.153 155.322C233.172 155.093 233.19 154.862 233.205 154.631C233.215 154.484 233.225 154.34 233.231 154.194C233.238 154.064 233.244 153.931 233.248 153.799C233.273 153.257 233.287 152.714 233.287 152.172C233.287 149.123 232.908 146.063 232.136 143.061C232.13 143.041 232.126 143.018 232.12 142.997C231.975 142.443 231.821 141.89 231.65 141.339C231.627 141.269 231.604 141.196 231.582 141.126C231.524 140.947 231.466 140.765 231.406 140.586C231.369 140.476 231.334 140.369 231.297 140.26C231.249 140.124 231.202 139.988 231.153 139.851C231.107 139.726 231.062 139.598 231.016 139.472C230.994 139.408 230.967 139.344 230.944 139.28C230.814 138.935 230.68 138.593 230.54 138.255C230.524 138.215 230.507 138.176 230.493 138.137C230.412 137.943 230.33 137.751 230.247 137.559C230.235 137.533 230.224 137.508 230.212 137.481C229.197 135.166 227.954 132.973 226.506 130.937L146.871 15.8223C140.005 5.8991 129.128 0.407316 117.934 0.0174043C117.901 0.0153413 117.87 0.0153519 117.837 0.0153519C117.585 0.0112258 117.331 0.00297219 117.076 0.000909161Z" fill="url(#paint1_linear_1334_3447)" fill-opacity="0.5"/>
<defs>
<linearGradient id="paint0_linear_1334_3447" x1="-73.5459" y1="31.9317" x2="230.788" y2="259.62" gradientUnits="userSpaceOnUse">
<stop stop-color="#2862CC"/>
<stop offset="0.470111" stop-color="#2862CC" stop-opacity="0"/>
</linearGradient>
<linearGradient id="paint1_linear_1334_3447" x1="72.6415" y1="269.343" x2="124.97" y2="-180.025" gradientUnits="userSpaceOnUse">
<stop stop-color="#2862CC"/>
<stop offset="0.470111" stop-color="#2862CC" stop-opacity="0"/>
</linearGradient>
</defs>
</svg>
