<svg xmlns="http://www.w3.org/2000/svg" width="198" height="55" fill="none" xmlns:v="https://vecta.io/nano"><rect width="198" height="55" rx="27.5" fill="#2862cc"/><path d="M26.813 27.662H23.18l-.02-1.894h3.115c.534 0 .98-.075 1.338-.225s.628-.368.811-.654c.189-.287.283-.635.283-1.045 0-.456-.088-.827-.264-1.113-.169-.287-.436-.495-.801-.625-.365-.137-.827-.205-1.387-.205h-2.207V34h-2.686V19.781h4.893c.807 0 1.527.078 2.158.234.638.15 1.178.384 1.621.703a3.09 3.09 0 0 1 1.006 1.201c.234.482.352 1.055.352 1.719 0 .586-.137 1.126-.41 1.621-.267.488-.68.885-1.24 1.191-.553.306-1.256.482-2.109.527l-.82.684zM26.695 34h-4.307l1.123-2.109h3.184c.534 0 .973-.088 1.318-.264a1.76 1.76 0 0 0 .781-.723c.176-.312.264-.671.264-1.074 0-.443-.078-.827-.234-1.152-.15-.326-.391-.576-.723-.752-.326-.176-.755-.264-1.289-.264H24.02l.02-1.894h3.555l.615.732c.82.006 1.488.169 2.002.488a2.98 2.98 0 0 1 1.152 1.231c.247.501.371 1.042.371 1.621 0 .912-.199 1.677-.596 2.295-.391.619-.964 1.084-1.719 1.396-.749.313-1.657.469-2.725.469zm6.709-5.176v-.205c0-.775.111-1.488.332-2.139.221-.658.544-1.227.967-1.709s.941-.856 1.553-1.123c.612-.273 1.309-.41 2.09-.41.794 0 1.497.137 2.109.41.618.267 1.139.641 1.563 1.123s.745 1.051.967 1.709c.221.651.332 1.364.332 2.139v.205c0 .768-.111 1.481-.332 2.139-.221.651-.544 1.221-.967 1.709-.423.482-.941.856-1.553 1.123s-1.312.4-2.1.4c-.781 0-1.481-.134-2.1-.4s-1.139-.641-1.562-1.123c-.423-.488-.745-1.058-.967-1.709-.221-.658-.332-1.37-.332-2.139zm2.578-.205v.205a5.89 5.89 0 0 0 .137 1.299c.091.404.231.758.42 1.064s.433.547.732.723c.306.169.671.254 1.094.254.417 0 .775-.085 1.074-.254.299-.176.544-.417.732-.723.195-.306.338-.661.43-1.064a5.89 5.89 0 0 0 .137-1.299v-.205c0-.456-.046-.882-.137-1.279-.091-.404-.234-.758-.43-1.064a2.05 2.05 0 0 0-.742-.732c-.299-.182-.661-.273-1.084-.273-.417 0-.775.091-1.074.273-.3.176-.544.42-.732.732-.189.306-.329.661-.42 1.064-.091.397-.137.824-.137 1.279zm8.75.205v-.205c0-.775.111-1.488.332-2.139.221-.658.544-1.227.967-1.709s.941-.856 1.553-1.123c.612-.273 1.309-.41 2.09-.41.794 0 1.497.137 2.109.41.618.267 1.139.641 1.563 1.123s.745 1.051.967 1.709c.221.651.332 1.364.332 2.139v.205c0 .768-.111 1.481-.332 2.139-.221.651-.544 1.221-.967 1.709-.423.482-.941.856-1.553 1.123s-1.312.4-2.1.4c-.781 0-1.481-.134-2.1-.4s-1.139-.641-1.563-1.123a5.07 5.07 0 0 1-.967-1.709c-.221-.658-.332-1.37-.332-2.139zm2.578-.205v.205c0 .462.046.895.137 1.299s.231.758.42 1.064.433.547.732.723c.306.169.671.254 1.094.254.417 0 .775-.085 1.074-.254.3-.176.544-.417.732-.723.195-.306.339-.661.43-1.064a5.89 5.89 0 0 0 .137-1.299v-.205c0-.456-.046-.882-.137-1.279-.091-.404-.234-.758-.43-1.064a2.05 2.05 0 0 0-.742-.732c-.3-.182-.661-.273-1.084-.273-.417 0-.775.091-1.074.273-.3.176-.544.42-.732.732-.189.306-.329.661-.42 1.064-.091.397-.137.824-.137 1.279zm11.787-9.629V34H56.52V18.99h2.578zm6.621 4.443l-4.6 5.166-2.49 2.529-.82-2.002 1.924-2.422 2.871-3.272h3.115zM63.082 34l-3.272-4.922 1.719-1.67L66.07 34h-2.988zm14.805-2.246v-4.873c0-.358-.062-.667-.186-.928a1.34 1.34 0 0 0-.566-.605c-.254-.143-.576-.215-.967-.215-.345 0-.648.059-.908.176a1.34 1.34 0 0 0-.586.498c-.137.208-.205.449-.205.723h-2.588c0-.436.104-.85.313-1.24.208-.397.505-.749.889-1.055.391-.312.856-.557 1.397-.732.547-.176 1.159-.264 1.836-.264.801 0 1.514.137 2.139.41.631.267 1.126.671 1.484 1.211.365.54.547 1.221.547 2.041v4.609c0 .527.033.98.098 1.357.072.371.176.693.313.967V34h-2.627c-.124-.267-.218-.605-.283-1.016-.065-.417-.098-.827-.098-1.23zm.361-4.189l.02 1.533h-1.631c-.404 0-.758.042-1.064.127-.306.078-.557.195-.752.352-.195.15-.342.332-.439.547a1.66 1.66 0 0 0-.147.713 1.41 1.41 0 0 0 .176.703c.124.208.299.374.527.498.234.117.508.176.82.176.456 0 .853-.091 1.191-.273.339-.189.602-.417.791-.684s.29-.521.303-.762l.742 1.113a4.37 4.37 0 0 1-.41.85 3.83 3.83 0 0 1-.703.84c-.286.26-.631.475-1.035.645s-.872.254-1.406.254c-.684 0-1.296-.137-1.836-.41s-.967-.648-1.279-1.123-.469-1.016-.469-1.621c0-.56.104-1.055.313-1.484s.518-.791.928-1.084c.41-.299.918-.524 1.523-.674.612-.156 1.312-.234 2.1-.234h1.738zM91.168 34H88.57V22.457c0-.794.153-1.462.459-2.002.306-.547.742-.96 1.309-1.24s1.234-.42 2.002-.42c.254 0 .495.016.723.049.234.032.466.078.693.137l-.049 1.963a2.44 2.44 0 0 0-.41-.068l-.478-.02c-.352 0-.651.062-.898.186a1.28 1.28 0 0 0-.566.547c-.124.234-.185.524-.185.869V34zm2.139-10.566v1.856h-6.328v-1.856h6.328zm4.17 2.158V34h-2.578V23.434h2.441l.137 2.158zm3.212-2.227l-.039 2.402a4.55 4.55 0 0 0-.488-.059l-.498-.02c-.397 0-.746.055-1.045.166a1.95 1.95 0 0 0-.752.459c-.195.202-.345.449-.449.742a3.18 3.18 0 0 0-.176.977l-.557-.068c0-.671.068-1.292.205-1.865s.335-1.074.596-1.504.586-.762.977-.996c.397-.241.853-.361 1.367-.361a2.92 2.92 0 0 1 .459.039c.169.02.303.049.4.088zm5.967 10.83c-.801 0-1.52-.13-2.158-.391s-1.182-.622-1.631-1.084a4.98 4.98 0 0 1-1.025-1.631c-.235-.625-.352-1.296-.352-2.012v-.391c0-.814.117-1.553.352-2.217a5.07 5.07 0 0 1 .996-1.729c.43-.482.944-.853 1.543-1.113a4.92 4.92 0 0 1 1.982-.391c.749 0 1.41.127 1.983.381a3.83 3.83 0 0 1 1.435 1.055c.384.456.674 1.003.869 1.641.196.632.293 1.331.293 2.1v1.084h-8.281v-1.777h5.742v-.195c-.013-.41-.091-.785-.234-1.123-.143-.345-.365-.618-.664-.82-.3-.208-.687-.312-1.162-.312-.384 0-.72.085-1.006.254a2.02 2.02 0 0 0-.703.703c-.183.299-.319.657-.41 1.074s-.137.879-.137 1.387v.391c0 .443.058.853.176 1.23.123.378.302.706.537.986a2.62 2.62 0 0 0 .859.645c.339.15.723.225 1.152.225.541 0 1.029-.104 1.465-.312.443-.215.827-.531 1.153-.947l1.299 1.348a4.32 4.32 0 0 1-.899.938c-.371.299-.82.544-1.348.732-.527.182-1.136.273-1.826.273zm10.762 0c-.801 0-1.52-.13-2.158-.391s-1.182-.622-1.631-1.084c-.443-.469-.785-1.012-1.025-1.631-.235-.625-.352-1.296-.352-2.012v-.391c0-.814.117-1.553.352-2.217a5.07 5.07 0 0 1 .996-1.729c.429-.482.944-.853 1.543-1.113s1.259-.391 1.982-.391c.749 0 1.41.127 1.982.381.573.247 1.052.599 1.436 1.055s.674 1.003.869 1.641c.195.632.293 1.331.293 2.1v1.084h-8.281v-1.777h5.742v-.195c-.013-.41-.091-.785-.234-1.123-.144-.345-.365-.618-.664-.82-.3-.208-.687-.312-1.163-.312-.384 0-.719.085-1.005.254-.28.163-.515.397-.704.703-.182.299-.319.657-.41 1.074s-.136.879-.136 1.387v.391a4.14 4.14 0 0 0 .175 1.23 2.96 2.96 0 0 0 .537.986c.241.274.528.488.86.645a2.82 2.82 0 0 0 1.152.225c.541 0 1.029-.104 1.465-.312.443-.215.827-.531 1.152-.947l1.299 1.348c-.221.325-.521.638-.898.938-.371.299-.821.544-1.348.732-.527.182-1.136.273-1.826.273zm17.334-2.441V19h2.598v15h-2.344l-.254-2.246zm-6.787-2.91v-.205c0-.807.091-1.54.273-2.197.189-.664.463-1.234.821-1.709s.791-.843 1.298-1.103c.515-.26 1.097-.391 1.748-.391.632 0 1.182.127 1.651.381.475.254.879.615 1.211 1.084.338.469.609 1.025.81 1.67.202.638.349 1.341.44 2.109v.557c-.091.749-.238 1.435-.44 2.06a5.84 5.84 0 0 1-.81 1.641 3.53 3.53 0 0 1-1.211 1.074c-.475.254-1.032.381-1.67.381-.645 0-1.224-.134-1.738-.4a3.82 3.82 0 0 1-1.299-1.123c-.352-.482-.622-1.048-.811-1.699-.182-.651-.273-1.361-.273-2.129zm2.588-.205v.205c0 .456.039.882.117 1.279s.205.749.381 1.055c.176.299.4.534.674.703.28.169.618.254 1.015.254.508 0 .925-.111 1.25-.332a2.26 2.26 0 0 0 .772-.928 4.26 4.26 0 0 0 .351-1.338v-1.533c-.026-.391-.094-.752-.205-1.084-.104-.332-.254-.618-.449-.859-.189-.241-.423-.43-.703-.566s-.612-.205-.996-.205c-.397 0-.736.088-1.016.264-.28.169-.508.407-.683.713s-.306.661-.391 1.065a6.9 6.9 0 0 0-.117 1.309zm13.877 5.557c-.801 0-1.52-.13-2.159-.391s-1.181-.622-1.63-1.084a4.98 4.98 0 0 1-1.026-1.631 5.69 5.69 0 0 1-.351-2.012v-.391c0-.814.117-1.553.351-2.217.235-.671.567-1.247.996-1.729s.944-.853 1.543-1.113 1.26-.391 1.983-.391c.748 0 1.409.127 1.982.381.573.247 1.052.599 1.436 1.055s.674 1.003.869 1.641c.195.632.293 1.331.293 2.1v1.084h-8.281v-1.777h5.742v-.195c-.013-.41-.091-.785-.235-1.123a1.79 1.79 0 0 0-.664-.82c-.299-.208-.687-.312-1.162-.312-.384 0-.719.085-1.006.254a2.02 2.02 0 0 0-.703.703c-.182.299-.319.657-.41 1.074a6.51 6.51 0 0 0-.137 1.387v.391a4.14 4.14 0 0 0 .176 1.23 2.96 2.96 0 0 0 .537.986c.241.274.528.488.86.645.338.15.722.225 1.152.225.54 0 1.029-.104 1.465-.312.442-.215.827-.531 1.152-.947l1.299 1.348c-.221.325-.521.638-.898.938s-.821.544-1.348.732c-.527.182-1.136.273-1.826.273zm8.584-8.594V34h-2.578V23.434h2.431l.147 2.168zm-.381 2.734h-.791c0-.736.088-1.413.263-2.031a4.88 4.88 0 0 1 .801-1.611 3.64 3.64 0 0 1 1.299-1.074c.521-.254 1.123-.381 1.807-.381a3.83 3.83 0 0 1 1.308.215 2.55 2.55 0 0 1 1.026.654c.293.293.517.677.674 1.152.156.469.234 1.032.234 1.689V34h-2.578v-6.787c0-.495-.072-.882-.215-1.162-.137-.28-.335-.475-.596-.586-.26-.117-.573-.176-.937-.176-.404 0-.752.081-1.045.244-.287.156-.524.374-.713.654-.182.28-.319.602-.41.967a5.2 5.2 0 0 0-.127 1.182zm6.426-.479l-1.065.195a6.63 6.63 0 0 1 .274-1.865c.175-.586.433-1.097.771-1.533.345-.443.772-.788 1.279-1.035.515-.254 1.107-.381 1.778-.381.521 0 .989.075 1.406.225.423.143.784.374 1.084.693.299.313.527.72.684 1.221s.244 1.113.244 1.836V34h-2.598v-6.797c0-.514-.072-.908-.215-1.182a1.12 1.12 0 0 0-.596-.566c-.26-.111-.566-.166-.917-.166a2.03 2.03 0 0 0-.938.205 1.92 1.92 0 0 0-.664.547c-.176.234-.309.508-.4.82a3.71 3.71 0 0 0-.127.996zm8.31.967v-.205c0-.775.111-1.488.332-2.139.222-.658.544-1.227.967-1.709s.941-.856 1.553-1.123c.612-.273 1.308-.41 2.09-.41.794 0 1.497.137 2.109.41.618.267 1.139.641 1.562 1.123a4.93 4.93 0 0 1 .967 1.709c.222.651.332 1.364.332 2.139v.205c0 .768-.11 1.481-.332 2.139-.221.651-.543 1.221-.967 1.709-.423.482-.94.856-1.552 1.123s-1.312.4-2.1.4c-.781 0-1.481-.134-2.1-.4s-1.139-.641-1.562-1.123c-.423-.488-.745-1.058-.967-1.709-.221-.658-.332-1.37-.332-2.139zm2.578-.205v.205c0 .462.046.895.137 1.299s.231.758.42 1.064.433.547.732.723c.306.169.671.254 1.094.254.417 0 .775-.085 1.074-.254a2.1 2.1 0 0 0 .733-.723c.195-.306.338-.661.429-1.064s.137-.837.137-1.299v-.205a5.66 5.66 0 0 0-.137-1.279c-.091-.404-.234-.758-.429-1.064-.189-.312-.436-.557-.742-.732-.3-.182-.661-.273-1.084-.273-.417 0-.775.091-1.075.273a2.08 2.08 0 0 0-.732.732c-.189.306-.329.661-.42 1.064a5.72 5.72 0 0 0-.137 1.279z" fill="#fff"/></svg>