<svg width="10" height="10" viewBox="0 0 10 10" fill="none" xmlns="http://www.w3.org/2000/svg">
<path d="M7.41864 4.21617L3.56209 1.58395C3.49131 1.53564 3.40135 1.53518 3.33172 1.57537L3.33156 1.57552L3.33126 1.57567C3.32239 1.58079 3.31391 1.58659 3.3058 1.59306L3.30573 1.59313L3.3055 1.59328C3.29006 1.60555 3.27615 1.62023 3.26422 1.63708C3.19688 1.73274 3.22104 1.86399 3.31819 1.93029L7.17482 4.56251C7.21196 4.58787 7.25446 4.60007 7.2965 4.60007C7.3643 4.60007 7.43103 4.56838 7.47261 4.50938C7.53995 4.41373 7.51579 4.28248 7.41864 4.21617Z" fill="#2862CC"/>
<path d="M6.73517 4.67719L2.87823 2.05159C2.78101 1.98536 2.6477 2.00937 2.58052 2.10509C2.51325 2.20082 2.53756 2.33207 2.63479 2.39822L6.4918 5.0239C6.52894 5.04919 6.57129 5.0613 6.61325 5.0613C6.6812 5.0613 6.74801 5.02954 6.78951 4.97039C6.85678 4.87466 6.83239 4.74341 6.73517 4.67719Z" fill="#2862CC"/>
<path d="M8.5 4.74365C8.5 4.74891 8.5 4.75418 8.49992 4.75937C8.49992 4.76397 8.49977 4.76856 8.49969 4.77315C8.49939 4.78888 8.4987 4.80468 8.49778 4.82048C8.4974 4.82711 8.49702 4.83365 8.49648 4.84028C8.49641 4.84118 8.49633 4.84216 8.49633 4.84314C8.4958 4.84961 8.49526 4.85608 8.49473 4.86255C8.4945 4.86451 8.49427 4.86639 8.49419 4.86835C8.49289 4.8819 8.49136 4.89544 8.48968 4.90891C8.48953 4.91004 8.48938 4.91125 8.48922 4.91237C8.48754 4.92524 8.48571 4.93811 8.48364 4.95091C8.48364 4.95113 8.48357 4.95136 8.48357 4.95158C8.42807 5.30146 8.23271 5.62928 7.91359 5.84678L7.14167 6.37276L3.64872 8.75256C3.5732 8.80555 3.49187 8.851 3.40596 8.88803C3.40512 8.8884 3.40428 8.88878 3.40343 8.88908C3.39625 8.89217 3.38899 8.89525 3.38173 8.89819C3.38043 8.89879 3.37913 8.89924 3.37783 8.89977C3.36476 8.90504 3.35161 8.91015 3.33839 8.91505C3.3364 8.9158 3.33441 8.91655 3.33243 8.9173C3.32769 8.91903 3.32295 8.92069 3.31813 8.92235C3.31316 8.92408 3.3082 8.92581 3.30323 8.92754C3.29918 8.92889 3.29505 8.93025 3.291 8.9316C3.28442 8.93379 3.27785 8.93589 3.2712 8.93792C3.26853 8.93875 3.26585 8.93966 3.26318 8.94048C3.24277 8.94665 3.22236 8.95237 3.2018 8.95757C3.20103 8.95779 3.20019 8.95802 3.19935 8.95817C3.08821 8.98631 2.97478 9.00016 2.86189 9.00016C2.84171 9.00016 2.82161 8.99964 2.80151 8.99873C2.79669 8.99851 2.7918 8.99836 2.78698 8.99806C2.78156 8.99783 2.77613 8.99745 2.77078 8.99708C2.76222 8.99655 2.75366 8.99595 2.74517 8.9952C2.74234 8.99497 2.73944 8.99474 2.73661 8.99444C2.55882 8.97864 2.39089 8.92919 2.23948 8.85258C2.23818 8.8519 2.23688 8.85123 2.2355 8.85047C2.22656 8.84596 2.21769 8.84137 2.2089 8.83663C2.2024 8.83309 2.19598 8.82948 2.18949 8.82594C2.18635 8.82413 2.18314 8.8224 2.18001 8.8206C2.17168 8.81586 2.16342 8.81104 2.15517 8.80615C2.15517 8.80615 2.15517 8.80615 2.15517 8.80607C2.03776 8.73608 1.92983 8.64773 1.83605 8.54169C1.83345 8.53883 1.83093 8.53597 1.8284 8.53311C1.82382 8.52784 1.81931 8.52258 1.8148 8.51723C1.80907 8.51038 1.80341 8.50354 1.79775 8.49661C1.79592 8.49435 1.79409 8.49225 1.79233 8.48999C1.69816 8.37251 1.62348 8.23923 1.57326 8.09473C1.57296 8.09383 1.57258 8.09293 1.57227 8.09202C1.5699 8.08518 1.56768 8.07833 1.56547 8.0714C1.56417 8.06757 1.56287 8.06373 1.56165 8.05981C1.5605 8.0562 1.55943 8.05251 1.55828 8.04883C1.55607 8.04168 1.55385 8.03453 1.55178 8.02738C1.55163 8.0267 1.5514 8.02602 1.55125 8.02535C1.51525 7.90012 1.49843 7.77165 1.50011 7.64394V2.41705C1.50011 2.37573 1.5125 2.33389 1.53818 2.29731C1.55247 2.27699 1.56967 2.25991 1.58893 2.24628L1.59428 2.2426C1.64993 2.20565 1.72094 2.19624 1.78507 2.21836C1.80272 2.22446 1.81984 2.23304 1.83597 2.24403L2.09012 2.41727L2.29657 2.55793C2.29665 2.558 2.2968 2.55808 2.29688 2.55815C2.30773 2.56628 2.31874 2.57418 2.33005 2.58186L6.07807 5.13559L6.07868 5.13597L6.60876 5.49713C6.76553 5.60392 6.94859 5.66036 7.13815 5.66036C7.44488 5.66036 7.73205 5.51241 7.90617 5.26458C8.04796 5.06289 8.10147 4.81898 8.05683 4.5777C8.01387 4.34553 7.88508 4.14256 7.69292 4.00333C7.68535 3.99784 7.67771 3.99242 7.66999 3.98715L3.72798 1.30135L3.59322 1.20953L3.59277 1.20915C3.50509 1.14075 3.48537 1.01619 3.54996 0.924378C3.55004 0.924228 3.55019 0.924077 3.55034 0.923927C3.55975 0.910531 3.57037 0.898715 3.58214 0.888179L3.58222 0.888104C3.58275 0.887653 3.58329 0.887126 3.58382 0.886749C3.59697 0.87516 3.61134 0.865451 3.62655 0.857625C3.62708 0.857324 3.62762 0.857023 3.62823 0.856721L3.62854 0.856571C3.69641 0.822479 3.78064 0.825264 3.84775 0.870945L4.10374 1.04532L7.94279 3.66114C7.94997 3.66625 7.95716 3.67145 7.96419 3.67679C7.9674 3.6792 7.97061 3.68161 7.97374 3.68401C7.97688 3.68635 7.98001 3.68875 7.98307 3.69116C7.99851 3.70313 8.01356 3.7154 8.02832 3.72789C8.03351 3.73225 8.03864 3.73669 8.04368 3.74113C8.04383 3.74128 8.04406 3.74144 8.04421 3.74159C8.04918 3.74588 8.054 3.75024 8.05889 3.75461C8.06386 3.75912 8.0689 3.76364 8.0738 3.76823C8.07808 3.77214 8.08228 3.77613 8.08648 3.78019C8.08771 3.78132 8.08893 3.78245 8.09015 3.78358C8.09443 3.78779 8.09871 3.79186 8.10292 3.79607C8.10712 3.80021 8.1114 3.8045 8.11553 3.80872C8.11606 3.80924 8.1166 3.80969 8.11706 3.81022C8.1218 3.81496 8.12646 3.81978 8.13105 3.8246C8.13548 3.82919 8.13984 3.83385 8.14427 3.83859C8.14954 3.84424 8.15474 3.84996 8.15986 3.85568C8.16368 3.85997 8.16751 3.86433 8.17133 3.8687C8.17568 3.87366 8.18004 3.87863 8.18424 3.88367C8.18853 3.88872 8.19281 3.89376 8.19693 3.89888C8.20114 3.90399 8.20526 3.90903 8.20939 3.91423C8.21681 3.92348 8.22407 3.93282 8.23118 3.94222C8.23301 3.94463 8.23485 3.94712 8.23668 3.9496C8.24348 3.95871 8.25013 3.96781 8.25663 3.97707C8.26045 3.98241 8.26412 3.98775 8.26779 3.9931C8.29355 4.0308 8.31724 4.06956 8.3388 4.1093C8.34805 4.1263 8.35691 4.14354 8.3654 4.16085C8.37105 4.17244 8.37648 4.1841 8.38183 4.19577C8.38443 4.20164 8.38703 4.20751 8.38963 4.21345C8.39215 4.21932 8.39467 4.22519 8.39719 4.23114C8.39964 4.23708 8.40209 4.24295 8.40446 4.24898C8.40682 4.25492 8.40919 4.26087 8.41149 4.26681C8.41378 4.27283 8.41607 4.27885 8.41829 4.2848C8.42051 4.29082 8.42265 4.29684 8.42479 4.30286C8.42899 4.31498 8.43312 4.32709 8.43702 4.33928C8.43893 4.34538 8.44084 4.35148 8.44267 4.35757C8.44451 4.36367 8.44634 4.36984 8.4481 4.37594C8.44986 4.38211 8.45162 4.38828 8.4533 4.39445C8.45636 4.40566 8.45926 4.41695 8.46209 4.42832C8.46239 4.42944 8.46262 4.4305 8.46285 4.43155C8.4643 4.43772 8.46576 4.44397 8.46721 4.45014C8.47042 4.46429 8.4734 4.47851 8.47608 4.49274C8.47822 4.5035 8.48013 4.51441 8.48196 4.52525C8.48204 4.5254 8.48204 4.52555 8.48204 4.52562C8.48494 4.54293 8.48746 4.56032 8.48968 4.57778C8.4906 4.58553 8.49152 4.59328 8.49236 4.60103C8.49373 4.61368 8.49496 4.62624 8.49595 4.63889V4.63941C8.49648 4.64566 8.49694 4.65198 8.49732 4.6583C8.49771 4.66425 8.49809 4.67027 8.49832 4.67629C8.49855 4.68058 8.49878 4.68494 8.49893 4.68931C8.49908 4.69172 8.49916 4.69413 8.49924 4.69653C8.49924 4.69729 8.49924 4.69796 8.49931 4.69872C8.49931 4.69924 8.49939 4.69985 8.49931 4.70037C8.49946 4.70496 8.49962 4.70955 8.49969 4.71415C8.49977 4.71874 8.49992 4.72333 8.49992 4.72792C8.5 4.73319 8.5 4.73845 8.5 4.74365Z" fill="#131E41"/>
</svg>
