<svg xmlns="http://www.w3.org/2000/svg" width="46" height="46" fill="none" xmlns:v="https://vecta.io/nano"><rect width="46" height="46" rx="9" fill="#ffeaaf"/><path d="M23.651 13.651A2.22 2.22 0 0 0 23 15.222v1.111a1.11 1.11 0 0 1-1.111 1.111h-3.333a1.11 1.11 0 0 0-1.111 1.111v3.333A1.11 1.11 0 0 1 16.333 23h-1.111A2.22 2.22 0 0 0 13 25.222a2.22 2.22 0 0 0 2.222 2.222h1.111a1.11 1.11 0 0 1 1.111 1.111v3.333A1.11 1.11 0 0 0 18.556 33h3.333A1.11 1.11 0 0 0 23 31.889v-1.111a2.22 2.22 0 0 1 2.222-2.222c.589 0 1.155.234 1.571.651s.651.982.651 1.571v1.111A1.11 1.11 0 0 0 28.556 33h3.333A1.11 1.11 0 0 0 33 31.889v-3.333a1.11 1.11 0 0 0-1.111-1.111h-1.111c-.589 0-1.155-.234-1.571-.651s-.651-.982-.651-1.571A2.22 2.22 0 0 1 30.778 23h1.111A1.11 1.11 0 0 0 33 21.889v-3.333a1.11 1.11 0 0 0-1.111-1.111h-3.333a1.11 1.11 0 0 1-1.111-1.111v-1.111A2.22 2.22 0 0 0 25.222 13a2.22 2.22 0 0 0-1.571.651z" stroke="#ffca36" stroke-width="2.5" stroke-linejoin="round"/></svg>