<svg xmlns="http://www.w3.org/2000/svg" xmlns:xlink="http://www.w3.org/1999/xlink" width="1441" height="610" fill="none" xmlns:v="https://vecta.io/nano"><style><![CDATA[.B{fill-opacity:.5}]]></style><path fill="#e3ebfa" d="M0 0h1441v610H0z"/><mask id="A" maskUnits="userSpaceOnUse" x="0" y="0" width="1441" height="610" mask-type="alpha"><path fill="#e3ebfa" d="M0 0h1441v610H0z"/></mask><g mask="url(#A)" class="B"><use xlink:href="#J" fill="url(#B)"/><use xlink:href="#J" fill="url(#C)"/><use xlink:href="#K" fill="url(#D)"/><use xlink:href="#K" fill="url(#E)"/><use xlink:href="#L" fill="url(#F)"/><use xlink:href="#L" fill="url(#G)"/><use xlink:href="#M" fill="url(#H)"/><use xlink:href="#M" fill="url(#I)"/></g><defs><linearGradient id="B" x1="1190.58" y1="142.502" x2="1204.84" y2="-190.925" xlink:href="#N"><stop stop-color="#fff"/><stop offset=".47" stop-color="#fff" stop-opacity="0"/></linearGradient><linearGradient id="C" x1="1381.92" y1="-77.183" x2="884.426" y2="122.42" xlink:href="#N"><stop stop-color="#fff"/><stop offset=".47" stop-color="#fff" stop-opacity="0"/></linearGradient><linearGradient id="D" x1="989" y1="173.527" x2="798.191" y2="467.811" xlink:href="#N"><stop stop-color="#fff"/><stop offset=".47" stop-color="#fff" stop-opacity="0"/></linearGradient><linearGradient id="E" x1="687" y1="262.86" x2="1201.46" y2="425.378" xlink:href="#N"><stop stop-color="#fff"/><stop offset=".47" stop-color="#fff" stop-opacity="0"/></linearGradient><linearGradient id="F" x1="127.662" y1="209" x2="-122.811" y2="469.009" xlink:href="#N"><stop stop-color="#fff"/><stop offset=".47" stop-color="#fff" stop-opacity="0"/></linearGradient><linearGradient id="G" x1="-188.81" y1="246.099" x2="268.121" y2="510.305" xlink:href="#N"><stop stop-color="#fff"/><stop offset=".47" stop-color="#fff" stop-opacity="0"/></linearGradient><linearGradient id="H" x1="72.582" y1="72.926" x2="86.839" y2="-260.501" xlink:href="#N"><stop stop-color="#fff"/><stop offset=".47" stop-color="#fff" stop-opacity="0"/></linearGradient><linearGradient id="I" x1="263.916" y1="-146.76" x2="-233.574" y2="52.844" xlink:href="#N"><stop stop-color="#fff"/><stop offset=".47" stop-color="#fff" stop-opacity="0"/></linearGradient><path id="J" d="M1281.83 31.084l.28-.307.27-.307.48-.552c.02-.027.04-.047.06-.066 6.93-8.11 9.45-18.832 5.74-29.189l-43.01-120.093c-1.03-3.006-2.56-5.904-4.58-8.585-.01-.023-.03-.046-.04-.069-.11-.144-.22-.289-.35-.437-.06-.087-.12-.175-.2-.258-.06-.08-.12-.148-.18-.228-.12-.148-.25-.304-.38-.452-.01-.015-.01-.031-.02-.038-2.3-2.712-5.02-5.075-8.1-7.042l-.03-.015c-.22-.143-.44-.286-.67-.418-.07-.037-.12-.078-.19-.116l-.48-.282-.4-.228c-.08-.042-.15-.087-.23-.128-4.14-2.332-8.65-3.88-13.28-4.696a1.98 1.98 0 0 1-.17-.032 9.17 9.17 0 0 0-.46-.075l-.53-.085c-.03-.003-.07-.006-.11-.017-4.67-.681-9.55-.629-14.41.264l-.25.042-.48.098-.54.108-.25.053-.79.176-.04.02c-3.68.869-7.21 2.224-10.48 4.032-.02.012-.05.024-.08.036l-.51.295-.29.169c-.09.052-.18.11-.26.158l-.53.322c-.02.008-.03.016-.05.024-3.02 1.882-5.67 4.112-7.89 6.605L1075.61-18.132c-2.3 2.445-4.21 5.183-5.63 8.153l-.02.039c-.09.174-.17.344-.24.522l-.12.255-.12.29c-.07.166-.15.325-.21.491-.02.027-.03.058-.04.085-1.44 3.539-2.15 7.226-2.15 10.902 0 .077.01.154 0 .223.01.211.01.422.02.641 0 .173.01.342.02.515 0 .096.01.18.02.273.21 3.701 1.14 7.253 2.68 10.555.05.076.07.16.11.24.08.168.16.336.25.5.11.221.22.443.34.66a.65.65 0 0 0 .07.107c1.99 3.745 4.84 7.218 8.5 10.191.06.049.11.095.18.144l.53.419c.11.087.24.177.34.264.11.079.21.158.31.23.43.321.87.63 1.31.935 2.5 1.691 5.27 3.128 8.22 4.247.03.007.05.019.06.022.55.212 1.1.407 1.67.592a1.26 1.26 0 0 0 .22.066c.18.063.36.118.56.177a5.42 5.42 0 0 0 .33.103c.14.044.29.084.43.129l.39.114.2.055 1.11.281c.04.011.09.018.13.029l.63.145c.02.007.05.015.09.018a44.43 44.43 0 0 0 7.76 1.023l146.02 7.808c12.59.668 24.13-3.948 31.68-11.632.03-.019.05-.039.07-.066.16-.179.33-.354.5-.526z"/><path id="K" d="M840.624 221.63l-.429.121-.43.12-.756.227c-.032.014-.063.019-.094.025-11.033 3.364-20.137 11.015-23.842 21.374L772.065 363.59c-1.114 2.984-1.745 6.12-1.83 9.312l-.011.076c-.003.173-.007.346-.002.528a3.22 3.22 0 0 0-.002.311c-.003.095.005.182.002.277l.015.555c-.002.017-.005.034-.006.042.125 3.352.835 6.623 2.09 9.734l.016.028c.09.225.18.451.281.668.032.064.053.127.085.19l.208.463c.063.127.117.254.18.381.04.073.07.146.111.219 1.898 3.928 4.616 7.386 7.913 10.296.036.03.081.069.116.107.107.098.225.196.333.285l.379.324c.027.02.055.04.081.068 3.42 2.82 7.493 5.134 12.096 6.741l.23.084.463.151.52.173.241.077.763.232.05.005c3.611 1.057 7.418 1.641 11.303 1.723l.089.009c.201.003.412.007.614.001l.353.001c.11.003.222-.003.322-.002l.646-.012.06.006c3.729-.099 7.381-.664 10.849-1.654l158.361-43.096c3.508-.908 6.874-2.254 9.996-4.023l.043-.021a10.53 10.53 0 0 0 .537-.318l.263-.155.296-.178.495-.304c.032-.014.056-.038.088-.052 3.507-2.231 6.506-4.938 8.907-7.982a4.39 4.39 0 0 1 .146-.184c.135-.177.275-.353.405-.538.11-.145.21-.291.32-.435.06-.08.11-.153.17-.234 2.24-3.164 3.79-6.553 4.68-10.026.01-.086.05-.169.07-.253.04-.177.09-.355.12-.533.05-.237.11-.473.15-.711 0-.043.01-.077.01-.12a28.31 28.31 0 0 0-.36-12.535c-.02-.071-.03-.133-.05-.204l-.17-.605c-.04-.124-.08-.258-.11-.383-.04-.116-.07-.232-.11-.339a24.14 24.14 0 0 0-.47-1.406c-.96-2.605-2.31-5.128-4.02-7.481-.02-.019-.02-.037-.03-.047-.31-.438-.648-.869-.993-1.293a1.01 1.01 0 0 0-.139-.161c-.111-.141-.224-.274-.346-.416-.068-.085-.137-.17-.207-.246-.087-.104-.183-.209-.27-.312-.087-.096-.175-.191-.253-.286l-.131-.143c-.237-.257-.483-.515-.731-.765-.026-.029-.062-.059-.089-.087l-.425-.424c-.018-.019-.035-.038-.063-.058-1.739-1.707-3.673-3.243-5.754-4.595l-115.66-76.95c-9.976-6.63-22.544-8.385-33.82-5.677-.031.006-.062.011-.094.025-.251.07-.511.13-.761.192z"/><path id="L" d="M-28.779 231.359l-.449.047-.449.046-.793.096c-.035.008-.066.008-.098.009-11.585 1.454-22.249 7.435-28.232 16.976l-69.415 110.598c-1.768 2.74-3.099 5.711-3.906 8.827l-.027.074c-.043.169-.085.337-.122.517-.027.101-.055.201-.072.305-.025.092-.037.179-.061.272l-.112.546-.015.041a28.32 28.32 0 0 0-.157 9.897l.009.03c.038.236.075.472.124.703.017.068.024.133.04.2l.1.489c.033.135.057.268.09.404.023.078.036.154.059.233.971 4.171 2.853 8.017 5.427 11.423.028.035.064.081.089.124a8.48 8.48 0 0 0 .263.335l.298.381c.022.024.045.049.064.081 2.715 3.338 6.185 6.289 10.336 8.636l.206.12.42.225c.156.089.315.169.471.258l.219.115.696.356.048.013c3.302 1.641 6.903 2.85 10.696 3.58l.085.024.602.104.346.06c.107.021.218.034.316.052l.637.096c.019.005.038.011.057.016 3.68.527 7.39.584 11.017.193l165.1-15.778c3.646-.304 7.253-1.061 10.717-2.274l.047-.014a10.83 10.83 0 0 0 .599-.221l.293-.109.331-.124.554-.216c.035-.009.063-.028.098-.036 3.947-1.602 7.502-3.755 10.547-6.339.063-.055.125-.11.185-.156l.52-.461c.141-.123.273-.249.414-.372a3.31 3.31 0 0 0 .213-.203c2.92-2.727 5.21-5.791 6.87-9.05.031-.081.08-.158.121-.237.084-.166.167-.332.241-.501l.307-.674.043-.114c1.704-3.851 2.586-8.03 2.482-12.356-.003-.073-.001-.136-.005-.209-.005-.209-.013-.41-.028-.622l-.02-.394a8.96 8.96 0 0 0-.026-.35c-.036-.489-.085-.972-.144-1.458-.353-2.716-1.101-5.416-2.246-8.01-.013-.022-.016-.041-.023-.052a23.64 23.64 0 0 0-.678-1.434c-.029-.062-.058-.125-.1-.181-.077-.157-.158-.306-.245-.466a5.09 5.09 0 0 0-.148-.276c-.061-.116-.132-.235-.193-.352a6.35 6.35 0 0 1-.184-.321l-.096-.163c-.174-.292-.357-.587-.543-.873-.02-.033-.049-.068-.068-.1l-.321-.487c-.013-.021-.026-.043-.048-.067a33.82 33.82 0 0 0-4.602-5.47L3.993 242.515c-8.282-8.172-20.21-11.996-31.885-11.225-.032 0-.063 0-.098.009-.262.026-.531.042-.79.06z"/><path id="M" d="M163.831-38.492l.276-.307.276-.307.477-.552c.017-.027.039-.047.061-.066 6.925-8.11 9.448-18.833 5.735-29.189l-43.008-120.093c-1.031-3.006-2.561-5.905-4.579-8.585l-.042-.069c-.11-.144-.22-.289-.343-.437a3.52 3.52 0 0 0-.202-.258c-.059-.08-.123-.149-.183-.228l-.375-.452c-.009-.016-.019-.031-.023-.039-2.296-2.711-5.024-5.075-8.098-7.042l-.031-.015-.67-.417c-.068-.037-.127-.079-.195-.116l-.474-.282c-.136-.075-.263-.154-.398-.229-.082-.041-.154-.086-.235-.127-4.141-2.333-8.651-3.88-13.282-4.696a1.38 1.38 0 0 1-.166-.033 11.8 11.8 0 0 0-.462-.074l-.525-.085a.69.69 0 0 1-.112-.017 44.44 44.44 0 0 0-14.415.263l-.245.042-.481.099c-.183.033-.361.074-.544.107l-.249.054-.784.176-.044.02c-3.678.869-7.209 2.224-10.476 4.032l-.08.036c-.168.094-.345.193-.509.295l-.292.169c-.093.051-.181.11-.266.157l-.526.323-.053.024c-3.02 1.881-5.671 4.112-7.892 6.605L-42.386-87.708c-2.307 2.445-4.21 5.183-5.635 8.153l-.022.039c-.086.174-.163.344-.236.522l-.116.255-.129.29-.21.491c-.017.027-.021.058-.039.085-1.441 3.539-2.151 7.225-2.145 10.902.001.077.003.154 0 .223l.017.641c.003.173.015.342.019.515a2.72 2.72 0 0 0 .019.273c.212 3.701 1.146 7.253 2.684 10.555.046.076.075.16.112.241.079.168.158.336.246.5l.343.66.065.107c1.998 3.745 4.845 7.217 8.505 10.191.063.049.114.095.177.144a18.02 18.02 0 0 0 .536.419l.34.264.308.23c.431.321.866.63 1.31.935a39.98 39.98 0 0 0 8.22 4.247c.027.007.045.019.059.022.545.212 1.103.407 1.666.592a1.43 1.43 0 0 0 .22.066 17.64 17.64 0 0 0 .558.177c.113.037.225.074.333.103l.427.128c.135.037.27.073.396.114l.202.055a35.33 35.33 0 0 0 1.106.281c.04.011.09.018.13.029l.629.145c.027.007.054.015.09.018 2.556.572 5.161.909 7.766 1.023l146.014 7.808c12.59.668 24.133-3.948 31.687-11.632.022-.02.044-.039.061-.066.162-.179.338-.354.505-.526z"/><linearGradient id="N" gradientUnits="userSpaceOnUse"/></defs></svg>