<svg xmlns="http://www.w3.org/2000/svg" xmlns:xlink="http://www.w3.org/1999/xlink" width="1441" height="610" fill="none" xmlns:v="https://vecta.io/nano"><style><![CDATA[.B{fill-opacity:.5}]]></style><path fill="#90afe9" d="M0 0h1441v610H0z"/><mask id="A" maskUnits="userSpaceOnUse" x="0" y="0" width="1441" height="600" mask-type="alpha"><path fill="#2862cc" d="M0 0h1441v600H0z"/></mask><g mask="url(#A)" class="B"><use xlink:href="#J" fill="url(#B)"/><use xlink:href="#J" fill="url(#C)"/><use xlink:href="#K" fill="url(#D)"/><use xlink:href="#K" fill="url(#E)"/><use xlink:href="#L" fill="url(#F)"/><use xlink:href="#L" fill="url(#G)"/><use xlink:href="#M" fill="url(#H)"/><use xlink:href="#M" fill="url(#I)"/></g><defs><linearGradient id="B" x1="1190.58" y1="140.166" x2="1204.38" y2="-187.815" xlink:href="#N"><stop stop-color="#fff"/><stop offset=".47" stop-color="#fff" stop-opacity="0"/></linearGradient><linearGradient id="C" x1="1381.92" y1="-75.918" x2="886.734" y2="126.071" xlink:href="#N"><stop stop-color="#fff"/><stop offset=".47" stop-color="#fff" stop-opacity="0"/></linearGradient><linearGradient id="D" x1="989" y1="170.682" x2="802.603" y2="462.955" xlink:href="#N"><stop stop-color="#fff"/><stop offset=".47" stop-color="#fff" stop-opacity="0"/></linearGradient><linearGradient id="E" x1="687.001" y1="258.551" x2="1199.9" y2="423.275" xlink:href="#N"><stop stop-color="#fff"/><stop offset=".47" stop-color="#fff" stop-opacity="0"/></linearGradient><linearGradient id="F" x1="127.662" y1="205.573" x2="-118.52" y2="465.387" xlink:href="#N"><stop stop-color="#fff"/><stop offset=".47" stop-color="#fff" stop-opacity="0"/></linearGradient><linearGradient id="G" x1="-188.81" y1="242.064" x2="264.305" y2="508.43" xlink:href="#N"><stop stop-color="#fff"/><stop offset=".47" stop-color="#fff" stop-opacity="0"/></linearGradient><linearGradient id="H" x1="72.582" y1="71.731" x2="86.376" y2="-256.25" xlink:href="#N"><stop stop-color="#fff"/><stop offset=".47" stop-color="#fff" stop-opacity="0"/></linearGradient><linearGradient id="I" x1="263.916" y1="-144.354" x2="-231.266" y2="57.635" xlink:href="#N"><stop stop-color="#fff"/><stop offset=".47" stop-color="#fff" stop-opacity="0"/></linearGradient><path id="J" d="M1281.83 30.574l.28-.302.27-.302.48-.543c.02-.027.04-.046.06-.065 6.93-7.977 9.45-18.524 5.74-28.711l-43.01-118.124c-1.03-2.957-2.56-5.808-4.58-8.445-.01-.022-.03-.045-.04-.067a7.89 7.89 0 0 0-.35-.43c-.06-.086-.12-.172-.2-.254-.06-.079-.12-.146-.18-.224a15.01 15.01 0 0 0-.38-.445c0-.015-.01-.03-.02-.038-2.29-2.667-5.02-4.991-8.1-6.926l-.03-.015c-.22-.14-.44-.281-.67-.41-.07-.037-.12-.078-.19-.115l-.48-.277-.39-.225c-.09-.04-.16-.085-.24-.125-4.14-2.294-8.65-3.817-13.28-4.619a1.98 1.98 0 0 1-.17-.032 10.46 10.46 0 0 0-.46-.073l-.53-.084c-.03-.003-.07-.006-.11-.017a45.09 45.09 0 0 0-14.41.26l-.25.041-.48.097-.54.105-.25.053-.79.173-.04.02c-3.68.854-7.21 2.187-10.48 3.966-.02.012-.05.023-.08.035-.16.093-.34.19-.5.29l-.3.167c-.09.05-.18.108-.26.154l-.53.318c-.02.007-.03.015-.05.023-3.02 1.851-5.67 4.045-7.89 6.497l-102.79 110.26c-2.3 2.405-4.21 5.098-5.63 8.02l-.02.038c-.09.171-.17.339-.24.513l-.12.251-.12.285c-.07.163-.15.319-.21.483-.02.027-.03.057-.04.084-1.44 3.481-2.15 7.107-2.15 10.723 0 .076.01.151 0 .219.01.208.01.416.02.631 0 .17.01.336.02.506 0 .094.01.177.02.268.21 3.64 1.14 7.134 2.68 10.382.05.075.07.158.11.236.08.165.16.33.25.492l.34.649c.02.037.04.068.07.105 1.99 3.684 4.84 7.099 8.5 10.024.06.048.11.093.18.141l.53.412c.11.085.24.174.34.26l.31.226a46.95 46.95 0 0 0 1.31.919c2.5 1.663 5.27 3.076 8.22 4.178.03.007.05.018.06.022.55.208 1.1.401 1.67.582.07.025.14.051.22.065a11.87 11.87 0 0 0 .56.174 5.54 5.54 0 0 0 .33.101c.14.044.29.083.43.127.13.036.27.072.39.112l.2.054 1.11.276c.04.011.09.018.13.029l.63.143c.03.007.05.014.09.018a45.14 45.14 0 0 0 7.76 1.006l146.02 7.68c12.59.657 24.13-3.883 31.69-11.441.02-.019.04-.038.06-.065a13.83 13.83 0 0 1 .5-.517z"/><path id="K" d="M840.624 217.996l-.429.119-.429.119-.756.223c-.032.014-.063.019-.094.025-11.034 3.309-20.138 10.834-23.843 21.023L772.065 357.63c-1.114 2.934-1.745 6.019-1.83 9.159l-.01.075a9.94 9.94 0 0 0-.002.519c-.004.102-.008.203-.002.306-.003.093.005.179.002.272l.014.546-.005.042c.124 3.296.834 6.515 2.089 9.574l.017.028c.09.221.18.443.281.657.031.063.053.124.084.187l.209.455c.063.125.116.249.179.375.04.072.071.143.111.215 1.899 3.864 4.617 7.265 7.913 10.128a1.11 1.11 0 0 1 .116.105 9.35 9.35 0 0 0 .334.28l.378.318c.028.02.055.04.082.068 3.419 2.773 7.492 5.05 12.095 6.63l.23.083.463.148c.173.06.347.111.52.171l.241.075.764.229.049.005a44.21 44.21 0 0 0 11.304 1.694l.089.009c.201.003.412.007.614.001l.352.001c.111.003.222-.003.323-.002l.646-.012.059.006a44.46 44.46 0 0 0 10.85-1.627l158.361-42.389c3.507-.893 6.873-2.218 9.996-3.957l.043-.022c.185-.1.36-.202.537-.312l.263-.152.296-.175.495-.3c.032-.014.055-.037.087-.051 3.508-2.194 6.507-4.857 8.908-7.851.049-.063.098-.126.146-.181.135-.174.274-.347.404-.529l.32-.428.17-.23c2.24-3.112 3.79-6.445 4.68-9.862.01-.084.05-.166.07-.249.04-.174.09-.348.12-.523.05-.233.11-.466.15-.7 0-.042.01-.076.02-.118.79-3.995.71-8.172-.37-12.329-.02-.07-.03-.131-.05-.201l-.17-.595a5.52 5.52 0 0 1-.11-.377c-.04-.114-.07-.228-.11-.334a23.42 23.42 0 0 0-.47-1.382c-.96-2.563-2.31-5.045-4.02-7.359-.02-.019-.02-.036-.03-.046-.31-.431-.648-.855-.992-1.272-.043-.056-.085-.111-.139-.159-.112-.138-.225-.269-.346-.408-.069-.084-.138-.167-.208-.242-.086-.102-.183-.206-.269-.308-.088-.094-.176-.187-.253-.28l-.132-.141c-.236-.253-.483-.507-.73-.753-.027-.028-.063-.057-.089-.085l-.426-.417a.35.35 0 0 0-.062-.057c-1.74-1.679-3.674-3.19-5.754-4.52l-115.661-75.689c-9.976-6.521-22.543-8.248-33.819-5.583a.42.42 0 0 0-.094.024c-.252.069-.512.128-.762.188z"/><path id="L" d="M-28.779 227.566l-.449.046-.449.046-.793.094c-.035.008-.066.008-.098.008-11.585 1.431-22.249 7.314-28.232 16.698l-69.415 108.786c-1.768 2.695-3.099 5.617-3.906 8.682l-.027.072c-.043.166-.085.332-.122.509-.027.099-.055.198-.072.3-.025.091-.037.176-.061.267l-.112.538-.015.04c-.637 3.254-.683 6.527-.157 9.735l.009.029c.038.232.075.465.124.691.017.067.024.131.04.198l.1.48c.033.133.057.264.09.398.023.077.036.152.059.229.971 4.102 2.853 7.885 5.427 11.236.028.034.064.08.089.122.084.112.177.226.263.329l.298.375c.022.024.045.048.064.08 2.715 3.283 6.185 6.186 10.336 8.494l.206.118.42.222c.156.087.315.166.471.253l.219.113.696.35.048.013c3.302 1.614 6.903 2.804 10.696 3.522l.085.023.602.103.346.059c.107.02.218.033.316.051l.637.094c.019.005.038.011.057.016 3.68.518 7.39.574 11.017.19l165.1-15.52c3.646-.299 7.253-1.044 10.717-2.236l.047-.014c.205-.068.4-.139.599-.218l.293-.106.331-.123.554-.212c.035-.009.063-.028.098-.036 3.947-1.576 7.502-3.693 10.547-6.235.063-.054.125-.108.185-.154l.52-.452c.141-.121.273-.245.414-.367.078-.067.144-.129.213-.199 2.92-2.682 5.21-5.697 6.87-8.901.031-.081.08-.156.121-.234.083-.163.167-.327.241-.493l.307-.662.043-.113c1.704-3.788 2.586-7.898 2.482-12.153-.003-.073-.001-.134-.005-.206a12.7 12.7 0 0 0-.028-.612l-.02-.387a8.69 8.69 0 0 0-.026-.345c-.036-.48-.085-.955-.144-1.433-.353-2.672-1.101-5.328-2.246-7.879-.013-.022-.016-.04-.023-.051-.207-.474-.436-.945-.678-1.411-.029-.061-.058-.123-.1-.178-.077-.155-.158-.301-.245-.458a4.95 4.95 0 0 0-.148-.272c-.061-.114-.132-.231-.193-.346-.065-.106-.129-.212-.184-.316l-.096-.16c-.174-.287-.357-.577-.543-.859-.02-.032-.049-.066-.068-.098l-.321-.479c-.013-.021-.026-.042-.048-.066-1.319-1.933-2.868-3.734-4.602-5.38L3.993 238.54c-8.282-8.039-20.21-11.8-31.885-11.042-.032 0-.063 0-.098.009-.262.026-.531.041-.79.059z"/><path id="M" d="M163.831-37.861l.276-.302.276-.302.477-.543c.017-.027.039-.046.061-.065 6.925-7.977 9.448-18.524 5.735-28.711l-43.008-118.125c-1.031-2.956-2.561-5.807-4.579-8.444l-.042-.067a11.31 11.31 0 0 0-.343-.43c-.064-.086-.129-.172-.202-.255-.059-.078-.123-.145-.183-.224l-.375-.444c-.009-.015-.019-.03-.023-.038-2.296-2.667-5.024-4.992-8.098-6.926l-.031-.015a17.96 17.96 0 0 0-.67-.411c-.068-.036-.127-.077-.195-.114l-.474-.277c-.136-.074-.263-.151-.398-.225-.082-.041-.154-.085-.235-.125-4.141-2.295-8.651-3.817-13.282-4.62a1.58 1.58 0 0 1-.166-.031c-.153-.029-.314-.053-.462-.074l-.525-.083a.69.69 0 0 1-.112-.017c-4.673-.67-9.556-.619-14.415.259l-.245.041-.481.097-.544.106-.249.053-.784.173-.044.019c-3.678.855-7.209 2.188-10.476 3.966l-.08.036c-.168.093-.345.189-.509.29l-.292.166c-.093.051-.181.109-.266.155l-.526.317-.053.024c-3.02 1.851-5.671 4.044-7.892 6.497L-42.386-86.27c-2.307 2.404-4.21 5.098-5.635 8.02l-.022.038c-.086.171-.163.338-.236.513l-.116.251-.129.285-.21.483c-.017.027-.021.057-.039.084-1.441 3.481-2.151 7.107-2.145 10.723.001.076.003.151 0 .219l.017.631c.003.17.015.336.019.506.002.094.008.178.019.268.212 3.64 1.146 7.134 2.684 10.382.046.075.075.158.112.236.079.165.158.33.246.492l.343.649.065.105c1.998 3.684 4.845 7.099 8.505 10.024.063.048.114.093.177.141.177.141.35.275.536.412l.34.26.308.226a42.77 42.77 0 0 0 1.31.919c2.501 1.663 5.265 3.076 8.22 4.178.027.007.045.018.059.022a33.55 33.55 0 0 0 1.666.582 1.45 1.45 0 0 0 .22.065 17.95 17.95 0 0 0 .558.174c.113.036.225.073.333.101l.427.127c.135.036.27.072.396.112l.202.054a35.84 35.84 0 0 0 1.106.276c.04.011.09.018.13.028l.629.143c.027.007.054.014.09.018a45.2 45.2 0 0 0 7.766 1.006l146.014 7.68c12.59.657 24.133-3.883 31.687-11.441.022-.019.044-.038.061-.065.162-.176.338-.349.505-.517z"/><linearGradient id="N" gradientUnits="userSpaceOnUse"/></defs></svg>